<svg width="512" height="512" viewBox="0 0 512 512" fill="none" xmlns="http://www.w3.org/2000/svg">
<g clip-path="url(#clip0)">
<path d="M256 323.5C240.434 325.233 233.781 329.583 226 344V456.325C226 458.436 225.797 460.549 225.283 462.597C222.276 474.567 217.856 479.893 207.651 483.21C204.636 484.189 201.358 484.193 198.364 483.154C187.762 479.476 184.734 473.419 182.621 461.924C182.325 460.316 182.2 458.678 182.2 457.043V297H329.8V457.043C329.8 458.678 329.675 460.316 329.379 461.924C327.266 473.419 324.238 479.476 313.636 483.154C310.642 484.193 307.364 484.189 304.349 483.21C294.144 479.893 289.724 474.567 286.717 462.597C286.203 460.549 286 458.436 286 456.325V344C278.219 329.583 271.566 325.233 256 323.5Z" fill="#F1D791"/>
<path fill-rule="evenodd" clip-rule="evenodd" d="M182.621 461.924C182.325 460.316 182.2 458.678 182.2 457.043V297H329.8V457.043C329.8 458.678 329.675 460.316 329.379 461.924C327.266 473.419 324.238 479.476 313.636 483.154C310.642 484.193 307.364 484.189 304.349 483.21C294.144 479.893 289.724 474.567 286.717 462.597C286.203 460.549 286 458.436 286 456.325V344C278.219 329.583 271.566 325.233 256 323.5C240.434 325.233 233.781 329.583 226 344V456.325C226 458.436 225.797 460.549 225.283 462.597C222.276 474.567 217.856 479.893 207.651 483.21C204.636 484.189 201.358 484.193 198.364 483.154C187.762 479.476 184.734 473.419 182.621 461.924ZM229 344.764V456.325C229 458.623 228.78 460.99 228.193 463.328C226.639 469.511 224.637 474.345 221.452 478.091C218.226 481.886 214.021 484.294 208.578 486.063C204.965 487.237 201.015 487.25 197.38 485.988C191.647 483.999 187.637 481.24 184.837 477.17C182.115 473.213 180.743 468.298 179.67 462.466C179.337 460.652 179.2 458.83 179.2 457.043V297C179.2 295.343 180.543 294 182.2 294H329.8C331.457 294 332.8 295.343 332.8 297V457.043C332.8 458.83 332.663 460.652 332.33 462.466C331.257 468.298 329.885 473.213 327.163 477.17C324.363 481.24 320.353 483.999 314.62 485.988C310.985 487.25 307.035 487.237 303.422 486.063C297.979 484.294 293.774 481.886 290.548 478.091C287.363 474.345 285.361 469.511 283.807 463.328C283.22 460.99 283 458.623 283 456.325V344.764C279.35 338.121 276.106 334.101 272.236 331.477C268.303 328.81 263.403 327.369 256 326.519C248.597 327.369 243.697 328.81 239.764 331.477C235.894 334.101 232.65 338.121 229 344.764Z" fill="black"/>
<path d="M256 323.5C240.434 325.233 233.781 329.583 226 344V416.969H182.2V297H329.8V416.969H286V344C278.219 329.583 271.566 325.233 256 323.5Z" fill="#4B842B"/>
<path fill-rule="evenodd" clip-rule="evenodd" d="M182.2 416.969H226V344C233.781 329.583 240.434 325.233 256 323.5C271.566 325.233 278.219 329.583 286 344V416.969H329.8V297H182.2V416.969ZM283 344.764V416.969C283 418.626 284.343 419.969 286 419.969H329.8C331.457 419.969 332.8 418.626 332.8 416.969V297C332.8 295.343 331.457 294 329.8 294H182.2C180.543 294 179.2 295.343 179.2 297V416.969C179.2 418.626 180.543 419.969 182.2 419.969H226C227.657 419.969 229 418.626 229 416.969V344.764C232.65 338.121 235.894 334.101 239.764 331.477C243.697 328.81 248.597 327.369 256 326.519C263.403 327.369 268.303 328.81 272.236 331.477C276.106 334.101 279.35 338.121 283 344.764Z" fill="black"/>
<path d="M89.463 285.549C108.84 227.843 124.176 194.365 159.329 151.904C168.388 140.962 182.046 135 196.251 135L315.749 135C329.954 135 343.612 140.962 352.671 151.904C387.824 194.365 403.16 227.843 422.537 285.549L423.524 290.336C427.726 310.725 403.104 321.952 390.031 309.285C386.874 306.226 385.574 301.815 384.476 297.559C373.115 253.505 356.981 228.883 329.8 184.5V297H182.2V184.5C155.019 228.883 138.885 253.505 127.524 297.559C126.426 301.815 125.126 306.226 121.969 309.285C108.896 321.952 84.2744 310.725 88.4764 290.336L89.463 285.549Z" fill="#F1D791"/>
<path fill-rule="evenodd" clip-rule="evenodd" d="M86.5247 284.943C86.5491 284.825 86.5806 284.708 86.619 284.594C106.062 226.692 121.545 192.839 157.018 149.99C166.689 138.31 181.22 132 196.251 132L315.749 132C330.78 132 345.312 138.31 354.982 149.99C390.455 192.839 405.938 226.692 425.381 284.594C425.419 284.708 425.451 284.825 425.475 284.943L426.462 289.73C428.866 301.395 422.947 310.555 414.638 314.869C406.432 319.13 395.561 318.821 387.943 311.439C384.1 307.716 382.648 302.485 381.571 298.308C371.128 257.812 356.665 234.007 332.8 195.128V297C332.8 298.657 331.457 300 329.8 300H182.2C180.543 300 179.2 298.657 179.2 297V195.128C155.335 234.007 140.872 257.812 130.429 298.308C129.352 302.485 127.9 307.716 124.057 311.439C116.439 318.821 105.568 319.13 97.3623 314.869C89.0534 310.555 83.1342 301.395 85.5382 289.73L86.5247 284.943ZM179.2 189.393C180.185 187.788 181.185 186.158 182.2 184.5V297H329.8V184.5C330.816 186.158 331.815 187.788 332.8 189.393C333.423 190.407 334.039 191.411 334.649 192.405C358.931 231.957 373.808 256.19 384.476 297.559C385.574 301.815 386.874 306.226 390.031 309.285C403.104 321.952 427.726 310.725 423.524 290.336L422.537 285.549C403.16 227.843 387.824 194.365 352.671 151.904C343.612 140.962 329.954 135 315.749 135L196.251 135C182.046 135 168.388 140.962 159.329 151.904C124.176 194.365 108.84 227.843 89.4629 285.549L88.4764 290.336C84.2744 310.725 108.896 321.952 121.969 309.285C125.126 306.226 126.426 301.815 127.524 297.559C138.192 256.19 153.069 231.957 177.351 192.405C177.961 191.411 178.577 190.407 179.2 189.393Z" fill="black"/>
<path d="M182.2 297V184.5C168.218 206.247 160.408 218.458 148.186 242.53L114.525 220.882C130.53 189.977 142.073 171.65 160.05 150.859C169.009 140.498 182.254 135 195.951 135L316.049 135C329.746 135 342.991 140.498 351.95 150.859C369.927 171.65 381.47 189.977 397.475 220.882L363.814 242.53C351.592 218.458 343.782 206.247 329.8 184.5V297H256H182.2Z" fill="#78A85D"/>
<path fill-rule="evenodd" clip-rule="evenodd" d="M362.444 239.844C351.87 219.232 344.462 207.34 332.8 189.169C331.831 187.659 330.832 186.106 329.8 184.5V297H182.2V184.5C181.168 186.106 180.169 187.659 179.2 189.169C167.538 207.34 160.13 219.232 149.556 239.844C149.105 240.723 148.649 241.618 148.186 242.53L114.525 220.882C130.53 189.977 142.073 171.65 160.05 150.859C169.009 140.498 182.254 135 195.951 135L316.049 135C329.746 135 342.991 140.498 351.95 150.859C369.927 171.65 381.47 189.977 397.475 220.882L363.814 242.53C363.351 241.618 362.895 240.723 362.444 239.844ZM179.2 194.731C168.504 211.466 161.313 223.302 150.861 243.888C150.477 244.645 149.79 245.203 148.971 245.425C148.152 245.647 147.277 245.512 146.563 245.053L112.902 223.406C111.6 222.568 111.149 220.878 111.861 219.503C127.93 188.474 139.597 169.926 157.781 148.897C167.363 137.815 181.468 132 195.951 132L316.049 132C330.532 132 344.637 137.815 354.219 148.897C372.403 169.926 384.07 188.474 400.139 219.503C400.851 220.878 400.4 222.568 399.098 223.406L365.437 245.053C364.723 245.512 363.848 245.647 363.029 245.425C362.21 245.203 361.523 244.645 361.139 243.888C350.687 223.302 343.496 211.466 332.8 194.731V297C332.8 298.657 331.457 300 329.8 300H182.2C180.543 300 179.2 298.657 179.2 297V194.731Z" fill="black"/>
<circle cx="256" cy="91" r="62.5" fill="#F1D791" stroke="black" stroke-width="3"/>
<circle cx="236" cy="71" r="13" fill="black"/>
<circle cx="277" cy="71" r="13" fill="black"/>
<rect x="223" y="110" width="67" height="13" rx="6.5" fill="white"/>
<path d="M158.841 152.184L198.955 359.842" stroke="white" stroke-width="7"/>
<path fill-rule="evenodd" clip-rule="evenodd" d="M140.47 323.505C154.148 334.354 172.446 342.362 204.165 354.794L200.515 364.105C169.048 351.771 149.304 343.275 134.256 331.34C119.032 319.265 108.93 303.943 95.8949 278.863C93.7116 274.662 92.7941 269.909 93.257 265.198C96.0203 237.068 99.6933 219.087 109.329 202.213C118.854 185.534 134.017 170.3 158.633 147.14L165.485 154.423C140.672 177.768 126.671 192.011 118.013 207.172C109.468 222.136 105.942 238.355 103.209 266.175C102.936 268.959 103.478 271.77 104.768 274.251C117.659 299.055 126.969 312.796 140.47 323.505Z" fill="#473514"/>
<path d="M117.27 305.845C97.5192 281.07 95.0193 262.759 103.053 232.198" stroke="#9A0101" stroke-width="12"/>
<path d="M356.447 302.899L366.927 305.274L368.915 308.481L370.907 311.694L368.375 322.136L348.707 334.332L351.145 323.737L349.247 320.676L347.353 317.622L336.779 315.095L356.447 302.899Z" fill="#9A0101"/>
<path fill-rule="evenodd" clip-rule="evenodd" d="M367.366 304.654L371.658 311.576L368.989 322.583L347.646 335.817L350.397 323.859L346.911 318.237L334.977 315.385L356.32 302.151L367.366 304.654ZM366.487 305.894L356.575 303.647L338.581 314.804L347.795 317.006L351.892 323.615L349.768 332.847L367.762 321.69L370.157 311.812L366.487 305.894Z" fill="black"/>
<path fill-rule="evenodd" clip-rule="evenodd" d="M445.681 264.932L351.209 323.51L347.507 317.538L441.978 258.961L445.681 264.932Z" fill="#473514"/>
<path fill-rule="evenodd" clip-rule="evenodd" d="M442.316 257.924L446.76 265.09L350.871 324.546L346.428 317.381L442.316 257.924ZM441.64 259.997L348.585 317.696L351.547 322.474L444.603 264.774L441.64 259.997Z" fill="black"/>
<path d="M464.883 248.891L429.353 251.233L444.024 261.825L447.006 279.703L464.883 248.891Z" fill="#CDD5E2"/>
<path fill-rule="evenodd" clip-rule="evenodd" d="M466.152 248.104L446.636 281.741L443.381 262.224L427.364 250.661L466.152 248.104ZM463.615 249.678L431.343 251.805L444.668 261.426L447.377 277.666L463.615 249.678Z" fill="black"/>
</g>
<defs>
<clipPath id="clip0">
<rect width="512" height="512" fill="white"/>
</clipPath>
</defs>
</svg>
