<svg width="486" height="482" viewBox="0 0 486 482" fill="none" xmlns="http://www.w3.org/2000/svg">
<path d="M177 99V203H24V460C24 471.046 32.9543 480 44 480H424C435.046 480 444 471.046 444 460V203H309V99H177Z" fill="#CDCABB"/>
<path fill-rule="evenodd" clip-rule="evenodd" d="M175.5 97.5H310.5V201.5H445.5V460C445.5 471.874 435.874 481.5 424 481.5H44C32.1259 481.5 22.5 471.874 22.5 460V201.5H175.5V97.5ZM178.5 100.5V204.5H25.5V460C25.5 470.217 33.7827 478.5 44 478.5H424C434.217 478.5 442.5 470.217 442.5 460V204.5H307.5V100.5H178.5Z" fill="black"/>
<path d="M157 384V479.5H328V384C328 356.386 305.614 334 278 334H207C179.386 334 157 356.386 157 384Z" fill="#957357"/>
<path fill-rule="evenodd" clip-rule="evenodd" d="M207 335.5C180.214 335.5 158.5 357.214 158.5 384V478H326.5V384C326.5 357.214 304.786 335.5 278 335.5H207ZM155.5 384C155.5 355.557 178.557 332.5 207 332.5H278C306.443 332.5 329.5 355.557 329.5 384V481H155.5V384Z" fill="black"/>
<path d="M2 208V131H31V180H85V131H119V180H173V131H202V208C202 219.046 193.046 228 182 228H22C10.9543 228 2 219.046 2 208Z" fill="#B9B6A9"/>
<path fill-rule="evenodd" clip-rule="evenodd" d="M0.5 129.5H32.5V178.5H83.5V129.5H120.5V178.5H171.5V129.5H203.5V208C203.5 219.874 193.874 229.5 182 229.5H22C10.1259 229.5 0.5 219.874 0.5 208V129.5ZM3.5 132.5V208C3.5 218.217 11.7827 226.5 22 226.5H182C192.217 226.5 200.5 218.217 200.5 208V132.5H174.5V181.5H117.5V132.5H86.5V181.5H29.5V132.5H3.5Z" fill="black"/>
<path d="M143 79V2H172V51H226V2H260V51H314V2H343V79C343 90.0457 334.046 99 323 99H163C151.954 99 143 90.0457 143 79Z" fill="#B9B6A9"/>
<path fill-rule="evenodd" clip-rule="evenodd" d="M141.5 0.5H173.5V49.5H224.5V0.5H261.5V49.5H312.5V0.5H344.5V79C344.5 90.8741 334.874 100.5 323 100.5H163C151.126 100.5 141.5 90.8741 141.5 79V0.5ZM144.5 3.5V79C144.5 89.2173 152.783 97.5 163 97.5H323C333.217 97.5 341.5 89.2173 341.5 79V3.5H315.5V52.5H258.5V3.5H227.5V52.5H170.5V3.5H144.5Z" fill="black"/>
<path d="M284 208V131H313V180H367V131H401V180H455V131H484V208C484 219.046 475.046 228 464 228H304C292.954 228 284 219.046 284 208Z" fill="#B9B6A9"/>
<path fill-rule="evenodd" clip-rule="evenodd" d="M282.5 129.5H314.5V178.5H365.5V129.5H402.5V178.5H453.5V129.5H485.5V208C485.5 219.874 475.874 229.5 464 229.5H304C292.126 229.5 282.5 219.874 282.5 208V129.5ZM285.5 132.5V208C285.5 218.217 293.783 226.5 304 226.5H464C474.217 226.5 482.5 218.217 482.5 208V132.5H456.5V181.5H399.5V132.5H368.5V181.5H311.5V132.5H285.5Z" fill="black"/>
<path d="M64 282.176V331.5H124V282.176C124 279.746 123.567 277.32 122.655 275.067C116.523 259.914 112.08 256.18 102.024 251.541C96.9484 249.2 91.0516 249.2 85.9761 251.541C75.9203 256.18 71.4769 259.914 65.3448 275.067C64.4331 277.32 64 279.746 64 282.176Z" fill="black"/>
<path d="M354 282.176V331.5H414V282.176C414 279.746 413.567 277.32 412.655 275.067C406.523 259.914 402.08 256.18 392.024 251.541C386.948 249.2 381.052 249.2 375.976 251.541C365.92 256.18 361.477 259.914 355.345 275.067C354.433 277.32 354 279.746 354 282.176Z" fill="black"/>
</svg>
