<svg width="512" height="512" viewBox="0 0 512 512" fill="none" xmlns="http://www.w3.org/2000/svg">
<path d="M61.0939 449.909L111.272 203.656L187.172 135.768H250H312.828L388.728 203.656L438.906 449.909H61.0939Z" fill="#957357"/>
<path fill-rule="evenodd" clip-rule="evenodd" d="M186.689 134.503H313.311L389.884 202.993L440.455 451.174H59.5451L110.116 202.993L186.689 134.503ZM187.655 137.033L114.584 202.391H385.416L312.345 137.033H187.655ZM387.695 204.921H112.305L62.6426 448.644H437.357L387.695 204.921Z" fill="black"/>
<path d="M119.284 449.909L163.137 234.438L206.99 180.464H250H293.01L336.863 234.438L380.716 449.909H250H119.284Z" fill="#AC8665"/>
<path fill-rule="evenodd" clip-rule="evenodd" d="M206.388 179.199H293.612L338.041 233.881L382.265 451.174H117.735L161.959 233.881L206.388 179.199ZM207.592 181.729L165.795 233.173H334.205L292.408 181.729H207.592ZM335.83 235.703H164.17L120.832 448.644H379.168L335.83 235.703Z" fill="black"/>
<path d="M207.412 333.529L191.388 449.909H308.611L292.588 333.529C286.164 309.906 279.34 298.2 266.005 291.739C256.015 286.899 243.985 286.899 233.995 291.739C220.66 298.2 213.836 309.906 207.412 333.529Z" fill="#CDCABB"/>
<path fill-rule="evenodd" clip-rule="evenodd" d="M265.453 292.877C255.812 288.206 244.188 288.206 234.547 292.877C221.745 299.08 215.05 310.291 208.654 333.782L192.84 448.644H307.16L291.346 333.782C284.95 310.291 278.255 299.08 265.453 292.877ZM233.444 290.601C243.782 285.592 256.218 285.592 266.556 290.601C280.411 297.313 287.364 309.496 293.809 333.197L293.83 333.276L310.063 451.174H189.937L206.17 333.276L206.191 333.197C212.636 309.496 219.589 297.313 233.444 290.601Z" fill="black"/>
<path d="M244.097 37.862V135.768H255.903V37.862C255.903 34.6242 254.015 31.9994 251.687 31.9994H248.313C245.985 31.9994 244.097 34.6242 244.097 37.862Z" fill="#CDCABB"/>
<path fill-rule="evenodd" clip-rule="evenodd" d="M248.313 35.4431C246.683 35.4431 245.362 37.2419 245.362 39.4608V133.589H254.638V39.4608C254.638 37.2419 253.317 35.4431 251.687 35.4431H248.313ZM242.832 39.4608C242.832 35.34 245.286 31.9994 248.313 31.9994H251.687C254.714 31.9994 257.168 35.34 257.168 39.4608V137.033H242.832V39.4608Z" fill="black"/>
<path d="M327.191 52.391C296.01 51.7757 280.118 49.031 256.034 37.7082L256.11 75.6086C286.768 73.7119 302.021 67.8615 327.191 52.391Z" fill="#FF6666"/>
<path fill-rule="evenodd" clip-rule="evenodd" d="M254.478 35.2635L256.694 36.3049C280.524 47.5085 296.186 50.2282 327.222 50.8407L332.505 50.945L328.003 53.712C315.379 61.4716 305.158 66.8713 294.203 70.5595C283.242 74.2502 271.619 76.2027 256.205 77.1563L254.562 77.2579L254.478 35.2635ZM257.589 40.1392L257.657 73.9545C272.079 72.9763 282.977 71.067 293.214 67.6204C302.533 64.4826 311.362 60.0519 321.852 53.8105C294.842 52.9994 279.329 50.0872 257.589 40.1392Z" fill="black"/>
</svg>
