<svg width="512" height="512" viewBox="0 0 512 512" fill="none" xmlns="http://www.w3.org/2000/svg">
<path d="M40 220V477C40 488.046 48.9543 497 60 497H434C445.046 497 454 488.046 454 477V220H322H190H40Z" fill="#CDCABB"/>
<path fill-rule="evenodd" clip-rule="evenodd" d="M38.5 218.5H455.5V477C455.5 488.874 445.874 498.5 434 498.5H60C48.1259 498.5 38.5 488.874 38.5 477V218.5ZM41.5 221.5V477C41.5 487.217 49.7827 495.5 60 495.5H434C444.217 495.5 452.5 487.217 452.5 477V221.5H41.5Z" fill="black"/>
<path d="M16 204V127H45V176H99V127H133V176H187V127H216V204C216 215.046 207.046 224 196 224H36C24.9543 224 16 215.046 16 204Z" fill="#B9B6A9"/>
<path fill-rule="evenodd" clip-rule="evenodd" d="M14.5 125.5H46.5V174.5H97.5V125.5H134.5V174.5H185.5V125.5H217.5V204C217.5 215.874 207.874 225.5 196 225.5H36C24.1259 225.5 14.5 215.874 14.5 204V125.5ZM17.5 128.5V204C17.5 214.217 25.7827 222.5 36 222.5H196C206.217 222.5 214.5 214.217 214.5 204V128.5H188.5V177.5H131.5V128.5H100.5V177.5H43.5V128.5H17.5Z" fill="black"/>
<path d="M296 200V123H325V172H379V123H413V172H467V123H496V200C496 211.046 487.046 220 476 220H316C304.954 220 296 211.046 296 200Z" fill="#B9B6A9"/>
<path fill-rule="evenodd" clip-rule="evenodd" d="M294.5 121.5H326.5V170.5H377.5V121.5H414.5V170.5H465.5V121.5H497.5V200C497.5 211.874 487.874 221.5 476 221.5H316C304.126 221.5 294.5 211.874 294.5 200V121.5ZM297.5 124.5V200C297.5 210.217 305.783 218.5 316 218.5H476C486.217 218.5 494.5 210.217 494.5 200V124.5H468.5V173.5H411.5V124.5H380.5V173.5H323.5V124.5H297.5Z" fill="black"/>
<path d="M146 278.176V327.5H86V278.176C86 275.746 86.4331 273.32 87.3448 271.067C93.4769 255.914 97.9203 252.18 107.976 247.541C113.052 245.2 118.948 245.2 124.024 247.541C134.08 252.18 138.523 255.914 144.655 271.067C145.567 273.32 146 275.746 146 278.176Z" fill="black"/>
<path d="M426 278.176V327.5H366V278.176C366 275.746 366.433 273.32 367.345 271.067C373.477 255.914 377.92 252.18 387.976 247.541C393.052 245.2 398.948 245.2 404.024 247.541C414.08 252.18 418.523 255.914 424.655 271.067C425.567 273.32 426 275.746 426 278.176Z" fill="black"/>
<path d="M220.636 401.483V479.502H257.713H294.791V401.483C294.791 378.924 283.672 360.636 269.956 360.636H257.713H245.47C231.755 360.636 220.636 378.924 220.636 401.483Z" fill="#957357"/>
<path fill-rule="evenodd" clip-rule="evenodd" d="M229.307 373.45C224.993 380.546 222.272 390.453 222.272 401.483V477.867H293.155V401.483C293.155 390.453 290.434 380.546 286.119 373.45C281.787 366.324 276.025 362.272 269.956 362.272H245.47C239.402 362.272 233.639 366.324 229.307 373.45ZM226.512 371.75C231.168 364.091 237.823 359 245.47 359H269.956C277.604 359 284.259 364.091 288.915 371.75C293.589 379.438 296.427 389.954 296.427 401.483V481.138H219V401.483C219 389.954 221.838 379.438 226.512 371.75Z" fill="black"/>
</svg>
