<svg width="512" height="512" viewBox="0 0 512 512" fill="none" xmlns="http://www.w3.org/2000/svg">
<path d="M390.21 234.398C473.985 202.338 538.342 344.422 432.93 420.199H321.269C319.519 420.269 317.718 420.27 315.866 420.199H74.5276C-0.925469 400.526 9.61576 238.77 102.268 266.458C106.874 209.994 164.07 157.018 210.454 181.384C272.592 87.2147 361.915 103.245 390.21 234.398Z" fill="url(#paint0_linear_1_2)"/>
<path fill-rule="evenodd" clip-rule="evenodd" d="M393.989 225.541C436.379 212.675 473.695 241.365 487.608 284.001C494.871 306.259 495.7 332.194 487.618 357.573C479.548 382.917 462.783 407.148 435.588 426.713L434.343 427.609H321.347C319.537 427.679 317.683 427.68 315.783 427.609H73.9809L73.446 427.469C32.2278 416.714 14.721 367.007 19.8788 324.466C22.4721 303.076 30.8132 282.917 45.0937 270.029C58.288 258.12 75.9898 252.92 97.696 257.823C102.163 229.761 117.891 203.961 137.716 187.399C158.391 170.128 184.54 162.056 208.807 172.759C240.334 126.943 278.929 107.101 314.083 116.128C349.078 125.115 378.886 162.238 393.989 225.541ZM219.601 178.896C248.692 138.487 282.483 122.873 311.955 130.441C342.985 138.41 371.118 172.582 384.867 236.361L386.391 243.429L391.757 241.374C430.962 226.359 465.135 252.131 477.41 289.749C483.531 308.508 484.263 330.335 477.382 351.943C470.602 373.235 456.246 394.855 431.493 413.025H357.208C359.318 410.961 361.243 408.713 362.982 406.305C371.931 393.911 375.524 377.824 374.305 362.402C373.087 347.005 367.072 332.2 356.802 322.222C347.523 313.206 335.074 308.412 320.138 310.178C316.05 288.432 310.506 273.981 300.872 265.951C291.478 258.121 279.314 257.452 264.383 258.756C254.341 217.742 238.347 192.114 219.601 178.896ZM321.179 413.025C337.494 412.351 348.379 405.343 354.934 396.266C361.52 387.144 364.173 375.349 363.269 363.91C362.362 352.445 357.883 341.408 350.206 333.949C342.586 326.546 331.439 322.319 316.744 325.429L311.557 326.527L310.441 319.779C306.32 294.864 301.425 283.681 294.93 278.267C288.179 272.641 278.247 271.88 260.829 273.726L256.334 274.202L255.061 268.517C244.628 221.939 227.044 197.895 208.391 188.088C187.293 176.997 163.282 183.322 143.668 199.707C123.986 216.149 109.857 241.783 107.783 267.234L107.118 275.387L101.035 273.568C79.0785 267.001 62.7004 271.829 51.3748 282.051C39.9786 292.336 33.0282 308.683 30.8364 326.761C26.4465 362.968 41.2203 403.811 75.0829 413.025H321.179Z" fill="black"/>
<path fill-rule="evenodd" clip-rule="evenodd" d="M169.534 316.089V232.549H158.471V362.069L135.114 324.043L126.509 333.191L158.471 385.228V423.957H169.534V343.45L201.877 275.721L192.509 267.978L169.534 316.089Z" fill="#C86426"/>
<path fill-rule="evenodd" clip-rule="evenodd" d="M249.536 305.408V415.313H238.502V363.841L210.744 333.801L217.713 322.441L238.502 344.939V305.408H249.536Z" fill="#C86426"/>
<path fill-rule="evenodd" clip-rule="evenodd" d="M101.017 321.461V416.547H89.8188V372.498L60.0087 341.651L66.9951 330.305L89.8188 353.923V321.461H101.017Z" fill="#C86426"/>
<path fill-rule="evenodd" clip-rule="evenodd" d="M313.735 214.33V177.451H302.736V284.414H313.735V234.166L355.937 182.863L348.523 172.04L313.735 214.33Z" fill="#763D19"/>
<path fill-rule="evenodd" clip-rule="evenodd" d="M399.307 317.677V285.388H388.327V364.443L359.268 325.649L351.503 336.014L388.327 385.174V420.252H399.307V337.103L447.929 280.658L440.724 269.596L399.307 317.677Z" fill="#763D19"/>
<path fill-rule="evenodd" clip-rule="evenodd" d="M393.989 225.541C436.379 212.675 473.695 241.365 487.608 284.001C494.871 306.259 495.7 332.194 487.618 357.573C479.548 382.917 462.783 407.148 435.588 426.713L434.343 427.609H321.334C319.528 427.679 317.678 427.679 315.783 427.609H73.9809L73.446 427.469C32.2278 416.714 14.721 367.007 19.8788 324.466C22.4721 303.076 30.8132 282.917 45.0937 270.029C58.288 258.12 75.9898 252.92 97.696 257.823C102.163 229.761 117.891 203.961 137.716 187.399C158.391 170.128 184.54 162.056 208.807 172.759C240.334 126.943 278.929 107.101 314.083 116.128C349.078 125.115 378.886 162.238 393.989 225.541ZM219.601 178.896C248.692 138.487 282.483 122.873 311.955 130.441C342.985 138.41 371.118 172.582 384.867 236.361L386.391 243.429L391.757 241.374C430.962 226.359 465.135 252.131 477.41 289.749C483.531 308.508 484.263 330.335 477.382 351.943C470.602 373.235 456.246 394.855 431.493 413.025H357.207C358.506 411.755 359.735 410.414 360.895 409.009C370.868 396.922 375.209 380.593 374.452 364.715C373.696 348.881 367.873 333.451 357.562 322.977C348.214 313.481 335.492 308.363 320.138 310.178C316.05 288.432 310.506 273.981 300.872 265.951C291.478 258.121 279.314 257.452 264.383 258.756C254.341 217.742 238.347 192.114 219.601 178.896ZM321.192 413.025C336.283 412.401 346.729 406.339 353.373 398.287C360.754 389.342 363.938 377.369 363.377 365.628C362.815 353.844 358.479 342.34 350.776 334.516C343.138 326.757 331.802 322.243 316.744 325.429L311.557 326.527L310.441 319.779C306.32 294.864 301.425 283.681 294.93 278.267C288.179 272.641 278.247 271.88 260.829 273.726L256.334 274.202L255.061 268.517C244.628 221.939 227.044 197.895 208.391 188.089C187.293 176.997 163.282 183.322 143.668 199.707C123.986 216.149 109.857 241.783 107.783 267.234L107.118 275.387L101.035 273.568C79.0785 267.001 62.7004 271.829 51.3748 282.051C39.9786 292.336 33.0282 308.683 30.8364 326.761C26.4465 362.968 41.2203 403.812 75.0829 413.025H321.192Z" fill="black"/>
<defs>
<linearGradient id="paint0_linear_1_2" x1="132.227" y1="324.02" x2="640.969" y2="416.972" gradientUnits="userSpaceOnUse">
<stop stop-color="#59F332"/>
<stop offset="0.4" stop-color="#43A12C"/>
</linearGradient>
</defs>
</svg>
