<svg width="463" height="424" viewBox="0 0 463 424" fill="none" xmlns="http://www.w3.org/2000/svg">
<path d="M2.22476 270.805C5.01942 286.76 12.2089 299.305 23.6195 309.405C31.8124 316.657 42.453 321.028 53.394 320.934C60.4166 320.873 66.2702 319.447 71.2558 316.726C90.6129 306.16 90.6179 277.854 82.4202 257.381C79.1362 249.18 74.2441 241.567 65.5176 234.615C53.6776 225.182 37.1588 221.997 23.5218 228.569C20.2411 230.15 17.1782 232.023 14.3912 234.128C3.37799 242.444 -0.156176 257.211 2.22476 270.805Z" fill="#C4C4C4"/>
<path fill-rule="evenodd" clip-rule="evenodd" d="M64.5829 235.788C53.1081 226.646 37.1995 223.642 24.173 229.92C20.9803 231.459 18.0022 233.281 15.2951 235.325C4.86939 243.197 1.38442 257.313 3.70227 270.546C6.4384 286.167 13.4577 298.407 24.6137 308.282C32.5567 315.312 42.8461 319.525 53.381 319.434C60.2018 319.375 65.8043 317.993 70.5372 315.409C79.6615 310.429 84.3259 301.23 85.6831 290.579C87.0417 279.917 85.0485 267.98 81.0277 257.939C77.8267 249.945 73.0792 242.557 64.5829 235.788ZM22.8706 227.218C37.1181 220.351 54.2471 223.718 66.4523 233.442C75.409 240.577 80.4456 248.415 83.8127 256.824C87.9896 267.255 90.0927 279.708 88.659 290.958C87.2239 302.22 82.2072 312.457 71.9745 318.043C66.7361 320.902 60.6315 322.372 53.4069 322.434C42.0599 322.532 31.0682 318.001 22.6253 310.528C10.9601 300.203 3.60044 287.353 0.747252 271.063C-1.69677 257.11 1.88659 241.69 13.4873 232.93C16.3542 230.766 19.5018 228.842 22.8706 227.218Z" fill="black"/>
<path d="M53.4464 282.549C53.7077 282.173 53.9459 281.75 54.1635 281.273C55.671 277.97 55.4623 273.303 54.0372 269.963C51.1942 263.299 39.9069 263.28 37.4372 270.09C37.3226 270.406 37.2225 270.74 37.1365 271.093C36.5519 273.493 36.8395 276.036 37.5574 278.4C38.2046 280.531 39.0964 282.096 40.5303 283.245C44.2471 286.221 50.7305 286.461 53.4464 282.549Z" fill="#8D8989"/>
<path fill-rule="evenodd" clip-rule="evenodd" d="M45.5914 263.474C49.4925 263.459 53.6928 265.333 55.4169 269.374C56.9778 273.032 57.2399 278.145 55.5281 281.896C55.2779 282.444 54.9968 282.947 54.6785 283.405C52.9715 285.863 50.1522 286.915 47.3989 286.98C44.6485 287.044 41.7472 286.141 39.5926 284.416C37.8438 283.015 36.8226 281.142 36.1222 278.836C35.3547 276.309 35.0112 273.48 35.6791 270.738C35.777 270.336 35.8926 269.95 36.027 269.579C37.5406 265.405 41.6885 263.489 45.5914 263.474ZM45.603 266.474C42.534 266.485 39.8034 267.965 38.8473 270.601C38.7527 270.862 38.668 271.144 38.5939 271.448C38.0926 273.506 38.3242 275.764 38.9927 277.964C39.5867 279.92 40.3489 281.178 41.4679 282.074C43.0302 283.325 45.229 284.03 47.3284 283.981C49.4251 283.931 51.2054 283.147 52.2143 281.694L53.4464 282.549L52.2143 281.694C52.4187 281.399 52.6139 281.056 52.7988 280.651C54.1021 277.795 53.9468 273.573 52.6575 270.551C51.5386 267.929 48.6737 266.462 45.603 266.474Z" fill="black"/>
<path d="M366.879 212.604C370.567 209.108 374.937 206.355 380.506 204.223C396.445 198.12 415.433 201.151 428.01 212.688C430.159 214.659 432.019 216.697 433.653 218.82C449.196 239.011 445.624 274.193 422.322 284.502C420.795 285.177 419.181 285.777 417.468 286.301C400.514 291.49 381.569 285.408 368.942 272.962C364.202 268.29 360.732 263.418 358.268 257.801C351.674 242.765 354.963 223.898 366.879 212.604Z" fill="#C4C4C4"/>
<path fill-rule="evenodd" clip-rule="evenodd" d="M426.996 213.794C414.867 202.667 396.489 199.71 381.043 205.624C375.642 207.692 371.444 210.344 367.911 213.692C356.482 224.526 353.286 242.706 359.642 257.198C362.019 262.62 365.373 267.338 369.995 271.894C382.298 284.02 400.687 289.868 417.029 284.867C418.688 284.359 420.245 283.78 421.715 283.13C432.771 278.239 439.26 267.398 441.07 255.148C442.881 242.892 439.958 229.47 432.465 219.735C430.883 217.681 429.082 215.707 426.996 213.794ZM379.97 202.822C396.402 196.53 415.999 199.634 429.024 211.583C431.236 213.611 433.154 215.713 434.842 217.905C442.891 228.362 445.953 242.626 444.038 255.586C442.122 268.552 435.175 280.456 422.929 285.873C421.344 286.574 419.674 287.194 417.907 287.735C400.341 293.111 380.84 286.796 367.889 274.03C363.032 269.242 359.444 264.216 356.895 258.403C350.062 242.824 353.445 223.271 365.848 211.515C369.69 207.873 374.233 205.019 379.97 202.822Z" fill="black"/>
<path d="M322.998 333.12L402.027 260.809L384.962 247.704L303.838 320.759L322.998 333.12Z" fill="#C4C4C4"/>
<path fill-rule="evenodd" clip-rule="evenodd" d="M384.885 245.754L404.359 260.709L323.157 335.008L301.378 320.957L384.885 245.754ZM385.038 249.654L306.299 320.562L322.839 331.232L399.695 260.91L385.038 249.654Z" fill="black"/>
<path d="M145.809 160.802C150.242 156.284 155.602 152.866 162.772 150.338C178.869 144.664 197.602 147.622 210.494 158.807C213.937 161.795 216.717 164.924 219.036 168.254C233.601 189.161 230.438 223.302 207.765 234.93C205.1 236.296 202.181 237.418 198.932 238.304C181.826 242.965 163.13 236.993 150.222 224.838C144.2 219.168 139.99 213.274 137.169 206.275C131.031 191.047 134.309 172.52 145.809 160.802Z" fill="#C4C4C4"/>
<path fill-rule="evenodd" clip-rule="evenodd" d="M209.511 159.94C197.057 149.135 178.898 146.244 163.271 151.753C156.296 154.212 151.138 157.513 146.879 161.853C135.817 173.124 132.635 191.012 138.56 205.715C141.289 212.484 145.363 218.203 151.25 223.746C163.84 235.601 182.013 241.36 198.538 236.856C201.696 235.996 204.516 234.91 207.08 233.595C217.876 228.058 224.125 217.113 225.88 204.859C227.635 192.599 224.852 179.226 217.805 169.111C215.557 165.884 212.861 162.847 209.511 159.94ZM162.273 148.924C178.84 143.084 198.148 146.109 211.477 157.674C215.013 160.742 217.876 163.964 220.267 167.396C227.785 178.189 230.703 192.34 228.85 205.284C226.995 218.235 220.326 230.174 208.449 236.264C205.684 237.682 202.667 238.841 199.327 239.751C181.64 244.571 162.419 238.384 149.193 225.93C143.037 220.134 138.691 214.065 135.778 206.836C129.428 191.083 132.8 171.916 144.738 159.752C149.347 155.055 154.908 151.52 162.273 148.924Z" fill="black"/>
<path d="M333.835 382.949C323.698 411.377 312.061 422.021 285.722 422.454C273.16 422.66 260.717 418.858 250.372 411.728C228.879 396.915 221.326 379.888 224.199 344.931L333.835 382.949Z" fill="#C4C4C4"/>
<path fill-rule="evenodd" clip-rule="evenodd" d="M222.862 342.88L335.756 382.028L335.248 383.453C330.152 397.744 324.597 407.82 316.818 414.348C308.993 420.916 299.115 423.734 285.746 423.953C272.869 424.165 260.12 420.269 249.521 412.963C238.61 405.443 231.113 397.271 226.757 386.443C222.416 375.655 221.259 362.391 222.704 344.808L222.862 342.88ZM225.544 346.985C224.359 363.376 225.602 375.536 229.54 385.323C233.615 395.452 240.641 403.2 251.223 410.493C261.314 417.448 273.451 421.155 285.697 420.954C298.667 420.741 307.778 418.02 314.89 412.05C321.806 406.246 327.017 397.22 331.908 383.869L225.544 346.985Z" fill="black"/>
<path d="M268.426 361.363L290.522 369.756C290.157 370.655 289.829 371.522 289.528 372.359C284.046 387.609 265.694 381.523 267.933 365.474C268.116 364.16 268.291 362.793 268.426 361.363Z" fill="#8D8989"/>
<path fill-rule="evenodd" clip-rule="evenodd" d="M267.117 359.262L292.489 368.899L291.912 370.32C291.556 371.198 291.234 372.046 290.939 372.867C289.466 376.964 287.074 379.766 284.237 381.294C281.403 382.821 278.239 383.011 275.372 382.08C269.598 380.206 265.241 373.915 266.447 365.266C266.629 363.964 266.801 362.621 266.932 361.223L267.117 359.262ZM269.709 363.455C269.618 364.218 269.519 364.959 269.418 365.681C268.386 373.082 272.085 377.859 276.298 379.227C278.424 379.917 280.736 379.773 282.815 378.653C284.891 377.535 286.848 375.379 288.116 371.852C288.261 371.449 288.413 371.038 288.571 370.62L269.709 363.455Z" fill="black"/>
<path d="M201.286 145.422L313.65 168.18V175.151V220.505L191.616 193.836L201.286 154.118V145.422Z" fill="#6C4D31"/>
<path fill-rule="evenodd" clip-rule="evenodd" d="M199.786 143.588L315.15 166.953V222.368L189.795 194.974L199.786 153.938V143.588ZM202.408 155.853L193.436 192.699L312.15 218.642V176.397L202.408 155.853ZM312.15 173.345V169.406L202.786 147.257V152.872L312.15 173.345Z" fill="black"/>
<path d="M338.219 72.5908L176.744 104.757H161.947V63.5842L176.744 61.8523L322.673 44.7712L338.219 72.5908Z" fill="#6C4D31"/>
<path fill-rule="evenodd" clip-rule="evenodd" d="M323.493 43.1649L340.534 73.6591L176.892 106.257H160.447V62.2496L323.493 43.1649ZM178.244 63.187V102.929L335.904 71.5225L321.852 46.3775L178.244 63.187ZM175.244 103.257V63.5381L163.447 64.9189V103.257H175.244Z" fill="black"/>
<path fill-rule="evenodd" clip-rule="evenodd" d="M163.034 216.636L448.6 289.108L461.38 277.392V250.501L436.215 244.79L400.56 236.698L339.012 222.729L329.719 220.62L312.164 216.636L201.5 191.52L179.732 186.58L166.647 193.776L163.034 195.763V216.636Z" fill="#6C4D31"/>
<path d="M400.56 236.698L436.215 244.79L346.817 88.2816L344.184 133.646L400.56 236.698Z" fill="#6C4D31"/>
<path d="M351.131 13.9689L342.255 13.1752L329.719 220.62L339.012 222.729L344.184 133.646L346.817 88.2816L351.131 13.9689Z" fill="#6C4D31"/>
<path d="M342.255 13.1752L321.336 13.9689L312.164 216.636L329.719 220.62L342.255 13.1752Z" fill="#6C4D31"/>
<path d="M166.647 193.776L179.732 186.58L201.5 191.52L258.924 164.42L179.732 148.204V171.522L166.647 180.696V193.776Z" fill="#6C4D31"/>
<path fill-rule="evenodd" clip-rule="evenodd" d="M342.294 11.6727L352.713 12.6044L348.341 87.9242L437.19 243.473L462.88 249.303V278.052L449.016 290.761L161.534 217.803V194.876L165.147 192.889V179.916L178.232 170.742V146.366L263.638 163.854L206.074 191.02L310.747 214.776L319.9 12.5223L342.294 11.6727ZM313.719 215.451L328.328 218.766L340.658 14.7369L322.772 15.4155L313.719 215.451ZM343.659 14.8068L331.293 219.439L337.618 220.874L349.549 15.3335L343.659 14.8068ZM340.584 221.548L397.647 234.498L345.378 138.954L340.584 221.548ZM345.706 133.303L401.552 235.385L433.221 242.572L348.022 93.4147L345.706 133.303ZM201.327 189.943L254.21 164.986L181.232 150.042V172.302L168.147 181.476V191.239L179.508 184.991L201.327 189.943ZM179.956 188.168L167.203 195.183L448.2 259.786L458.132 251.302L179.956 188.168ZM459.88 253.755L450.1 262.109V285.698L459.88 276.733V253.755ZM447.1 287.179L164.534 215.469V197.647L447.1 262.612V287.179Z" fill="black"/>
<path d="M91.2091 83.8775L181.878 159.113C185.247 161.909 190.042 162.188 193.713 159.802L203.654 153.34C209.255 149.699 209.78 141.697 204.704 137.356L119.145 64.187C116.191 61.6604 115.128 57.6387 115.212 53.7521C115.442 43.1223 109.538 33.0783 105.892 29.0377C104.553 27.5538 102.696 26.4778 101.148 25.2139C87.0674 13.7202 76.8786 8.20856 53.9517 3.90625C34.26 0.569662 25.2866 1.26737 18.0542 9.58895C17.0026 10.7989 16.3739 12.3228 16.178 13.9138C13.899 32.4209 21.7761 42.691 42.4884 59.3686C43.0421 59.8144 43.6518 60.2046 44.2882 60.5214L91.2091 83.8775Z" fill="#6C4D31"/>
<path fill-rule="evenodd" clip-rule="evenodd" d="M31.1196 0.890727C36.9789 0.0575623 44.3468 0.757394 54.2023 2.42733L54.2154 2.42954L54.2284 2.43198C65.7642 4.59672 74.1757 7.08026 81.5023 10.5044C88.833 13.9305 95.0089 18.2665 102.096 24.0519C102.596 24.4597 103.109 24.8312 103.662 25.2321C103.928 25.4251 104.204 25.6249 104.492 25.8389C105.337 26.4659 106.233 27.1771 107.006 28.0328C110.821 32.2606 116.953 42.6594 116.711 53.7846C116.632 57.4341 117.642 60.9274 120.12 63.047L205.679 136.216C211.517 141.208 210.913 150.411 204.472 154.598L194.531 161.059C190.309 163.803 196.77 173.305 192.896 170.09L98.1862 91.6161L177.636 210.474L175.142 212.142L90.1837 85.0426L43.6198 61.8642C42.8871 61.4996 42.186 61.051 41.5477 60.5369C31.1827 52.191 23.853 45.3164 19.4329 38.1117C14.9578 30.8174 13.5142 23.2724 14.6892 13.7304C14.9179 11.8735 15.6553 10.0625 16.922 8.60497C20.7725 4.17471 25.1496 1.73962 31.1196 0.890727ZM31.5419 3.86085C26.2941 4.60706 22.5684 6.68162 19.1863 10.5729C18.3499 11.5353 17.8299 12.772 17.6667 14.0971C16.5627 23.0623 17.9182 29.9059 21.99 36.5429C26.1168 43.2694 33.0819 49.8686 43.4291 58.2003C43.8981 58.5779 44.4165 58.9097 44.9566 59.1786L92.0332 82.6121L194.531 168.556C197.394 170.932 200.609 165.979 203.729 163.951L202.837 152.082C207.597 148.988 208.044 142.186 203.729 138.495L118.17 65.327C114.74 62.3933 113.623 57.8434 113.712 53.7196C113.932 43.5851 108.256 33.8961 104.778 30.0427C104.211 29.4144 103.51 28.8457 102.704 28.2478C102.477 28.0792 102.235 27.9037 101.986 27.7229C101.397 27.2959 100.767 26.8393 100.199 26.3759C93.2062 20.6676 87.2475 16.5009 80.2321 13.2222C73.2151 9.94278 65.0723 7.51993 53.6881 5.38296C43.8588 3.71797 36.8979 3.09925 31.5419 3.86085Z" fill="black"/>
<path d="M48.3655 52.2772C61.6295 60.9886 69.3564 66.1807 80.7102 68.8203C81.7572 69.0638 82.8468 69.1062 83.9125 68.9653C94.6946 67.5401 99.8409 65.2052 102.15 54.1575C103.165 42.757 101.201 37.1055 91.0196 28.9788C80.1315 19.8794 73.0376 15.7079 55.8927 12.4906C42.3648 10.1984 35.9744 10.5928 30.9266 15.9907C29.8317 17.1616 29.2086 18.6933 29.0413 20.2876C27.6928 33.1373 33.51 40.3884 48.3655 52.2772Z" fill="#BDBDBD"/>
<path fill-rule="evenodd" clip-rule="evenodd" d="M40.0447 9.8683C44.1995 9.35228 49.3672 9.86355 56.1433 11.0117L56.1564 11.0139L56.1694 11.0164C64.8192 12.6395 71.021 14.5193 76.4617 17.1816C81.8964 19.8409 86.4977 23.2455 91.9686 27.817C97.1314 31.9395 100.387 35.5694 102.164 39.7541C103.944 43.9461 104.159 48.5032 103.644 54.2905L103.636 54.3782L103.618 54.4644C102.424 60.1802 100.433 63.9331 97.0955 66.3796C93.8367 68.7686 89.5087 69.7386 84.109 70.4524C82.8745 70.6156 81.6028 70.5679 80.3705 70.2814C69.019 67.6423 61.1817 62.4928 48.5834 54.215C48.2399 53.9893 47.8928 53.7613 47.5421 53.531L47.4833 53.4923L47.4283 53.4483C39.9946 47.4992 34.6513 42.5829 31.3639 37.4519C28.0196 32.2321 26.8434 26.8597 27.5495 20.131C27.7459 18.2593 28.4827 16.4081 29.831 14.9662C32.6056 11.9991 35.7927 10.3964 40.0447 9.8683ZM40.4145 12.8454C36.8274 13.2909 34.2954 14.5844 32.0222 17.0152C31.1808 17.9151 30.6713 19.1273 30.5331 20.4442C29.8907 26.5652 30.9489 31.2432 33.8899 35.8335C36.8805 40.5012 41.8563 45.1434 49.2479 51.0621C49.4958 51.225 49.7417 51.3865 49.9857 51.5467C62.8053 59.9682 70.2256 64.8428 81.0499 67.3593C81.9116 67.5597 82.8192 67.5968 83.7159 67.4782C89.0984 66.7668 92.7346 65.8568 95.3218 63.9601C97.8171 62.1308 99.5487 59.2141 100.664 53.9364C101.153 48.3698 100.888 44.424 99.4028 40.9269C97.9081 37.4076 95.0952 34.151 90.0839 30.1511L90.0707 30.1406L90.0577 30.1297C84.6462 25.6073 80.2594 22.3798 75.1432 19.8763C70.0313 17.3749 64.1172 15.5609 55.6291 13.9673C48.8841 12.8249 44.0964 12.3881 40.4145 12.8454Z" fill="black"/>
<path d="M235.937 13.1752H213.437L213.437 306.281L323.099 344.559L308.972 317.701L235.937 291.175V191.175V117.102V98.8654V13.1752Z" fill="#6C4D31"/>
<path d="M190.937 13.1752V214.175L190.937 229.559L50.9373 191.175V214.175V247.175L213.437 306.281L213.437 13.1752H190.937Z" fill="#6C4D31"/>
<path d="M50.9373 280.175L368.937 398.175V360.559L323.099 344.559L213.437 306.281L50.9373 247.175V280.175Z" fill="#6C4D31"/>
<path d="M190.937 214.175L72.9373 183.175L50.9373 191.175L190.937 229.559L190.937 214.175Z" fill="#6C4D31"/>
<path d="M416.568 174.035L400.938 149.034L290.018 213.109L268.269 227.541L290.669 264.083L310.672 249.776L416.568 174.035Z" fill="#6C4D31"/>
<path d="M368.937 360.559L386.937 344.559L368.937 333.53L355.428 329.229L310.672 249.776L290.669 264.083L268.269 227.541L290.018 213.109L235.937 117.102V191.175L308.972 317.701L323.099 344.559L368.937 360.559Z" fill="#6C4D31"/>
<path d="M368.937 333.53L386.937 344.559L447.428 278.53L436.549 260.591L368.937 333.53Z" fill="#6C4D31"/>
<path d="M368.937 360.559V398.175L386.937 377.175V344.559L368.937 360.559Z" fill="#6C4D31"/>
<path fill-rule="evenodd" clip-rule="evenodd" d="M189.437 11.6752H237.437V116.709L290.58 211.051L401.442 147.011L418.587 174.435L312.64 250.213L356.445 327.979L368.485 331.811L436.8 258.113L449.294 278.714L388.437 345.142V377.73L369.396 399.945L49.4373 281.219V190.125L72.8651 181.605L189.437 212.23V11.6752ZM189.437 215.332L73.0094 184.745L55.8784 190.975L189.437 227.592L189.437 215.332ZM52.4373 193.142L192.437 231.525L192.437 14.6752H211.937L211.937 304.139L52.4373 246.125V193.142ZM52.4373 249.317V279.132L367.437 396.019V361.624L212.943 307.697L212.934 307.693L212.925 307.69L52.4373 249.317ZM370.437 361.232V394.12L385.437 376.62V347.899L370.437 361.232ZM386.667 342.634L445.562 278.347L436.297 263.069L371.282 333.207L386.667 342.634ZM368.309 334.904L354.411 330.48L310.185 251.968L290.232 266.24L266.234 227.091L288.026 212.63L237.437 122.821V190.773L310.286 316.977L324.152 343.337L368.599 358.852L384.429 344.781L368.309 334.904ZM320 341.888L307.915 318.913L234.437 292.226V14.6752H214.937L214.937 305.215L320 341.888ZM305.615 314.886L237.437 290.124V196.774L305.615 314.886ZM290.808 214.384L270.304 227.99L291.106 261.926L414.549 173.635L400.434 151.057L290.808 214.384Z" fill="black"/>
</svg>
