<svg width="463" height="424" viewBox="0 0 463 424" fill="none" xmlns="http://www.w3.org/2000/svg">
<path d="M460.675 270.805C457.88 286.76 450.691 299.305 439.28 309.405C431.087 316.657 420.446 321.028 409.506 320.934C402.483 320.873 396.629 319.447 391.644 316.726C372.287 306.16 372.282 277.854 380.479 257.381C383.763 249.18 388.655 241.567 397.382 234.615C409.222 225.182 425.741 221.997 439.378 228.569C442.658 230.15 445.721 232.023 448.508 234.128C459.521 242.444 463.056 257.211 460.675 270.805Z" fill="#C4C4C4"/>
<path fill-rule="evenodd" clip-rule="evenodd" d="M398.317 235.788C409.791 226.646 425.7 223.642 438.726 229.92C441.919 231.459 444.897 233.281 447.604 235.325C458.03 243.197 461.515 257.313 459.197 270.546C456.461 286.167 449.442 298.407 438.286 308.282C430.343 315.312 420.053 319.525 409.518 319.434C402.698 319.375 397.095 317.993 392.362 315.409C383.238 310.429 378.574 301.23 377.216 290.579C375.858 279.917 377.851 267.98 381.872 257.939C385.073 249.945 389.82 242.557 398.317 235.788ZM440.029 227.218C425.781 220.351 408.652 223.718 396.447 233.442C387.49 240.577 382.454 248.415 379.087 256.824C374.91 267.255 372.807 279.708 374.24 290.958C375.676 302.22 380.692 312.457 390.925 318.043C396.163 320.902 402.268 322.372 409.493 322.434C420.84 322.532 431.831 318.001 440.274 310.528C451.939 300.203 459.299 287.353 462.152 271.063C464.596 257.11 461.013 241.69 449.412 232.93C446.545 230.766 443.398 228.842 440.029 227.218Z" fill="black"/>
<path d="M409.453 282.549C409.192 282.173 408.954 281.75 408.736 281.273C407.228 277.97 407.437 273.303 408.862 269.963C411.705 263.299 422.993 263.28 425.462 270.09C425.577 270.406 425.677 270.74 425.763 271.093C426.348 273.493 426.06 276.036 425.342 278.4C424.695 280.531 423.803 282.096 422.369 283.245C418.652 286.221 412.169 286.461 409.453 282.549Z" fill="#8D8989"/>
<path fill-rule="evenodd" clip-rule="evenodd" d="M417.308 263.474C413.407 263.459 409.207 265.333 407.483 269.374C405.922 273.032 405.66 278.145 407.371 281.896C407.622 282.444 407.903 282.947 408.221 283.405C409.928 285.863 412.747 286.915 415.501 286.98C418.251 287.044 421.152 286.141 423.307 284.416C425.056 283.015 426.077 281.142 426.777 278.836C427.545 276.309 427.888 273.48 427.22 270.738C427.122 270.336 427.007 269.95 426.872 269.579C425.359 265.405 421.211 263.489 417.308 263.474ZM417.297 266.474C420.365 266.485 423.096 267.965 424.052 270.601C424.147 270.862 424.232 271.144 424.306 271.448C424.807 273.506 424.575 275.764 423.907 277.964C423.313 279.92 422.551 281.178 421.432 282.074C419.869 283.325 417.67 284.03 415.571 283.981C413.474 283.931 411.694 283.147 410.685 281.694L409.453 282.549L410.685 281.694C410.481 281.399 410.286 281.056 410.101 280.651C408.797 277.795 408.953 273.573 410.242 270.551C411.361 267.929 414.226 266.462 417.297 266.474Z" fill="black"/>
<path d="M96.0201 212.604C92.3325 209.108 87.9622 206.355 82.3933 204.223C66.454 198.12 47.4665 201.151 34.889 212.688C32.7405 214.659 30.8808 216.697 29.2462 218.82C13.7033 239.011 17.2757 274.193 40.5777 284.502C42.1049 285.177 43.7184 285.777 45.4318 286.301C62.3854 291.49 81.3306 285.408 93.9573 272.962C98.697 268.29 102.168 263.418 104.631 257.801C111.225 242.765 107.936 223.898 96.0201 212.604Z" fill="#C4C4C4"/>
<path fill-rule="evenodd" clip-rule="evenodd" d="M35.903 213.794C48.0322 202.667 66.4105 199.71 81.8569 205.624C87.2576 207.692 91.4555 210.344 94.9882 213.692C106.417 224.526 109.613 242.706 103.257 257.198C100.88 262.62 97.5262 267.338 92.9043 271.894C80.602 284.02 62.2122 289.868 45.8708 284.867C44.2114 284.359 42.6542 283.78 41.1845 283.13C30.129 278.239 23.6391 267.398 21.829 255.148C20.018 242.892 22.9411 229.47 30.4349 219.735C32.0161 217.681 33.8172 215.707 35.903 213.794ZM82.9297 202.822C66.4975 196.53 46.9008 199.634 33.875 211.583C31.6638 213.611 29.7455 215.713 28.0576 217.905C20.0085 228.362 16.9462 242.626 18.8612 255.586C20.7771 268.552 27.7244 280.456 39.9708 285.873C41.5555 286.574 43.2253 287.194 44.9928 287.735C62.5586 293.111 82.0591 286.796 95.0103 274.03C99.8678 269.242 103.456 264.216 106.005 258.403C112.837 242.824 109.455 223.271 97.052 211.515C93.2095 207.873 88.6669 205.019 82.9297 202.822Z" fill="black"/>
<path d="M139.902 333.12L60.8726 260.809L77.9378 247.704L159.061 320.759L139.902 333.12Z" fill="#C4C4C4"/>
<path fill-rule="evenodd" clip-rule="evenodd" d="M78.0141 245.754L58.5407 260.709L139.743 335.008L161.522 320.957L78.0141 245.754ZM77.8615 249.654L156.6 320.562L140.061 331.232L63.2045 260.91L77.8615 249.654Z" fill="black"/>
<path d="M317.091 160.802C312.657 156.284 307.297 152.866 300.128 150.338C284.031 144.664 265.297 147.622 252.406 158.807C248.962 161.795 246.183 164.924 243.863 168.254C229.298 189.161 232.462 223.302 255.135 234.93C257.799 236.296 260.718 237.418 263.967 238.304C281.073 242.965 299.77 236.993 312.678 224.838C318.7 219.168 322.909 213.274 325.73 206.275C331.868 191.047 328.591 172.52 317.091 160.802Z" fill="#C4C4C4"/>
<path fill-rule="evenodd" clip-rule="evenodd" d="M253.389 159.94C265.843 149.135 284.002 146.244 299.629 151.753C306.603 154.212 311.762 157.513 316.02 161.853C327.082 173.124 330.265 191.012 324.339 205.715C321.611 212.484 317.537 218.203 311.649 223.746C299.059 235.601 280.886 241.36 264.361 236.856C261.204 235.996 258.383 234.91 255.819 233.595C245.023 228.058 238.774 217.113 237.02 204.859C235.264 192.599 238.048 179.226 245.094 169.111C247.342 165.884 250.038 162.847 253.389 159.94ZM300.626 148.924C284.06 143.084 264.752 146.109 251.423 157.674C247.887 160.742 245.024 163.964 242.632 167.396C235.114 178.189 232.197 192.34 234.05 205.284C235.904 218.235 242.573 230.174 254.45 236.264C257.215 237.682 260.232 238.841 263.573 239.751C281.26 244.571 300.48 238.384 313.706 225.93C319.862 220.134 324.208 214.065 327.122 206.836C333.471 191.083 330.1 171.916 318.162 159.752C313.553 155.055 307.991 151.52 300.626 148.924Z" fill="black"/>
<path d="M129.065 382.949C139.202 411.377 150.839 422.021 177.178 422.454C189.74 422.66 202.182 418.858 212.527 411.728C234.021 396.915 241.573 379.888 238.701 344.931L129.065 382.949Z" fill="#C4C4C4"/>
<path fill-rule="evenodd" clip-rule="evenodd" d="M240.038 342.88L127.143 382.028L127.652 383.453C132.748 397.744 138.302 407.82 146.081 414.348C153.906 420.916 163.784 423.734 177.153 423.953C190.031 424.165 202.779 420.269 213.378 412.963C224.29 405.443 231.787 397.271 236.143 386.443C240.483 375.655 241.641 362.391 240.196 344.808L240.038 342.88ZM237.355 346.985C238.541 363.376 237.298 375.536 233.36 385.323C229.285 395.452 222.258 403.2 211.676 410.493C201.586 417.448 189.449 421.155 177.202 420.954C164.232 420.741 155.122 418.02 148.01 412.05C141.094 406.246 135.882 397.22 130.992 383.869L237.355 346.985Z" fill="black"/>
<path d="M194.474 361.363L172.378 369.756C172.742 370.655 173.071 371.522 173.372 372.359C178.854 387.609 197.206 381.523 194.967 365.474C194.784 364.16 194.608 362.793 194.474 361.363Z" fill="#8D8989"/>
<path fill-rule="evenodd" clip-rule="evenodd" d="M195.782 359.262L170.411 368.899L170.988 370.32C171.344 371.198 171.665 372.046 171.96 372.867C173.433 376.964 175.826 379.766 178.662 381.294C181.496 382.821 184.66 383.011 187.528 382.08C193.302 380.206 197.659 373.915 196.452 365.266C196.271 363.964 196.099 362.621 195.967 361.223L195.782 359.262ZM193.19 363.455C193.282 364.218 193.381 364.959 193.481 365.681C194.514 373.082 190.814 377.859 186.601 379.227C184.475 379.917 182.164 379.773 180.085 378.653C178.009 377.535 176.051 375.379 174.783 371.852C174.638 371.449 174.487 371.038 174.328 370.62L193.19 363.455Z" fill="black"/>
<path d="M261.613 145.422L149.249 168.18V175.151V220.505L271.284 193.836L261.613 154.118V145.422Z" fill="#6C4D31"/>
<path fill-rule="evenodd" clip-rule="evenodd" d="M263.113 143.588L147.749 166.953V222.368L273.105 194.974L263.113 153.938V143.588ZM260.492 155.853L269.463 192.699L150.749 218.642V176.397L260.492 155.853ZM150.749 173.345V169.406L260.113 147.257V152.872L150.749 173.345Z" fill="black"/>
<path d="M124.681 72.5908L286.155 104.757H300.952V63.5842L286.155 61.8523L140.227 44.7712L124.681 72.5908Z" fill="#6C4D31"/>
<path fill-rule="evenodd" clip-rule="evenodd" d="M139.406 43.1649L122.365 73.6591L286.008 106.257H302.452V62.2496L139.406 43.1649ZM284.655 63.187V102.929L126.996 71.5225L141.048 46.3775L284.655 63.187ZM287.655 103.257V63.5381L299.452 64.9189V103.257H287.655Z" fill="black"/>
<path fill-rule="evenodd" clip-rule="evenodd" d="M299.865 216.636L14.3 289.108L1.51982 277.392V250.501L26.6844 244.79L62.3393 236.698L123.887 222.729L133.181 220.62L150.735 216.636L261.4 191.52L283.168 186.58L296.253 193.776L299.865 195.763V216.636Z" fill="#6C4D31"/>
<path d="M62.3393 236.698L26.6844 244.79L116.082 88.2816L118.716 133.646L62.3393 236.698Z" fill="#6C4D31"/>
<path d="M111.768 13.9689L120.644 13.1752L133.181 220.62L123.887 222.729L118.716 133.646L116.082 88.2816L111.768 13.9689Z" fill="#6C4D31"/>
<path d="M120.644 13.1752L141.564 13.9689L150.735 216.636L133.181 220.62L120.644 13.1752Z" fill="#6C4D31"/>
<path d="M296.253 193.776L283.168 186.58L261.4 191.52L203.976 164.42L283.168 148.204V171.522L296.253 180.696V193.776Z" fill="#6C4D31"/>
<path fill-rule="evenodd" clip-rule="evenodd" d="M120.606 11.6727L110.187 12.6044L114.559 87.9242L25.7091 243.473L0.0198212 249.303V278.052L13.8837 290.761L301.365 217.803V194.876L297.753 192.889V179.916L284.668 170.742V146.366L199.262 163.854L256.826 191.02L152.153 214.776L143 12.5223L120.606 11.6727ZM149.18 215.451L134.571 218.766L122.241 14.7369L140.127 15.4155L149.18 215.451ZM119.24 14.8068L131.607 219.439L125.282 220.874L113.35 15.3335L119.24 14.8068ZM122.316 221.548L65.2523 234.498L117.521 138.954L122.316 221.548ZM117.193 133.303L61.3479 235.385L29.6786 242.572L114.878 93.4147L117.193 133.303ZM261.572 189.943L208.689 164.986L281.668 150.042V172.302L294.753 181.476V191.239L283.391 184.991L261.572 189.943ZM282.944 188.168L295.697 195.183L14.6999 259.786L4.76723 251.302L282.944 188.168ZM3.01982 253.755L12.8 262.109V285.698L3.01982 276.733V253.755ZM15.8 287.179L298.365 215.469V197.647L15.8 262.612V287.179Z" fill="black"/>
<path d="M371.69 83.8775L281.022 159.113C277.653 161.909 272.857 162.188 269.186 159.802L259.245 153.34C253.645 149.699 253.119 141.697 258.196 137.356L343.754 64.187C346.709 61.6604 347.772 57.6387 347.688 53.7521C347.457 43.1223 353.361 33.0783 357.007 29.0377C358.347 27.5538 360.203 26.4778 361.752 25.2139C375.832 13.7202 386.021 8.20856 408.948 3.90625C428.639 0.569662 437.613 1.26737 444.845 9.58895C445.897 10.7989 446.526 12.3228 446.722 13.9138C449.001 32.4209 441.123 42.691 420.411 59.3686C419.857 59.8144 419.248 60.2046 418.611 60.5214L371.69 83.8775Z" fill="#6C4D31"/>
<path fill-rule="evenodd" clip-rule="evenodd" d="M431.78 0.890727C425.921 0.0575623 418.553 0.757394 408.697 2.42733L408.684 2.42954L408.671 2.43198C397.135 4.59672 388.724 7.08026 381.397 10.5044C374.066 13.9305 367.891 18.2665 360.803 24.0519C360.304 24.4597 359.791 24.8312 359.238 25.2321C358.971 25.4251 358.695 25.6249 358.407 25.8389C357.562 26.4659 356.666 27.1771 355.894 28.0328C352.079 32.2606 345.947 42.6594 346.188 53.7846C346.267 57.4341 345.258 60.9274 342.779 63.047L257.221 136.216C251.383 141.208 251.987 150.411 258.428 154.598L268.369 161.059C272.59 163.803 266.129 173.305 270.004 170.09L364.713 91.6161L285.264 210.474L287.758 212.142L372.716 85.0426L419.28 61.8642C420.012 61.4996 420.713 61.051 421.352 60.5369C431.717 52.191 439.046 45.3164 443.467 38.1117C447.942 30.8174 449.385 23.2724 448.21 13.7304C447.982 11.8735 447.244 10.0625 445.977 8.60497C442.127 4.17471 437.75 1.73962 431.78 0.890727ZM431.358 3.86085C436.605 4.60706 440.331 6.68162 443.713 10.5729C444.55 11.5353 445.07 12.772 445.233 14.0971C446.337 23.0623 444.981 29.9059 440.909 36.5429C436.783 43.2694 429.818 49.8686 419.47 58.2003C419.001 58.5779 418.483 58.9097 417.943 59.1786L370.866 82.6121L268.369 168.556C265.505 170.932 262.291 165.979 259.171 163.951L260.063 152.082C255.302 148.988 254.855 142.186 259.171 138.495L344.729 65.327C348.16 62.3933 349.277 57.8434 349.187 53.7196C348.968 43.5851 354.644 33.8961 358.121 30.0427C358.688 29.4144 359.39 28.8457 360.195 28.2478C360.422 28.0792 360.664 27.9037 360.914 27.7229C361.503 27.2959 362.133 26.8393 362.7 26.3759C369.693 20.6676 375.652 16.5009 382.667 13.2222C389.684 9.94278 397.827 7.51993 409.211 5.38296C419.041 3.71797 426.002 3.09925 431.358 3.86085Z" fill="black"/>
<path d="M414.534 52.2772C401.27 60.9886 393.543 66.1807 382.189 68.8203C381.142 69.0638 380.053 69.1062 378.987 68.9653C368.205 67.5401 363.059 65.2052 360.749 54.1575C359.735 42.757 361.698 37.1055 371.88 28.9788C382.768 19.8794 389.862 15.7079 407.007 12.4906C420.535 10.1984 426.925 10.5928 431.973 15.9907C433.068 17.1616 433.691 18.6933 433.858 20.2876C435.207 33.1373 429.389 40.3884 414.534 52.2772Z" fill="#BDBDBD"/>
<path fill-rule="evenodd" clip-rule="evenodd" d="M422.855 9.8683C418.7 9.35228 413.532 9.86355 406.756 11.0117L406.743 11.0139L406.73 11.0164C398.08 12.6395 391.878 14.5193 386.438 17.1816C381.003 19.8409 376.402 23.2455 370.931 27.817C365.768 31.9395 362.513 35.5694 360.735 39.7541C358.955 43.9461 358.74 48.5032 359.255 54.2905L359.263 54.3782L359.281 54.4644C360.476 60.1802 362.467 63.9331 365.804 66.3796C369.063 68.7686 373.391 69.7386 378.79 70.4524C380.025 70.6156 381.297 70.5679 382.529 70.2814C393.88 67.6423 401.718 62.4928 414.316 54.215C414.66 53.9893 415.007 53.7613 415.357 53.531L415.416 53.4923L415.471 53.4483C422.905 47.4992 428.248 42.5829 431.536 37.4519C434.88 32.2321 436.056 26.8597 435.35 20.131C435.154 18.2593 434.417 16.4081 433.068 14.9662C430.294 11.9991 427.107 10.3964 422.855 9.8683ZM422.485 12.8454C426.072 13.2909 428.604 14.5844 430.877 17.0152C431.719 17.9151 432.228 19.1273 432.366 20.4442C433.009 26.5652 431.951 31.2432 429.01 35.8335C426.019 40.5012 421.043 45.1434 413.652 51.0621C413.404 51.225 413.158 51.3865 412.914 51.5467C400.094 59.9682 392.674 64.8428 381.85 67.3593C380.988 67.5597 380.08 67.5968 379.184 67.4782C373.801 66.7668 370.165 65.8568 367.578 63.9601C365.082 62.1308 363.351 59.2141 362.236 53.9364C361.747 48.3698 362.011 44.424 363.497 40.9269C364.991 37.4076 367.804 34.151 372.816 30.1511L372.829 30.1406L372.842 30.1297C378.253 25.6073 382.64 22.3798 387.756 19.8763C392.868 17.3749 398.782 15.5609 407.27 13.9673C414.015 12.8249 418.803 12.3881 422.485 12.8454Z" fill="black"/>
<path d="M226.962 13.1752H249.462L249.462 306.281L139.8 344.559L153.927 317.701L226.962 291.175V191.175V117.102V98.8654V13.1752Z" fill="#6C4D31"/>
<path d="M271.962 13.1752V214.175L271.962 229.559L411.962 191.175V214.175V247.175L249.462 306.281L249.462 13.1752H271.962Z" fill="#6C4D31"/>
<path d="M411.962 280.175L93.9622 398.175V360.559L139.8 344.559L249.462 306.281L411.962 247.175V280.175Z" fill="#6C4D31"/>
<path d="M271.962 214.175L389.962 183.175L411.962 191.175L271.962 229.559L271.962 214.175Z" fill="#6C4D31"/>
<path d="M46.3315 174.035L61.9612 149.034L172.882 213.109L194.63 227.541L172.23 264.083L152.227 249.776L46.3315 174.035Z" fill="#6C4D31"/>
<path d="M93.9622 360.559L75.9622 344.559L93.9622 333.53L107.472 329.229L152.227 249.776L172.23 264.083L194.63 227.541L172.882 213.109L226.962 117.102V191.175L153.927 317.701L139.8 344.559L93.9622 360.559Z" fill="#6C4D31"/>
<path d="M93.9622 333.53L75.9622 344.559L15.4715 278.53L26.3507 260.591L93.9622 333.53Z" fill="#6C4D31"/>
<path d="M93.9622 360.559V398.175L75.9622 377.175V344.559L93.9622 360.559Z" fill="#6C4D31"/>
<path fill-rule="evenodd" clip-rule="evenodd" d="M273.462 11.6752H225.462V116.709L172.319 211.051L61.4572 147.011L44.3124 174.435L150.26 250.213L106.454 327.979L94.4148 331.811L26.0991 258.113L13.6057 278.714L74.4622 345.142V377.73L93.5038 399.945L413.462 281.219V190.125L390.034 181.605L273.462 212.23V11.6752ZM273.462 215.332L389.89 184.745L407.021 190.975L273.462 227.592L273.462 215.332ZM410.462 193.142L270.462 231.525L270.462 14.6752H250.962L250.962 304.139L410.462 246.125V193.142ZM410.462 249.317V279.132L95.4622 396.019V361.624L249.957 307.697L249.966 307.693L249.975 307.69L410.462 249.317ZM92.4622 361.232V394.12L77.4622 376.62V347.899L92.4622 361.232ZM76.2329 342.634L17.3373 278.347L26.6023 263.069L91.6178 333.207L76.2329 342.634ZM94.5907 334.904L108.489 330.48L152.714 251.968L172.667 266.24L196.665 227.091L174.873 212.63L225.462 122.821V190.773L152.613 316.977L138.748 343.337L94.3 358.852L78.4703 344.781L94.5907 334.904ZM142.9 341.888L154.985 318.913L228.462 292.226V14.6752H247.962L247.962 305.215L142.9 341.888ZM157.284 314.886L225.462 290.124V196.774L157.284 314.886ZM172.091 214.384L192.595 227.99L171.793 261.926L48.3506 173.635L62.4652 151.057L172.091 214.384Z" fill="black"/>
</svg>
