<svg width="512" height="512" viewBox="0 0 512 512" fill="none" xmlns="http://www.w3.org/2000/svg">
<path fill-rule="evenodd" clip-rule="evenodd" d="M256 497C389.101 497 497 389.101 497 256C497 122.899 389.101 15 256 15C122.899 15 15 122.899 15 256C15 389.101 122.899 497 256 497ZM256 512C397.385 512 512 397.385 512 256C512 114.615 397.385 0 256 0C114.615 0 0 114.615 0 256C0 397.385 114.615 512 256 512Z" fill="black"/>
<path d="M276 256C276 267.046 267.046 276 256 276C244.954 276 236 267.046 236 256C236 244.954 244.954 236 256 236C267.046 236 276 244.954 276 256Z" fill="black"/>
<path fill-rule="evenodd" clip-rule="evenodd" d="M256 35.5C259.314 35.5 262 38.1863 262 41.5V237H250V41.5C250 38.1863 252.686 35.5 256 35.5V35.5Z" fill="black"/>
<path fill-rule="evenodd" clip-rule="evenodd" d="M376.5 355.5C373.882 358.71 369.157 359.189 365.948 356.571L263.259 272.812L272.741 261.188L375.429 344.948C378.638 347.566 379.118 352.29 376.5 355.5V355.5Z" fill="black"/>
</svg>
