<svg width="512" height="512" viewBox="0 0 512 512" fill="none" xmlns="http://www.w3.org/2000/svg">
<rect x="319.5" y="131.5" width="53" height="166" fill="#AC8665" stroke="black" stroke-width="3"/>
<rect x="305.5" y="125.5" width="81" height="27" fill="#AC8665" stroke="black" stroke-width="3"/>
<path d="M372.5 109C372.5 110.059 371.603 111.421 369.229 112.608C366.944 113.75 363.684 114.5 360 114.5C356.316 114.5 353.056 113.75 350.771 112.608C348.397 111.421 347.5 110.059 347.5 109C347.5 107.941 348.397 106.579 350.771 105.392C353.056 104.25 356.316 103.5 360 103.5C363.684 103.5 366.944 104.25 369.229 105.392C371.603 106.579 372.5 107.941 372.5 109Z" fill="#E6E6E6" stroke="black" stroke-width="3"/>
<path d="M405.5 85C405.5 86.5682 404.104 88.4401 400.793 90.0084C397.596 91.5225 393.075 92.5 388 92.5C382.925 92.5 378.404 91.5225 375.207 90.0084C371.896 88.4401 370.5 86.5682 370.5 85C370.5 83.4318 371.896 81.5599 375.207 79.9916C378.404 78.4775 382.925 77.5 388 77.5C393.075 77.5 397.596 78.4775 400.793 79.9916C404.104 81.5599 405.5 83.4318 405.5 85Z" fill="#E6E6E6" stroke="black" stroke-width="3"/>
<mask id="path-5-inside-1" fill="white">
<path fill-rule="evenodd" clip-rule="evenodd" d="M469.948 37.0091C469.297 30.8453 462.629 26 454.5 26C447.491 26 441.568 29.6021 439.652 34.5456C437.301 31.1923 433.406 29 429 29C421.82 29 416 34.8203 416 42C416 42.4183 416.02 42.8321 416.058 43.2403C415.66 43.5012 415.271 43.7671 414.893 44.0377C406.573 44.6062 400 51.5355 400 60C400 68.8366 407.163 76 416 76C416.021 76 416.043 76 416.064 75.9999C416.716 81.0533 422.259 85 429 85C432.984 85 436.549 83.6216 438.934 81.4511C441.021 81.7081 443.167 81.8782 445.358 81.9543C447.545 84.4092 451.049 86 455 86C459.219 86 462.93 84.1853 465.07 81.4413C466.29 81.8023 467.615 82 469 82C474.858 82 479.646 78.4617 479.981 74L480 74C488.284 74 495 66.6127 495 57.5C495 48.3873 488.284 41 480 41C479.881 41 479.763 41.0015 479.645 41.0045C478.519 38.6937 474.851 37 470.5 37C470.315 37 470.131 37.0031 469.948 37.0091Z"/>
</mask>
<path fill-rule="evenodd" clip-rule="evenodd" d="M469.948 37.0091C469.297 30.8453 462.629 26 454.5 26C447.491 26 441.568 29.6021 439.652 34.5456C437.301 31.1923 433.406 29 429 29C421.82 29 416 34.8203 416 42C416 42.4183 416.02 42.8321 416.058 43.2403C415.66 43.5012 415.271 43.7671 414.893 44.0377C406.573 44.6062 400 51.5355 400 60C400 68.8366 407.163 76 416 76C416.021 76 416.043 76 416.064 75.9999C416.716 81.0533 422.259 85 429 85C432.984 85 436.549 83.6216 438.934 81.4511C441.021 81.7081 443.167 81.8782 445.358 81.9543C447.545 84.4092 451.049 86 455 86C459.219 86 462.93 84.1853 465.07 81.4413C466.29 81.8023 467.615 82 469 82C474.858 82 479.646 78.4617 479.981 74L480 74C488.284 74 495 66.6127 495 57.5C495 48.3873 488.284 41 480 41C479.881 41 479.763 41.0015 479.645 41.0045C478.519 38.6937 474.851 37 470.5 37C470.315 37 470.131 37.0031 469.948 37.0091Z" fill="#E6E6E6"/>
<path d="M469.948 37.0091L466.964 37.3241L467.258 40.1L470.047 40.0075L469.948 37.0091ZM439.652 34.5456L437.195 36.2679L440.419 40.8663L442.449 35.6298L439.652 34.5456ZM416.058 43.2403L417.702 45.7502L419.216 44.7591L419.045 42.9576L416.058 43.2403ZM414.893 44.0377L415.098 47.0307L415.947 46.9727L416.639 46.4773L414.893 44.0377ZM416.064 75.9999L419.039 75.6159L418.701 72.9895L416.052 72.9999L416.064 75.9999ZM438.934 81.4511L439.3 78.4735L437.933 78.3052L436.914 79.2325L438.934 81.4511ZM445.358 81.9543L447.598 79.9589L446.745 79.0006L445.462 78.9561L445.358 81.9543ZM465.07 81.4413L465.92 78.5645L463.961 77.985L462.704 79.5966L465.07 81.4413ZM479.981 74L479.983 71L477.198 70.9983L476.99 73.7754L479.981 74ZM480 74L479.998 77H480V74ZM479.645 41.0045L476.947 42.3179L477.792 44.0529L479.721 44.0036L479.645 41.0045ZM454.5 29C461.726 29 466.534 33.2421 466.964 37.3241L472.931 36.6942C472.061 28.4484 463.532 23 454.5 23V29ZM442.449 35.6298C443.799 32.1463 448.366 29 454.5 29V23C446.616 23 439.337 27.0578 436.855 33.4614L442.449 35.6298ZM429 32C432.387 32 435.382 33.6811 437.195 36.2679L442.108 32.8234C439.22 28.7035 434.426 26 429 26V32ZM419 42C419 36.4772 423.477 32 429 32V26C420.163 26 413 33.1634 413 42H419ZM419.045 42.9576C419.015 42.6432 419 42.3238 419 42H413C413 42.5129 413.024 43.0209 413.072 43.523L419.045 42.9576ZM416.639 46.4773C416.983 46.2315 417.337 45.989 417.702 45.7502L414.415 40.7303C413.983 41.0134 413.56 41.3027 413.147 41.5981L416.639 46.4773ZM403 60C403 53.1238 408.34 47.4924 415.098 47.0307L414.689 41.0447C404.805 41.7199 397 49.9472 397 60H403ZM416 73C408.82 73 403 67.1797 403 60H397C397 70.4934 405.507 79 416 79V73ZM416.052 72.9999C416.035 73 416.017 73 416 73V79C416.025 79 416.051 79 416.076 78.9999L416.052 72.9999ZM429 82C423.146 82 419.428 78.6294 419.039 75.6159L413.089 76.3839C414.004 83.4771 421.372 88 429 88V82ZM436.914 79.2325C435.141 80.8461 432.321 82 429 82V88C433.646 88 437.956 86.3971 440.953 83.6696L436.914 79.2325ZM445.462 78.9561C443.358 78.883 441.3 78.7197 439.3 78.4735L438.567 84.4286C440.742 84.6964 442.976 84.8733 445.254 84.9525L445.462 78.9561ZM455 83C451.832 83 449.168 81.7216 447.598 79.9589L443.118 83.9497C445.921 87.0967 450.267 89 455 89V83ZM462.704 79.5966C461.189 81.5392 458.391 83 455 83V89C460.048 89 464.671 86.8314 467.435 83.286L462.704 79.5966ZM469 79C467.9 79 466.862 78.8428 465.92 78.5645L464.219 84.3182C465.719 84.7617 467.33 85 469 85V79ZM476.99 73.7754C476.817 76.0802 473.961 79 469 79V85C475.755 85 482.476 80.8432 482.973 74.2246L476.99 73.7754ZM480.002 71L479.983 71L479.979 77L479.998 77L480.002 71ZM492 57.5C492 65.2313 486.365 71 480 71V77C490.204 77 498 67.9941 498 57.5H492ZM480 44C486.365 44 492 49.7687 492 57.5H498C498 47.0059 490.204 38 480 38V44ZM479.721 44.0036C479.814 44.0012 479.907 44 480 44V38C479.856 38 479.712 38.0018 479.568 38.0055L479.721 44.0036ZM470.5 40C472.305 40 473.887 40.354 475.063 40.8768C476.292 41.4233 476.803 42.0223 476.947 42.3179L482.342 39.6912C481.361 37.676 479.476 36.2727 477.501 35.3946C475.474 34.4928 473.047 34 470.5 34V40ZM470.047 40.0075C470.197 40.0025 470.348 40 470.5 40V34C470.282 34 470.064 34.0036 469.848 34.0108L470.047 40.0075Z" fill="black" mask="url(#path-5-inside-1)"/>
<path d="M97.5 338.5H414.5V444C414.5 462.502 399.502 477.5 381 477.5H131C112.498 477.5 97.5 462.502 97.5 444V338.5Z" fill="#957357" stroke="black" stroke-width="3"/>
<path d="M76.5242 344.5L257.68 156.174L435.52 344.5H76.5242Z" fill="#AC8665" stroke="black" stroke-width="3"/>
<rect x="230.5" y="249.5" width="52" height="48" rx="8.5" fill="#FFE876" stroke="black" stroke-width="3"/>
<line x1="256.5" y1="249" x2="256.5" y2="299" stroke="black" stroke-width="3"/>
<line x1="229" y1="272.5" x2="284" y2="272.5" stroke="black" stroke-width="3"/>
<path d="M223.5 384C223.5 373.783 231.783 365.5 242 365.5H271C281.217 365.5 289.5 373.783 289.5 384V462.5H223.5V384Z" fill="#CDCABB" stroke="black" stroke-width="3"/>
<circle cx="271.5" cy="423.5" r="7.5" fill="black"/>
</svg>
