<svg width="403" height="457" viewBox="0 0 403 457" fill="none" xmlns="http://www.w3.org/2000/svg">
<g id="gold">
<circle id="Ellipse" cx="201.431" cy="255.431" r="198" transform="rotate(-0.411377 201.431 255.431)" fill="#FFE033" stroke="black" stroke-width="4"/>
<rect id="Rectangle" x="186" y="75" width="30" height="361" fill="#FFB300" stroke="black" stroke-width="4"/>
<g id="S">
<path d="M194.396 274.397C158.215 263.997 131.848 251.253 115.295 236.165C98.8887 220.931 90.6855 202.181 90.6855 179.915C90.6855 154.72 100.72 133.919 120.788 117.513C141.003 100.96 167.224 92.6836 199.45 92.6836C221.423 92.6836 240.979 96.9316 258.117 105.428C275.402 113.924 288.732 125.643 298.107 140.584C307.629 155.525 312.39 171.858 312.39 189.583H269.982C269.982 170.247 263.83 155.086 251.525 144.1C239.221 132.967 221.862 127.4 199.45 127.4C178.649 127.4 162.39 132.015 150.671 141.243C139.099 150.325 133.312 162.996 133.312 179.256C133.312 192.293 138.806 203.353 149.792 212.435C160.925 221.37 179.748 229.573 206.262 237.044C232.922 244.515 253.723 252.791 268.664 261.873C283.752 270.809 294.885 281.282 302.062 293.294C309.387 305.306 313.049 319.441 313.049 335.701C313.049 361.629 302.941 382.43 282.727 398.104C262.512 413.631 235.485 421.395 201.647 421.395C179.675 421.395 159.167 417.22 140.124 408.87C121.081 400.374 106.359 388.802 95.959 374.153C85.7051 359.505 80.5781 342.879 80.5781 324.275H122.985C122.985 343.611 130.09 358.919 144.299 370.198C158.654 381.331 177.771 386.897 201.647 386.897C223.913 386.897 240.979 382.356 252.844 373.274C264.709 364.192 270.642 351.814 270.642 336.141C270.642 320.467 265.148 308.382 254.162 299.886C243.176 291.243 223.254 282.747 194.396 274.397Z" fill="#FFB300"/>
<path d="M194.396 274.397L194.952 272.476L194.949 272.475L194.396 274.397ZM115.295 236.165L113.934 237.631L113.941 237.637L113.948 237.643L115.295 236.165ZM120.788 117.513L122.054 119.061L122.055 119.06L120.788 117.513ZM258.117 105.428L257.229 107.22L257.235 107.223L258.117 105.428ZM298.107 140.584L296.413 141.647L296.421 141.659L298.107 140.584ZM312.39 189.583V191.583H314.39V189.583H312.39ZM269.982 189.583H267.982V191.583H269.982V189.583ZM251.525 144.1L250.184 145.583L250.193 145.591L251.525 144.1ZM150.671 141.243L151.906 142.816L151.908 142.814L150.671 141.243ZM149.792 212.435L148.518 213.976L148.529 213.985L148.54 213.994L149.792 212.435ZM206.262 237.044L205.719 238.969L205.722 238.97L206.262 237.044ZM268.664 261.873L267.625 263.582L267.635 263.588L267.645 263.594L268.664 261.873ZM302.062 293.294L300.346 294.32L300.35 294.328L300.355 294.335L302.062 293.294ZM282.727 398.104L283.945 399.69L283.952 399.684L282.727 398.104ZM140.124 408.87L139.309 410.697L139.321 410.702L140.124 408.87ZM95.959 374.153L94.3205 375.3L94.3282 375.311L95.959 374.153ZM80.5781 324.275V322.275H78.5781V324.275H80.5781ZM122.985 324.275H124.985V322.275H122.985V324.275ZM144.299 370.198L143.055 371.765L143.064 371.772L143.073 371.779L144.299 370.198ZM254.162 299.886L252.926 301.458L252.932 301.463L252.939 301.468L254.162 299.886ZM194.949 272.475C158.887 262.109 132.863 249.472 116.642 234.687L113.948 237.643C130.832 253.034 157.543 265.885 193.844 276.32L194.949 272.475ZM116.656 234.699C100.655 219.841 92.6855 201.621 92.6855 179.915H88.6855C88.6855 202.74 97.1228 222.02 113.934 237.631L116.656 234.699ZM92.6855 179.915C92.6855 155.34 102.435 135.1 122.054 119.061L119.522 115.964C99.0047 132.738 88.6855 154.1 88.6855 179.915H92.6855ZM122.055 119.06C141.835 102.863 167.574 94.6836 199.45 94.6836V90.6836C166.873 90.6836 140.171 99.0564 119.521 115.965L122.055 119.06ZM199.45 94.6836C221.161 94.6836 240.405 98.8795 257.229 107.22L259.005 103.636C241.552 94.9838 221.685 90.6836 199.45 90.6836V94.6836ZM257.235 107.223C274.218 115.57 287.254 127.049 296.413 141.647L299.802 139.521C290.211 124.236 276.586 112.277 258.999 103.633L257.235 107.223ZM296.421 141.659C305.738 156.279 310.39 172.239 310.39 189.583H314.39C314.39 171.478 309.52 154.772 299.794 139.509L296.421 141.659ZM312.39 187.583H269.982V191.583H312.39V187.583ZM271.982 189.583C271.982 169.785 265.661 154.04 252.857 142.608L250.193 145.591C261.999 156.132 267.982 170.709 267.982 189.583H271.982ZM252.867 142.617C240.082 131.049 222.182 125.4 199.45 125.4V129.4C221.543 129.4 238.359 134.884 250.184 145.583L252.867 142.617ZM199.45 125.4C178.375 125.4 161.621 130.074 149.434 139.672L151.908 142.814C163.158 133.955 178.924 129.4 199.45 129.4V125.4ZM149.436 139.67C137.325 149.174 131.312 162.456 131.312 179.256H135.312C135.312 163.536 140.872 151.476 151.906 142.816L149.436 139.67ZM131.312 179.256C131.312 192.95 137.121 204.554 148.518 213.976L151.066 210.893C140.491 202.151 135.312 191.636 135.312 179.256H131.312ZM148.54 213.994C159.998 223.19 179.143 231.481 205.719 238.969L206.804 235.119C180.353 227.666 161.852 219.55 151.044 210.875L148.54 213.994ZM205.722 238.97C232.296 246.416 252.903 254.633 267.625 263.582L269.703 260.164C254.542 250.949 233.548 242.613 206.801 235.118L205.722 238.97ZM267.645 263.594C282.517 272.402 293.377 282.658 300.346 294.32L303.779 292.268C296.393 279.907 284.987 269.215 269.683 260.152L267.645 263.594ZM300.355 294.335C307.46 305.987 311.049 319.751 311.049 335.701H315.049C315.049 319.132 311.314 304.624 303.77 292.253L300.355 294.335ZM311.049 335.701C311.049 361.021 301.22 381.234 281.501 396.523L283.952 399.684C304.663 383.625 315.049 362.237 315.049 335.701H311.049ZM281.508 396.517C261.742 411.7 235.189 419.395 201.647 419.395V423.395C235.782 423.395 263.281 415.562 283.945 399.69L281.508 396.517ZM201.647 419.395C179.935 419.395 159.703 415.271 140.927 407.038L139.321 410.702C158.631 419.169 179.414 423.395 201.647 423.395V419.395ZM140.939 407.044C122.17 398.67 107.752 387.308 97.5898 372.995L94.3282 375.311C104.967 390.296 119.993 402.078 139.309 410.697L140.939 407.044ZM97.5974 373.006C87.5888 358.708 82.5781 342.486 82.5781 324.275H78.5781C78.5781 343.272 83.8214 360.301 94.3205 375.3L97.5974 373.006ZM80.5781 326.275H122.985V322.275H80.5781V326.275ZM120.985 324.275C120.985 344.175 128.333 360.078 143.055 371.765L145.542 368.632C131.846 357.76 124.985 343.047 124.985 324.275H120.985ZM143.073 371.779C157.876 383.258 177.467 388.897 201.647 388.897V384.897C178.074 384.897 159.433 379.404 145.524 368.618L143.073 371.779ZM201.647 388.897C224.147 388.897 241.711 384.314 254.059 374.863L251.628 371.686C240.246 380.399 223.679 384.897 201.647 384.897V388.897ZM254.059 374.863C266.447 365.381 272.642 352.402 272.642 336.141H268.642C268.642 351.227 262.971 363.004 251.628 371.686L254.059 374.863ZM272.642 336.141C272.642 319.938 266.929 307.231 255.386 298.304L252.939 301.468C263.368 309.533 268.642 320.995 268.642 336.141H272.642ZM255.399 298.314C244.086 289.415 223.838 280.834 194.952 272.476L193.841 276.319C222.67 284.66 242.265 293.072 252.926 301.458L255.399 298.314Z" fill="black"/>
</g>
</g>
</svg>
