<svg width="512" height="512" viewBox="0 0 512 512" fill="none" xmlns="http://www.w3.org/2000/svg">
<g clip-path="url(#clip0)">
<path d="M28 327C62.9315 192.649 96.981 126.244 227.155 81.9584C241.401 77.1117 256.834 76.1107 271.593 79.0456C427.32 110.012 458.043 184.933 483 339L331 436H158L56.5 350.896L28 327Z" fill="#BDB9AA"/>
<path fill-rule="evenodd" clip-rule="evenodd" d="M271.3 80.5168C256.798 77.6331 241.634 78.617 227.638 83.3784C162.743 105.456 121.98 132.984 93.0623 171.604C64.234 210.104 47.0707 259.762 29.6905 326.46L158.546 434.5H330.562L481.361 338.266C468.921 261.713 455.027 205.103 425.119 163.739C395.155 122.296 348.951 95.9577 271.3 80.5168ZM226.672 80.5383C241.169 75.6063 256.869 74.5883 271.886 77.5744C349.961 93.0997 396.983 119.705 427.551 161.981C458.048 204.161 472.004 261.74 484.481 338.76L484.638 339.734L331.438 437.5H157.454L26.3097 327.54L26.5483 326.623C44.0178 259.433 61.32 208.991 90.6608 169.806C120.044 130.563 161.393 102.746 226.672 80.5383Z" fill="black"/>
<path d="M331 436H158C162.052 311.783 155.763 230.397 249 228.5C347.172 228.395 332.685 313.62 331 436Z" fill="#403939"/>
<path fill-rule="evenodd" clip-rule="evenodd" d="M249.016 230C225.93 230.472 209.193 235.858 196.94 245.436C184.683 255.018 176.735 268.933 171.495 286.802C166.25 304.688 163.75 326.427 162.314 351.527C161.356 368.281 160.875 386.468 160.359 405.956C160.115 415.184 159.863 424.703 159.549 434.5H329.521C329.713 421.403 330.045 408.771 330.363 396.635C330.778 380.872 331.17 365.947 331.204 351.931C331.265 326.753 330.164 304.774 325.985 286.655C321.81 268.553 314.595 254.444 302.531 244.841C290.468 235.238 273.345 229.976 249.016 230ZM333.361 396.784C333.03 409.383 332.686 422.494 332.5 436.021L332.479 437.5H156.45L156.501 435.951C156.837 425.655 157.102 415.642 157.359 405.939C157.875 386.42 158.359 368.155 159.319 351.355C160.758 326.2 163.272 304.183 168.616 285.958C173.965 267.717 182.18 253.166 195.093 243.073C208.008 232.977 225.445 227.479 248.969 227L248.984 227L248.998 227C273.747 226.974 291.624 232.325 304.4 242.494C317.178 252.666 324.644 267.492 328.908 285.981C333.168 304.453 334.265 326.719 334.204 351.938C334.17 365.955 333.776 380.967 333.361 396.784Z" fill="black"/>
</g>
<defs>
<clipPath id="clip0">
<rect width="512" height="512" fill="white"/>
</clipPath>
</defs>
</svg>
