<svg width="512" height="512" viewBox="0 0 512 512" fill="none" xmlns="http://www.w3.org/2000/svg">
<g clip-path="url(#clip0)">
<path d="M479.74 129.458L512 238.833L226.862 418L0 359.667L27.0569 226.333L301.789 93L479.74 129.458Z" fill="#CFBF2F"/>
<path d="M479.74 129.458L512 238.833L226.862 418L0 359.667L27.0569 226.333L301.789 93L479.74 129.458Z" fill="url(#paint0_linear)"/>
<path fill-rule="evenodd" clip-rule="evenodd" d="M301.591 91.4284L480.924 128.17L513.76 239.499L227.113 419.613L-1.75339 360.765L25.7344 225.308L301.591 91.4284ZM301.986 94.5716L31.6682 225.763L226.626 266.419L475.434 130.107L301.986 94.5716ZM478.828 131.668L228.362 268.889V415.286L510.24 238.168L478.828 131.668ZM225.362 416.066V269.219L28.227 228.11L1.75336 358.569L225.362 416.066Z" fill="black"/>
</g>
<defs>
<linearGradient id="paint0_linear" x1="256" y1="93" x2="256" y2="418" gradientUnits="userSpaceOnUse">
<stop stop-color="#FFED47"/>
<stop offset="1" stop-color="white" stop-opacity="0"/>
</linearGradient>
<clipPath id="clip0">
<rect width="512" height="512" fill="white"/>
</clipPath>
</defs>
</svg>
