<svg width="512" height="512" viewBox="0 0 512 512" fill="none" xmlns="http://www.w3.org/2000/svg">
<path d="M316 92C316 125.137 289.137 152 256 152C222.863 152 196 125.137 196 92C196 58.8629 222.863 32 256 32C289.137 32 316 58.8629 316 92Z" fill="white"/>
<path fill-rule="evenodd" clip-rule="evenodd" d="M256 144C284.719 144 308 120.719 308 92C308 63.2812 284.719 40 256 40C227.281 40 204 63.2812 204 92C204 120.719 227.281 144 256 144ZM256 152C289.137 152 316 125.137 316 92C316 58.8629 289.137 32 256 32C222.863 32 196 58.8629 196 92C196 125.137 222.863 152 256 152Z" fill="black"/>
<path d="M215 208C215 194.193 226.193 183 240 183H273C286.807 183 298 194.193 298 208V454C298 467.807 286.807 479 273 479H240C226.193 479 215 467.807 215 454V208Z" fill="white"/>
<path fill-rule="evenodd" clip-rule="evenodd" d="M273 191H240C230.611 191 223 198.611 223 208V454C223 463.389 230.611 471 240 471H273C282.389 471 290 463.389 290 454V208C290 198.611 282.389 191 273 191ZM240 183C226.193 183 215 194.193 215 208V454C215 467.807 226.193 479 240 479H273C286.807 479 298 467.807 298 454V208C298 194.193 286.807 183 273 183H240Z" fill="black"/>
<path d="M495 256C495 387.996 387.996 495 256 495C124.004 495 17 387.996 17 256C17 124.004 124.004 17 256 17C387.996 17 495 124.004 495 256Z" stroke="black" stroke-width="8"/>
</svg>
