<svg width="512" height="512" viewBox="0 0 512 512" fill="none" xmlns="http://www.w3.org/2000/svg">
<g clip-path="url(#clip0)">
<path d="M175.742 131.813C149.366 127.523 143.143 131.41 127.366 134.905L151.444 151.252L169.336 166.493L190.1 185.048C187.124 172.514 191.724 167.587 200.482 158.983C182.284 155.786 179.147 160.691 169.336 166.493C172.262 157.265 176.293 152.871 187.67 146.392C171.862 142.243 164.815 146.529 151.444 151.252C153.482 141.846 159.327 137.718 175.742 131.813Z" fill="#5B2D20"/>
<path fill-rule="evenodd" clip-rule="evenodd" d="M134.298 131.283C131.988 131.865 129.58 132.473 126.956 133.054L122.664 134.005L150.293 152.762L168.089 167.922L193.34 190.486L191.945 184.61C190.528 178.642 190.965 174.746 192.598 171.367C194.301 167.844 197.377 164.691 201.811 160.335L204.44 157.753L200.81 157.115C191.535 155.486 185.833 155.873 181.118 157.581C178.79 158.424 176.777 159.563 174.776 160.816C174.255 161.142 173.742 161.471 173.228 161.803C174.193 159.887 175.321 158.238 176.734 156.69C179.327 153.85 182.973 151.249 188.609 148.039L192.649 145.738L188.152 144.558C179.989 142.416 173.975 142.43 168.251 143.64C164.221 144.491 160.3 145.956 155.978 147.571C155.442 147.771 154.9 147.973 154.351 148.177C155.4 145.621 156.977 143.584 159.369 141.713C162.876 138.971 168.184 136.547 176.384 133.597L183.277 131.117L176.046 129.941C162.742 127.778 154.4 127.656 147.339 128.559C142.789 129.14 138.722 130.166 134.298 131.283ZM155.157 151.924C155.988 151.618 156.79 151.318 157.569 151.027C161.77 149.458 165.301 148.139 169.035 147.35C173.046 146.502 177.255 146.288 182.595 147.215C178.958 149.514 176.155 151.701 173.934 154.133C171.488 156.812 169.81 159.719 168.456 163.253L155.157 151.924ZM172.501 166.778C173.28 166.287 174.023 165.806 174.732 165.347C175.454 164.88 176.139 164.436 176.788 164.03C178.704 162.831 180.452 161.855 182.409 161.146C185.7 159.954 189.8 159.44 196.478 160.289C193.355 163.457 190.788 166.398 189.184 169.717C187.698 172.79 187.072 176.094 187.374 180.069L172.501 166.778ZM150.308 148.189C151.558 144.394 153.641 141.379 157.034 138.726C159.836 136.535 163.505 134.614 168.244 132.653C159.268 131.563 153.104 131.645 147.82 132.32C143.482 132.875 139.782 133.811 135.52 134.888C134.396 135.173 133.234 135.467 132.01 135.766L150.308 148.189Z" fill="black"/>
<path d="M440.414 256.497C428.829 247.585 407.718 247.933 407.718 247.933C401.115 257.443 401.441 262.645 411.434 271.62C414.853 275.634 413.348 271.791 422.193 277.348C422.692 277.662 423.142 278.053 423.532 278.495C430.235 286.111 443.924 301.114 445.558 325.604C446.882 345.448 452.604 353.68 457.063 364.225C459.547 370.099 463.233 375.621 468.818 378.699C483.896 387.009 491.607 386.378 498.669 375.01C499.107 374.304 498.717 373.383 497.921 373.146C477.333 367.006 476.59 353.06 478.608 325.604C474.136 283.99 464.302 270.92 440.414 256.497Z" fill="#5B2D20"/>
<path fill-rule="evenodd" clip-rule="evenodd" d="M407.688 246.037C407.688 246.037 407.687 246.037 407.718 247.933L407.688 246.037L406.715 246.053L406.16 246.852C402.815 251.67 400.863 255.871 401.474 260.24C402.076 264.539 405.087 268.454 410.073 272.946C410.91 273.921 411.599 274.603 412.327 275.046C413.071 275.499 413.765 275.637 414.269 275.737C414.314 275.746 414.358 275.755 414.4 275.763L414.403 275.764C415.3 275.946 416.925 276.278 421.184 278.954C421.518 279.164 421.831 279.432 422.108 279.748C422.253 279.912 422.4 280.079 422.55 280.249C429.369 287.986 442.113 302.445 443.667 325.731C444.761 342.126 448.849 350.9 452.69 359.145C453.593 361.083 454.483 362.992 455.317 364.964C457.878 371.021 461.787 376.988 467.902 380.359C475.484 384.538 481.638 386.73 486.966 386.117C492.485 385.483 496.606 381.925 500.28 376.01C501.433 374.153 500.353 371.893 498.463 371.329C493.495 369.847 489.86 367.935 487.191 365.569C484.54 363.219 482.752 360.343 481.589 356.78C479.219 349.512 479.484 339.549 480.499 325.743L480.511 325.572L480.493 325.402C478.247 304.506 474.635 290.516 468.429 279.897C462.21 269.257 453.499 262.192 441.484 254.928C435.308 250.218 426.789 248.034 420.008 246.999C416.566 246.473 413.499 246.233 411.291 246.124C410.186 246.07 409.293 246.048 408.672 246.04C408.362 246.036 408.12 246.035 407.953 246.035C407.87 246.035 407.805 246.036 407.76 246.036L407.708 246.037L407.694 246.037L407.688 246.037ZM408.718 249.833C409.293 249.841 410.105 249.862 411.104 249.912C413.216 250.016 416.15 250.246 419.435 250.747C426.074 251.761 433.855 253.844 439.258 258L439.343 258.065L439.434 258.12C451.26 265.26 459.382 271.933 465.155 281.811C470.94 291.709 474.477 305.016 476.704 325.637C475.71 339.205 475.352 349.887 477.984 357.956C479.329 362.079 481.461 365.557 484.676 368.407C487.717 371.102 491.645 373.163 496.603 374.725C493.376 379.678 490.231 381.925 486.533 382.35C482.47 382.817 477.229 381.17 469.733 377.038C464.679 374.253 461.215 369.176 458.809 363.487C457.924 361.394 457.002 359.411 456.08 357.43C452.278 349.256 448.494 341.123 447.45 325.478C446.893 317.126 444.969 309.847 442.402 303.57C437.412 291.371 429.992 282.956 425.447 277.8C425.279 277.61 425.115 277.424 424.955 277.243C424.454 276.673 423.866 276.16 423.202 275.743C418.621 272.865 416.575 272.336 415.157 272.047C414.512 271.916 414.445 271.896 414.3 271.807C414.096 271.683 413.712 271.37 412.877 270.39L412.795 270.294L412.7 270.209C407.749 265.763 405.635 262.611 405.23 259.715C404.854 257.03 405.883 254.079 408.718 249.833Z" fill="black"/>
<path d="M316.317 485.583V476.412L292.472 469.075L275.046 485.583H316.317Z" fill="white"/>
<path d="M65.9409 411.296L33.8414 433.307L38.8857 409.461L65.9409 398.456V411.296Z" fill="white"/>
<path d="M226.438 380.113L200.759 392.036L185.168 380.113L200.759 368.191L226.438 380.113Z" fill="white"/>
<path d="M226.438 439.727L240.195 422.301L267.709 417.715V433.307L226.438 439.727Z" fill="white"/>
<path d="M373.179 327.837L363.091 373.693L373.179 398.456L330.074 459.903L316.317 476.412L292.472 469.075L304.395 459.903L330.074 411.296L335.577 392.036L351.168 380.113V353.516L363.091 322.334L405.279 295.737C394.332 309.862 387.607 317.193 373.179 327.837Z" fill="#6C382A"/>
<path d="M351.168 380.113L335.577 392.036C307.72 397.343 292.939 403.238 267.709 417.715L240.195 422.301L252.118 403.959C284.946 394.885 300.302 387.17 316.317 363.605L318.112 319.076C290.114 335.125 266.166 336.356 241.447 334.095C227.893 332.855 213.568 331.545 197.085 333.105C191.94 335.761 187.258 338.136 182.99 340.301L182.988 340.301C156.612 353.678 145.997 359.061 139.311 373.693C156.43 379.171 166.322 381.134 185.168 380.113L200.759 392.036C195.663 407.383 190.906 412.134 177.831 411.296C158.411 397.064 144.002 390.987 118.407 380.193L118.217 380.113C116.871 370.541 116.4 365.001 118.217 353.516C136.19 341.799 143.907 333.925 152.151 316.831C122.805 318.328 107.255 320.357 82.4493 327.837C71.5225 349.249 67.6822 361.841 65.941 385.616V398.456L38.8857 409.461L43.9298 385.616C53.5052 353.366 60.5524 335.902 76.0294 305.826C97.7078 299.381 108.919 293.093 128.306 280.146C124.967 243.721 118.636 222.803 100.792 184.765C92.5691 188.889 87.2256 190.563 76.0294 192.102C61.8725 195.372 55.4965 198.331 48.5155 206.776C40.401 211.068 35.5386 210.683 26.5044 206.776C24.6049 196.483 24.5502 190.471 26.5044 179.262L87.0349 129.737C98.7795 126.829 105.55 126.446 118.217 129.737C144.295 145.168 158.936 155.615 185.168 184.765C211.355 195.648 222.241 203.953 240.195 219.616C291.205 211.493 318.358 210.28 351.168 214.113C410.963 231.36 420.214 250.215 405.279 295.737L363.091 322.334L351.168 353.516V380.113Z" fill="#6C382A"/>
<path fill-rule="evenodd" clip-rule="evenodd" d="M117.238 132.095C142.932 147.313 157.354 157.636 183.289 186.456L183.67 186.88L184.198 187.099C210.062 197.848 220.718 205.98 238.534 221.521L239.425 222.298L240.593 222.112C291.369 214.026 318.264 212.833 350.668 216.6C380.451 225.209 396.764 234.022 404.109 245.67C411.274 257.034 410.348 271.869 403.158 294.086L361.03 320.645L348.64 353.05V378.864L334.515 389.665C306.872 394.975 291.872 400.962 266.846 415.296L245.445 418.863L253.716 406.139C269.709 401.686 281.766 397.46 291.83 391.38C302.152 385.143 310.244 377.039 318.408 365.026L318.845 364.383V317.971L315.06 320.141C293.934 332.25 276.289 333.809 258.031 332.861C252.79 332.589 247.439 332.1 241.914 331.595C228.277 330.348 213.577 329.005 196.847 330.588L196.36 330.634L195.925 330.859C190.857 333.476 186.219 335.828 181.97 337.983C170.853 343.62 162.403 347.905 155.903 352.043C146.739 357.878 141.144 363.599 137.012 372.643L135.828 375.233L138.541 376.101C155.595 381.559 165.748 383.612 184.37 382.686L197.78 392.941C195.466 399.554 193.306 403.505 190.631 405.825C188 408.107 184.516 409.094 178.719 408.814C159.628 394.915 145.157 388.732 120.524 378.342C119.398 370.096 119.062 364.881 120.544 355.015C129.113 349.379 135.458 344.502 140.679 338.916C146.111 333.106 150.233 326.628 154.428 317.929L156.28 314.089L152.022 314.307C122.547 315.81 106.781 317.86 81.7194 325.416L80.6874 325.728L80.1975 326.688C69.1318 348.372 65.1878 361.29 63.4197 385.431L63.4129 385.524V396.755L42.3446 405.325L46.3821 386.238C55.7953 354.546 62.7368 337.263 77.7859 307.939C99.1167 301.503 110.506 295.072 129.71 282.248L130.96 281.413L130.823 279.915C127.452 243.14 121.021 221.936 103.081 183.691L101.978 181.341L99.6585 182.505C91.7129 186.49 86.6411 188.092 75.6852 189.597L75.5719 189.613L75.4604 189.639C68.3347 191.285 62.945 192.899 58.4146 195.256C53.9588 197.574 50.4447 200.552 46.8976 204.769C43.2769 206.632 40.5699 207.361 37.891 207.323C35.3171 207.286 32.5367 206.54 28.7502 204.981C27.1943 196.075 27.1765 190.467 28.8363 180.62L88.1934 132.055C93.7201 130.707 97.9904 129.984 102.306 129.94C106.671 129.896 111.207 130.547 117.238 132.095ZM41.0812 411.297L63.4129 402.213V409.964L37.6223 427.649L41.0812 411.297ZM201.081 389.099L189.329 380.113L201.081 371.127L220.435 380.113L201.081 389.099ZM184.254 377.63C167.32 378.483 157.866 376.828 142.883 372.17C146.376 365.651 151.031 361.139 158.619 356.308C164.896 352.312 173.017 348.194 184.005 342.621C188.175 340.506 192.757 338.182 197.808 335.576C213.839 334.11 227.649 335.375 240.98 336.595C246.618 337.112 252.171 337.62 257.769 337.911C275.571 338.835 293.208 337.444 313.789 326.609V362.823C306.093 374.016 298.604 381.379 289.215 387.052C279.583 392.872 267.818 396.996 251.445 401.522L250.521 401.777L238.139 420.826L220.464 443.214L270.237 435.472V419.182C293.25 406.059 307.473 400.277 332.012 395.312L327.716 410.348L302.417 458.236L290.827 467.15L268.702 488.111H318.845V477.327L332.083 461.441L376.041 398.779L365.729 373.468L375.445 329.305C389.588 318.787 396.425 311.289 407.277 297.286L407.545 296.941L407.681 296.525C415.169 273.7 416.968 256.583 408.386 242.973C399.907 229.528 381.753 220.304 351.869 211.684L351.668 211.626L351.461 211.602C318.59 207.762 291.352 208.957 240.965 216.934C223.51 201.749 212.361 193.379 186.665 182.65C160.479 153.607 145.647 143.03 119.505 127.561L119.198 127.38L118.853 127.29C112.388 125.611 107.295 124.834 102.255 124.884C97.2238 124.935 92.3759 125.81 86.4272 127.283L85.8746 127.42L24.1755 177.901L24.0139 178.828C22.0102 190.321 22.0623 196.636 24.0183 207.235L24.2631 208.561L25.5008 209.096C30.0995 211.085 33.9477 212.323 37.8186 212.378C41.7517 212.435 45.4245 211.271 49.6975 209.01L50.1429 208.775L50.4639 208.387C53.7846 204.37 56.8701 201.759 60.7484 199.741C64.6697 197.701 69.5159 196.205 76.4875 194.591C86.7726 193.171 92.3412 191.603 99.5902 188.165C116.266 224.014 122.376 244.463 125.648 278.879C107.155 291.176 96.1953 297.193 75.309 303.403L74.2751 303.71L73.7815 304.669C58.2337 334.883 51.1272 352.493 41.5064 384.896L41.4775 384.994L30.0606 438.965L68.469 412.627V385.709C70.1602 362.717 73.8135 350.475 84.2122 329.947C106.933 323.166 121.878 321.041 147.939 319.587C144.562 326.034 141.17 330.987 136.986 335.464C131.984 340.814 125.759 345.582 116.837 351.399L115.896 352.012L115.72 353.121C113.853 364.926 114.344 370.729 115.714 380.465L115.914 381.885L117.425 382.523C143.025 393.319 157.182 399.297 176.336 413.335L176.932 413.771L177.669 413.818C184.508 414.257 189.761 413.272 193.944 409.645C197.785 406.314 200.359 401.04 202.808 393.872L232.442 380.113L200.437 365.254L184.254 377.63ZM313.789 478.279V483.055H281.391L293.139 471.925L313.789 478.279ZM297.89 468.097L315.452 473.501L328.065 458.366L370.318 398.133L360.453 373.918L370.914 326.366L371.678 325.802C381.217 318.766 387.309 313.23 393.573 306.105L365.151 324.024L353.696 353.983V381.362L337.778 393.535L332.432 412.243L306.372 461.571L297.89 468.097ZM265.181 420.7V431.142L232.413 436.239L241.574 424.634L265.181 420.7Z" fill="black"/>
<path d="M95.1758 146.417C95.1758 150.22 98.2587 153.303 102.062 153.303C105.865 153.303 108.948 150.22 108.948 146.417C108.948 142.614 105.865 139.531 102.062 139.531C98.2587 139.531 95.1758 142.614 95.1758 146.417Z" fill="white"/>
<path fill-rule="evenodd" clip-rule="evenodd" d="M102.062 152.039C98.9568 152.039 96.4398 149.522 96.4398 146.417C96.4398 143.312 98.9568 140.795 102.062 140.795C105.167 140.795 107.684 143.312 107.684 146.417C107.684 149.522 105.167 152.039 102.062 152.039ZM102.062 153.303C98.2587 153.303 95.1758 150.22 95.1758 146.417C95.1758 142.614 98.2587 139.531 102.062 139.531C105.865 139.531 108.948 142.614 108.948 146.417C108.948 150.22 105.865 153.303 102.062 153.303Z" fill="black"/>
<path d="M33.9424 188.346C32.0525 189.083 31.191 188.976 30.1953 187.366C31.7348 185.458 32.2594 184.254 32.5012 181.832C33.4449 180.97 33.9839 180.726 34.98 181.14C36.6965 182.859 36.3557 183.712 36.4211 185.291C36.3364 186.682 36.0828 187.416 33.9424 188.346Z" fill="#1F0000"/>
<path fill-rule="evenodd" clip-rule="evenodd" d="M42.2713 193.537L26.0908 204.848L28.2634 207.956L44.4439 196.645L42.2713 193.537Z" fill="black"/>
<path d="M101.492 110.107C106.512 116.941 107.177 120.55 107.568 126.905H95.2512C93.4884 119.196 96.085 115.507 101.492 110.107Z" fill="#5B2D20" stroke="black" stroke-width="3"/>
<path d="M108.802 109.229C115.751 117.577 117.019 121.798 116.256 128.798L102.419 126.937C102.514 119.616 103.932 115.743 108.802 109.229Z" fill="#5B2D20" stroke="black" stroke-width="3"/>
<path d="M342.473 192.73C336.51 139.656 327.434 109.435 300.806 66.0743C298.697 62.6413 294.499 61.1143 290.663 62.3431L245.683 76.7479L233.532 119.33C232.689 122.284 230.908 124.883 228.457 126.736L199.942 148.291L167.65 172.7C165.783 175.271 164.383 177.417 163.753 179.699C161.528 187.752 171.511 195.792 179.232 192.602C181.051 191.85 182.918 190.672 185.066 189.053L216.043 167.403L243.396 148.285C245.756 146.635 247.557 144.305 248.558 141.606L262.324 104.478C278.33 134.667 284.763 161.239 286.443 195.51C286.623 199.191 284.435 202.571 281.03 203.978L237.108 222.122C230.236 224.96 226.733 232.631 229.087 239.683L263.218 341.922C266.831 349.272 270.015 355.359 275.349 358.404C282.452 362.46 291.996 357.339 293.756 349.35C294.864 344.319 294.036 338.74 291.863 331.732L268.035 260.729C265.661 253.654 269.189 245.95 276.098 243.127L332.358 220.132C333.073 219.84 333.752 219.458 334.355 218.975C342.714 212.274 343.986 205.987 342.473 192.73Z" fill="#F1D791"/>
<path fill-rule="evenodd" clip-rule="evenodd" d="M291.148 63.8593C294.296 62.8512 297.729 64.1074 299.449 66.9075C325.935 110.036 334.949 140.024 340.891 192.908L340.892 192.91C341.644 199.504 341.668 204.124 340.587 207.869C339.529 211.534 337.363 214.523 333.359 217.732C332.891 218.107 332.349 218.416 331.755 218.658L275.495 241.653C267.81 244.794 263.884 253.364 266.526 261.236L283.31 311.248L257.864 320.858L230.597 239.179C228.508 232.92 231.617 226.112 237.715 223.593L281.638 205.45C285.653 203.791 288.247 199.799 288.033 195.432C286.343 160.959 279.86 134.154 263.731 103.733C259.299 95.3738 254.143 86.7494 248.166 77.6244L291.148 63.8593ZM246.26 80.529C251.723 88.929 256.469 96.8871 260.583 104.595L247.065 141.052C246.177 143.448 244.578 145.516 242.484 146.98L216.323 165.264L202.241 148.549L229.417 128.006C232.144 125.945 234.126 123.053 235.063 119.767L246.26 80.529ZM199.697 150.471L213.703 167.096L184.13 187.765L184.108 187.782C182.007 189.365 180.263 190.453 178.624 191.13C175.447 192.443 171.634 191.49 168.774 189.137C165.914 186.785 164.392 183.364 165.287 180.123C165.819 178.199 167.006 176.31 168.8 173.826L199.697 150.471ZM262.57 108.395C277.246 137.056 283.242 162.725 284.853 195.588C285 198.583 283.218 201.352 280.422 202.507L236.5 220.65C228.856 223.808 224.958 232.342 227.577 240.187L261.706 342.421L261.708 342.426L261.742 342.528L261.789 342.624C265.348 349.865 268.724 356.455 274.559 359.787C278.662 362.129 283.401 361.779 287.276 359.814C291.145 357.852 294.317 354.207 295.311 349.693C296.509 344.254 295.583 338.354 293.384 331.261L293.379 331.243L293.373 331.226L293.37 331.216L269.545 260.223C267.437 253.943 270.569 247.106 276.7 244.6L332.96 221.606C333.797 221.264 334.612 220.809 335.351 220.217C339.706 216.725 342.356 213.221 343.646 208.752C344.912 204.365 344.816 199.213 344.055 192.551C338.071 139.286 328.933 108.834 302.162 65.2411C299.665 61.1752 294.702 59.3775 290.177 60.8268L244.386 75.4916L232.001 118.893C231.253 121.515 229.672 123.822 227.497 125.466L166.501 171.573L166.361 171.764C164.5 174.329 162.934 176.684 162.218 179.275C160.888 184.087 163.245 188.712 166.751 191.596C170.256 194.479 175.295 195.951 179.84 194.073C181.831 193.25 183.816 191.988 186.001 190.342L244.308 149.59C246.933 147.755 248.937 145.163 250.05 142.159L262.57 108.395ZM290.35 332.226C292.491 339.139 293.219 344.389 292.201 349.008C291.436 352.483 288.956 355.392 285.836 356.974C282.724 358.552 279.139 358.735 276.138 357.021C271.328 354.275 268.34 348.728 264.695 341.318L258.933 323.858L284.214 314.31L290.35 332.226Z" fill="black"/>
<path d="M334.355 218.975C342.714 212.274 343.986 205.987 342.473 192.73L341.098 181.097L286.691 201.64L237.116 222.118C230.241 224.958 226.738 232.635 229.098 239.689L256.943 322.908L285.188 312.241L268.004 260.713C265.646 253.643 269.176 245.956 276.075 243.136L332.358 220.132C333.073 219.84 333.752 219.458 334.355 218.975Z" fill="#8D7755"/>
<path fill-rule="evenodd" clip-rule="evenodd" d="M342.44 178.889L286.106 200.159L236.508 220.647C228.86 223.806 224.963 232.347 227.589 240.194L255.958 324.982L287.183 313.189L269.514 260.21C267.421 253.935 270.554 247.112 276.677 244.61L332.96 221.606C333.797 221.264 334.613 220.809 335.351 220.217C339.707 216.725 342.356 213.221 343.646 208.752C344.912 204.365 344.816 199.212 344.055 192.549L344.054 192.543L342.44 178.889ZM339.756 183.306L340.892 192.914C341.644 199.506 341.668 204.124 340.587 207.869C339.529 211.534 337.363 214.523 333.359 217.732C332.891 218.107 332.349 218.416 331.755 218.658L275.472 241.662C267.797 244.799 263.87 253.351 266.493 261.217L283.194 311.292L257.928 320.834L230.608 239.183C228.514 232.923 231.623 226.11 237.724 223.59L287.276 203.121L339.756 183.306Z" fill="black"/>
<path d="M290.662 62.3431L252.897 74.4376C248.39 75.881 244.903 79.4814 243.605 84.0321L233.532 119.33C232.689 122.284 230.908 124.883 228.457 126.736L199.942 148.291L216.043 167.403L243.42 148.268C245.765 146.629 247.558 144.318 248.563 141.638L261.193 107.964C261.739 106.506 263.764 106.42 264.429 107.828C281.041 143.046 285.66 164.553 286.691 201.64L341.065 181.1C335.042 135.024 325.427 106.166 300.805 66.0735C298.697 62.6406 294.499 61.1143 290.662 62.3431Z" fill="#78A85D"/>
<path fill-rule="evenodd" clip-rule="evenodd" d="M302.162 65.2404C299.665 61.1742 294.702 59.3775 290.177 60.8268L252.411 72.9214C247.398 74.5271 243.518 78.5326 242.074 83.5952L232.001 118.893C231.253 121.515 229.672 123.822 227.497 125.466L197.643 148.033L215.763 169.541L244.332 149.573C246.941 147.75 248.936 145.178 250.054 142.198L262.683 108.523C262.705 108.466 262.727 108.449 262.739 108.44C262.758 108.427 262.791 108.414 262.834 108.412C262.877 108.41 262.909 108.421 262.928 108.432C262.94 108.438 262.963 108.453 262.989 108.507C279.338 143.168 283.982 164.381 285.068 200.588L236.5 220.65L237.715 223.593L287.276 203.121L342.807 182.144L342.644 180.894C336.593 134.61 326.908 105.536 302.162 65.2404ZM288.215 199.362C287.053 163.42 282.243 141.863 265.869 107.148C264.601 104.461 260.74 104.636 259.702 107.405L247.072 141.079C246.181 143.457 244.589 145.509 242.508 146.963L216.323 165.264L202.241 148.549L229.417 128.006C232.144 125.945 234.126 123.053 235.063 119.766L245.136 84.4689C246.288 80.4302 249.383 77.2348 253.383 75.9539L291.148 63.8593C294.296 62.8511 297.729 64.1068 299.448 66.9067C323.722 106.432 333.315 134.915 339.322 180.057L288.215 199.362Z" fill="black"/>
<path d="M234.385 60.814C240.837 78.6088 260.492 87.8042 278.287 81.3526C296.082 74.901 305.277 55.2454 298.826 37.4506C292.374 19.6558 272.719 10.4604 254.924 16.912C237.129 23.3636 227.934 43.0192 234.385 60.814Z" fill="#F1D791"/>
<rect width="18.5127" height="6.96162" rx="3.48081" transform="matrix(-0.940119 0.340846 0.340846 0.940119 255.382 59.3976)" fill="white"/>
<path opacity="0.9" fill-rule="evenodd" clip-rule="evenodd" d="M277.471 79.1019C260.919 85.1028 242.637 76.5497 236.636 59.9979C230.635 43.4462 239.188 25.1637 255.74 19.1627C272.292 13.1618 290.574 21.7149 296.575 38.2667C302.576 54.8184 294.023 73.1009 277.471 79.1019ZM278.287 81.3526C260.492 87.8042 240.837 78.6088 234.385 60.814C227.934 43.0192 237.129 23.3636 254.924 16.912C272.719 10.4604 292.374 19.6558 298.826 37.4506C305.277 55.2454 296.082 74.901 278.287 81.3526Z" fill="black"/>
<circle r="6.96162" transform="matrix(-0.940119 0.340846 0.340846 0.940119 255.615 40.913)" fill="black"/>
</g>
<defs>
<clipPath id="clip0">
<rect width="512" height="512" fill="white" transform="matrix(-1 0 0 1 512 0)"/>
</clipPath>
</defs>
</svg>
