<svg width="512" height="512" viewBox="0 0 512 512" fill="none" xmlns="http://www.w3.org/2000/svg">
<g clip-path="url(#clip0)">
<path d="M336.258 131.813C362.634 127.523 368.857 131.41 384.634 134.905L360.556 151.252L342.664 166.493L321.9 185.048C324.876 172.514 320.276 167.587 311.518 158.983C329.716 155.786 332.853 160.691 342.664 166.493C339.738 157.265 335.707 152.871 324.33 146.392C340.138 142.243 347.185 146.529 360.556 151.252C358.518 141.846 352.673 137.718 336.258 131.813Z" fill="#5B2D20"/>
<path fill-rule="evenodd" clip-rule="evenodd" d="M377.702 131.283C380.012 131.865 382.42 132.473 385.044 133.054L389.336 134.005L361.707 152.762L343.911 167.922L318.66 190.486L320.055 184.61C321.472 178.642 321.035 174.746 319.402 171.367C317.699 167.844 314.623 164.691 310.189 160.335L307.56 157.753L311.19 157.115C320.465 155.486 326.167 155.873 330.882 157.581C333.21 158.424 335.223 159.563 337.224 160.816C337.745 161.142 338.258 161.471 338.772 161.803C337.807 159.887 336.679 158.238 335.266 156.69C332.673 153.85 329.027 151.249 323.391 148.039L319.351 145.738L323.848 144.558C332.011 142.416 338.025 142.43 343.749 143.64C347.779 144.491 351.7 145.956 356.022 147.571C356.558 147.771 357.1 147.973 357.649 148.177C356.6 145.621 355.023 143.584 352.631 141.713C349.124 138.971 343.816 136.547 335.616 133.597L328.723 131.117L335.954 129.941C349.258 127.778 357.6 127.656 364.661 128.559C369.211 129.14 373.278 130.166 377.702 131.283ZM356.843 151.924C356.012 151.618 355.21 151.318 354.431 151.027C350.23 149.458 346.699 148.139 342.965 147.35C338.954 146.502 334.745 146.288 329.405 147.215C333.042 149.514 335.845 151.701 338.066 154.133C340.512 156.812 342.19 159.719 343.544 163.253L356.843 151.924ZM339.499 166.778C338.72 166.287 337.977 165.806 337.268 165.347C336.546 164.88 335.861 164.436 335.212 164.03C333.296 162.831 331.548 161.855 329.591 161.146C326.3 159.954 322.2 159.44 315.522 160.289C318.645 163.457 321.212 166.398 322.816 169.717C324.302 172.79 324.928 176.094 324.626 180.069L339.499 166.778ZM361.692 148.189C360.442 144.394 358.359 141.379 354.966 138.726C352.164 136.535 348.495 134.614 343.756 132.653C352.732 131.563 358.896 131.645 364.18 132.32C368.518 132.875 372.218 133.811 376.48 134.888C377.604 135.173 378.766 135.467 379.99 135.766L361.692 148.189Z" fill="black"/>
<path d="M71.5856 256.497C83.1714 247.585 104.282 247.933 104.282 247.933C110.885 257.443 110.559 262.645 100.566 271.62C97.1467 275.634 98.6524 271.791 89.807 277.348C89.3078 277.662 88.8578 278.053 88.4683 278.495C81.7652 286.111 68.0756 301.114 66.4416 325.604C65.1176 345.448 59.3956 353.68 54.9369 364.225C52.4535 370.099 48.7671 375.621 43.1824 378.699C28.1038 387.009 20.3928 386.378 13.331 375.01C12.8927 374.304 13.2833 373.383 14.0794 373.146C34.6672 367.006 35.4105 353.06 33.3921 325.604C37.8644 283.99 47.6984 270.92 71.5856 256.497Z" fill="#5B2D20"/>
<path fill-rule="evenodd" clip-rule="evenodd" d="M104.312 246.037C104.312 246.037 104.313 246.037 104.282 247.933L104.312 246.037L105.285 246.053L105.84 246.852C109.185 251.67 111.137 255.871 110.526 260.24C109.924 264.539 106.913 268.454 101.927 272.946C101.09 273.921 100.401 274.603 99.6726 275.046C98.9287 275.499 98.2353 275.637 97.7312 275.737C97.6859 275.746 97.6421 275.755 97.5999 275.763L97.5967 275.764C96.7001 275.946 95.0752 276.278 90.8158 278.954C90.4818 279.164 90.1693 279.432 89.8915 279.748C89.7474 279.912 89.6002 280.079 89.4501 280.249C82.6313 287.986 69.8871 302.445 68.3334 325.731C67.2394 342.126 63.1513 350.9 59.3096 359.145C58.4065 361.083 57.517 362.992 56.6832 364.964C54.1219 371.021 50.2133 376.988 44.0976 380.359C36.5156 384.538 30.3616 386.73 25.0338 386.117C19.5148 385.483 15.3944 381.925 11.7204 376.01C10.5666 374.153 11.6471 371.893 13.5375 371.329C18.5053 369.847 22.1399 367.935 24.8087 365.569C27.4597 363.219 29.2484 360.343 30.4105 356.78C32.7814 349.512 32.5161 339.549 31.5012 325.743L31.4886 325.572L31.507 325.402C33.7527 304.506 37.3652 290.516 43.5713 279.897C49.79 269.257 58.5005 262.192 70.5157 254.928C76.6917 250.218 85.211 248.034 91.9924 246.999C95.4336 246.473 98.5009 246.233 100.709 246.124C101.814 246.07 102.707 246.048 103.328 246.04C103.638 246.036 103.88 246.035 104.047 246.035C104.13 246.035 104.195 246.036 104.24 246.036L104.292 246.037L104.306 246.037L104.312 246.037ZM103.282 249.833C102.707 249.841 101.895 249.862 100.896 249.912C98.7841 250.016 95.8495 250.246 92.5648 250.747C85.9259 251.761 78.1446 253.844 72.7416 258L72.657 258.065L72.5656 258.12C60.74 265.26 52.6179 271.933 46.8452 281.811C41.0603 291.709 37.5233 305.016 35.2956 325.637C36.2896 339.205 36.6477 349.887 34.0156 357.956C32.6707 362.079 30.5395 365.557 27.3239 368.407C24.2829 371.102 20.3549 373.163 15.3968 374.725C18.6237 379.678 21.7691 381.925 25.467 382.35C29.5298 382.817 34.7706 381.17 42.2672 377.038C47.3209 374.253 50.7851 369.176 53.1906 363.487C54.0755 361.394 54.9981 359.411 55.9196 357.43C59.7222 349.256 63.5059 341.123 64.5498 325.478C65.107 317.126 67.0308 309.847 69.5983 303.57C74.5876 291.371 82.0077 282.956 86.5534 277.8C86.7213 277.61 86.8852 277.424 87.045 277.243C87.5463 276.673 88.1339 276.16 88.7984 275.743C93.3792 272.865 95.4254 272.336 96.8428 272.047C97.4885 271.916 97.5552 271.896 97.7003 271.807C97.9041 271.683 98.2882 271.37 99.1231 270.39L99.2052 270.294L99.2995 270.209C104.251 265.763 106.365 262.611 106.77 259.715C107.146 257.03 106.117 254.079 103.282 249.833Z" fill="black"/>
<path d="M195.683 485.583V476.412L219.528 469.075L236.954 485.583H195.683Z" fill="white"/>
<path d="M446.059 411.296L478.159 433.307L473.114 409.461L446.059 398.456V411.296Z" fill="white"/>
<path d="M285.562 380.113L311.241 392.036L326.832 380.113L311.241 368.191L285.562 380.113Z" fill="white"/>
<path d="M285.562 439.727L271.805 422.301L244.291 417.715V433.307L285.562 439.727Z" fill="white"/>
<path d="M138.821 327.837L148.909 373.693L138.821 398.456L181.926 459.903L195.683 476.412L219.528 469.075L207.605 459.903L181.926 411.296L176.423 392.036L160.832 380.113V353.516L148.909 322.334L106.721 295.737C117.668 309.862 124.393 317.193 138.821 327.837Z" fill="#6C382A"/>
<path d="M160.832 380.113L176.423 392.036C204.28 397.343 219.061 403.238 244.291 417.715L271.805 422.301L259.882 403.959C227.054 394.885 211.698 387.17 195.683 363.605L193.888 319.076C221.886 335.125 245.834 336.356 270.553 334.095C284.107 332.855 298.432 331.545 314.915 333.105C320.06 335.761 324.742 338.136 329.01 340.301L329.012 340.301C355.388 353.678 366.003 359.061 372.689 373.693C355.57 379.171 345.678 381.134 326.832 380.113L311.241 392.036C316.337 407.383 321.094 412.134 334.169 411.296C353.589 397.064 367.998 390.987 393.593 380.193L393.783 380.113C395.129 370.541 395.6 365.001 393.783 353.516C375.81 341.799 368.093 333.925 359.849 316.831C389.195 318.328 404.745 320.357 429.551 327.837C440.478 349.249 444.318 361.841 446.059 385.616V398.456L473.114 409.461L468.07 385.616C458.495 353.366 451.448 335.902 435.971 305.826C414.292 299.381 403.081 293.093 383.694 280.146C387.033 243.721 393.364 222.803 411.208 184.765C419.431 188.889 424.774 190.563 435.971 192.102C450.127 195.372 456.503 198.331 463.484 206.776C471.599 211.068 476.461 210.683 485.496 206.776C487.395 196.483 487.45 190.471 485.496 179.262L424.965 129.737C413.22 126.829 406.45 126.446 393.783 129.737C367.705 145.168 353.064 155.615 326.832 184.765C300.645 195.648 289.759 203.953 271.805 219.616C220.795 211.493 193.642 210.28 160.832 214.113C101.037 231.36 91.7862 250.215 106.721 295.737L148.909 322.334L160.832 353.516V380.113Z" fill="#6C382A"/>
<path fill-rule="evenodd" clip-rule="evenodd" d="M394.762 132.095C369.068 147.313 354.646 157.636 328.711 186.456L328.33 186.88L327.802 187.099C301.938 197.848 291.282 205.98 273.466 221.521L272.575 222.298L271.407 222.112C220.631 214.026 193.736 212.833 161.332 216.6C131.549 225.209 115.236 234.022 107.891 245.67C100.726 257.034 101.652 271.869 108.842 294.086L150.97 320.645L163.36 353.05V378.864L177.485 389.665C205.128 394.975 220.128 400.962 245.154 415.296L266.555 418.863L258.284 406.139C242.291 401.686 230.234 397.46 220.17 391.38C209.848 385.143 201.756 377.039 193.592 365.026L193.155 364.383V317.971L196.94 320.141C218.066 332.25 235.711 333.809 253.969 332.861C259.21 332.589 264.561 332.1 270.086 331.595C283.723 330.348 298.423 329.005 315.153 330.588L315.64 330.634L316.075 330.859C321.143 333.476 325.781 335.828 330.03 337.983C341.147 343.62 349.597 347.905 356.097 352.043C365.261 357.878 370.856 363.599 374.988 372.643L376.172 375.233L373.459 376.101C356.405 381.559 346.252 383.612 327.63 382.686L314.22 392.941C316.534 399.554 318.694 403.505 321.369 405.825C324 408.107 327.484 409.094 333.281 408.814C352.372 394.915 366.843 388.732 391.476 378.342C392.602 370.096 392.938 364.881 391.456 355.015C382.887 349.379 376.542 344.502 371.321 338.916C365.889 333.106 361.767 326.628 357.572 317.929L355.72 314.089L359.978 314.307C389.453 315.81 405.219 317.86 430.281 325.416L431.313 325.728L431.803 326.688C442.868 348.372 446.812 361.29 448.58 385.431L448.587 385.524V396.755L469.655 405.325L465.618 386.238C456.205 354.546 449.263 337.263 434.214 307.939C412.883 301.503 401.494 295.072 382.29 282.248L381.04 281.413L381.177 279.915C384.548 243.14 390.979 221.936 408.919 183.691L410.022 181.341L412.341 182.505C420.287 186.49 425.359 188.092 436.315 189.597L436.428 189.613L436.54 189.639C443.665 191.285 449.055 192.899 453.585 195.256C458.041 197.574 461.555 200.552 465.102 204.769C468.723 206.632 471.43 207.361 474.109 207.323C476.683 207.286 479.463 206.54 483.25 204.981C484.806 196.075 484.823 190.467 483.164 180.62L423.807 132.055C418.28 130.707 414.01 129.984 409.694 129.94C405.329 129.896 400.793 130.547 394.762 132.095ZM470.919 411.297L448.587 402.213V409.964L474.378 427.649L470.919 411.297ZM310.919 389.099L322.671 380.113L310.919 371.127L291.565 380.113L310.919 389.099ZM327.746 377.63C344.68 378.483 354.134 376.828 369.117 372.17C365.624 365.651 360.969 361.139 353.381 356.308C347.104 352.312 338.983 348.194 327.995 342.621C323.825 340.506 319.243 338.182 314.192 335.576C298.161 334.11 284.351 335.375 271.02 336.595C265.382 337.112 259.829 337.62 254.231 337.911C236.429 338.835 218.792 337.444 198.211 326.609V362.823C205.907 374.016 213.396 381.379 222.785 387.052C232.417 392.872 244.182 396.996 260.555 401.522L261.479 401.777L273.861 420.826L291.536 443.214L241.763 435.472V419.182C218.75 406.059 204.527 400.277 179.988 395.312L184.284 410.348L209.583 458.236L221.173 467.15L243.298 488.111H193.155V477.327L179.917 461.441L135.959 398.779L146.271 373.468L136.555 329.305C122.412 318.787 115.575 311.289 104.723 297.286L104.455 296.941L104.319 296.525C96.8306 273.7 95.0321 256.583 103.614 242.973C112.093 229.528 130.247 220.304 160.131 211.684L160.332 211.626L160.539 211.602C193.41 207.762 220.648 208.957 271.035 216.934C288.49 201.749 299.639 193.379 325.335 182.65C351.521 153.607 366.353 143.03 392.495 127.561L392.802 127.38L393.147 127.29C399.612 125.611 404.705 124.834 409.745 124.884C414.776 124.935 419.624 125.81 425.573 127.283L426.125 127.42L487.825 177.901L487.986 178.828C489.99 190.321 489.938 196.636 487.982 207.235L487.737 208.561L486.499 209.096C481.9 211.085 478.052 212.323 474.181 212.378C470.248 212.435 466.575 211.271 462.302 209.01L461.857 208.775L461.536 208.387C458.215 204.37 455.13 201.759 451.252 199.741C447.33 197.701 442.484 196.205 435.512 194.591C425.227 193.171 419.659 191.603 412.41 188.165C395.734 224.014 389.624 244.463 386.352 278.879C404.845 291.176 415.805 297.193 436.691 303.403L437.725 303.71L438.219 304.669C453.766 334.883 460.873 352.493 470.494 384.896L470.522 384.994L481.939 438.965L443.531 412.627V385.709C441.84 362.717 438.187 350.475 427.788 329.947C405.067 323.166 390.122 321.041 364.061 319.587C367.438 326.034 370.83 330.987 375.014 335.464C380.016 340.814 386.241 345.582 395.163 351.399L396.104 352.012L396.28 353.121C398.147 364.926 397.656 370.729 396.286 380.465L396.086 381.885L394.575 382.523C368.975 393.319 354.818 399.297 335.664 413.335L335.068 413.771L334.331 413.818C327.492 414.257 322.239 413.272 318.056 409.645C314.215 406.314 311.641 401.04 309.192 393.872L279.558 380.113L311.563 365.254L327.746 377.63ZM198.211 478.279V483.055H230.609L218.861 471.925L198.211 478.279ZM214.11 468.097L196.548 473.501L183.935 458.366L141.682 398.133L151.547 373.918L141.086 326.366L140.322 325.802C130.783 318.766 124.691 313.23 118.427 306.105L146.849 324.024L158.304 353.983V381.362L174.222 393.535L179.568 412.243L205.628 461.571L214.11 468.097ZM246.819 420.7V431.142L279.587 436.239L270.426 424.634L246.819 420.7Z" fill="black"/>
<path d="M416.824 146.417C416.824 150.22 413.741 153.303 409.938 153.303C406.135 153.303 403.052 150.22 403.052 146.417C403.052 142.614 406.135 139.531 409.938 139.531C413.741 139.531 416.824 142.614 416.824 146.417Z" fill="white"/>
<path fill-rule="evenodd" clip-rule="evenodd" d="M409.938 152.039C413.043 152.039 415.56 149.522 415.56 146.417C415.56 143.312 413.043 140.795 409.938 140.795C406.833 140.795 404.316 143.312 404.316 146.417C404.316 149.522 406.833 152.039 409.938 152.039ZM409.938 153.303C413.741 153.303 416.824 150.22 416.824 146.417C416.824 142.614 413.741 139.531 409.938 139.531C406.135 139.531 403.052 142.614 403.052 146.417C403.052 150.22 406.135 153.303 409.938 153.303Z" fill="black"/>
<path d="M478.058 188.346C479.948 189.083 480.809 188.976 481.805 187.366C480.265 185.458 479.741 184.254 479.499 181.832C478.555 180.97 478.016 180.726 477.02 181.14C475.304 182.859 475.644 183.712 475.579 185.291C475.664 186.682 475.917 187.416 478.058 188.346Z" fill="#1F0000"/>
<path fill-rule="evenodd" clip-rule="evenodd" d="M469.729 193.537L485.909 204.848L483.737 207.956L467.556 196.645L469.729 193.537Z" fill="black"/>
<path d="M410.508 110.107C405.488 116.941 404.823 120.55 404.432 126.905H416.749C418.512 119.196 415.915 115.507 410.508 110.107Z" fill="#5B2D20" stroke="black" stroke-width="3"/>
<path d="M403.198 109.229C396.249 117.577 394.981 121.798 395.744 128.798L409.581 126.937C409.486 119.616 408.068 115.743 403.198 109.229Z" fill="#5B2D20" stroke="black" stroke-width="3"/>
<path d="M169.527 192.73C175.49 139.656 184.566 109.435 211.194 66.0743C213.303 62.6413 217.501 61.1143 221.337 62.3431L266.317 76.7479L278.468 119.33C279.311 122.284 281.092 124.883 283.543 126.736L312.058 148.291L344.35 172.7C346.217 175.271 347.617 177.417 348.247 179.699C350.472 187.752 340.489 195.792 332.768 192.602C330.949 191.85 329.082 190.672 326.934 189.053L295.957 167.403L268.604 148.285C266.244 146.635 264.443 144.305 263.442 141.606L249.676 104.478C233.67 134.667 227.237 161.239 225.557 195.51C225.377 199.191 227.564 202.571 230.97 203.978L274.892 222.122C281.764 224.96 285.267 232.631 282.913 239.683L248.782 341.922C245.169 349.272 241.985 355.359 236.651 358.404C229.548 362.46 220.004 357.339 218.244 349.35C217.136 344.319 217.964 338.74 220.137 331.732L243.965 260.729C246.339 253.654 242.811 245.95 235.902 243.127L179.642 220.132C178.927 219.84 178.248 219.458 177.645 218.975C169.286 212.274 168.014 205.987 169.527 192.73Z" fill="#F1D791"/>
<path fill-rule="evenodd" clip-rule="evenodd" d="M220.852 63.8593C217.704 62.8512 214.271 64.1074 212.551 66.9075C186.065 110.036 177.051 140.024 171.109 192.908L171.108 192.91C170.356 199.504 170.332 204.124 171.413 207.869C172.471 211.534 174.637 214.523 178.641 217.732C179.109 218.107 179.651 218.416 180.245 218.658L236.505 241.653C244.19 244.794 248.116 253.364 245.474 261.236L228.69 311.248L254.136 320.858L281.403 239.179C283.492 232.92 280.383 226.112 274.285 223.593L230.362 205.45C226.347 203.791 223.753 199.799 223.967 195.432C225.657 160.959 232.14 134.154 248.269 103.733C252.701 95.3738 257.857 86.7494 263.834 77.6244L220.852 63.8593ZM265.74 80.529C260.277 88.929 255.531 96.8871 251.417 104.595L264.935 141.052C265.823 143.448 267.422 145.516 269.516 146.98L295.677 165.264L309.759 148.549L282.583 128.006C279.856 125.945 277.874 123.053 276.937 119.767L265.74 80.529ZM312.303 150.471L298.297 167.096L327.87 187.765L327.892 187.782C329.993 189.365 331.737 190.453 333.376 191.13C336.553 192.443 340.366 191.49 343.226 189.137C346.086 186.785 347.608 183.364 346.713 180.123C346.181 178.199 344.994 176.31 343.2 173.826L312.303 150.471ZM249.43 108.395C234.754 137.056 228.758 162.725 227.147 195.588C227 198.583 228.782 201.352 231.578 202.507L275.5 220.65C283.144 223.808 287.042 232.342 284.423 240.187L250.294 342.421L250.292 342.426L250.258 342.528L250.211 342.624C246.652 349.865 243.276 356.455 237.441 359.787C233.338 362.129 228.599 361.779 224.724 359.814C220.855 357.852 217.683 354.207 216.689 349.693C215.491 344.254 216.417 338.354 218.616 331.261L218.621 331.243L218.627 331.226L218.63 331.216L242.455 260.223C244.563 253.943 241.431 247.106 235.3 244.6L179.04 221.606C178.203 221.264 177.388 220.809 176.649 220.217C172.293 216.725 169.644 213.221 168.354 208.752C167.088 204.365 167.184 199.213 167.945 192.551C173.929 139.286 183.067 108.834 209.838 65.2411C212.335 61.1752 217.298 59.3775 221.823 60.8268L267.614 75.4916L279.999 118.893C280.747 121.515 282.328 123.822 284.503 125.466L345.499 171.573L345.639 171.764C347.5 174.329 349.066 176.684 349.782 179.275C351.112 184.087 348.755 188.712 345.249 191.596C341.744 194.479 336.705 195.951 332.16 194.073C330.169 193.25 328.184 191.988 325.999 190.342L267.692 149.59C265.067 147.755 263.063 145.163 261.949 142.159L249.43 108.395ZM221.65 332.226C219.509 339.138 218.781 344.389 219.799 349.008C220.564 352.483 223.044 355.392 226.164 356.974C229.276 358.552 232.861 358.735 235.862 357.021C240.672 354.275 243.66 348.728 247.305 341.318L253.067 323.858L227.786 314.31L221.65 332.226Z" fill="black"/>
<path d="M177.645 218.975C169.286 212.274 168.014 205.987 169.527 192.73L170.902 181.097L225.309 201.64L274.884 222.118C281.759 224.958 285.262 232.635 282.902 239.689L255.057 322.908L226.812 312.241L243.996 260.713C246.354 253.643 242.824 245.956 235.925 243.136L179.642 220.132C178.927 219.84 178.248 219.458 177.645 218.975Z" fill="#8D7755"/>
<path fill-rule="evenodd" clip-rule="evenodd" d="M169.56 178.889L225.894 200.159L275.492 220.647C283.14 223.806 287.037 232.347 284.411 240.194L256.042 324.982L224.817 313.189L242.486 260.21C244.579 253.935 241.446 247.112 235.323 244.61L179.04 221.606C178.203 221.264 177.387 220.809 176.649 220.217C172.293 216.725 169.644 213.221 168.354 208.752C167.088 204.365 167.184 199.212 167.945 192.549L167.946 192.543L169.56 178.889ZM172.244 183.306L171.108 192.914C170.356 199.506 170.332 204.124 171.413 207.869C172.471 211.534 174.637 214.523 178.641 217.732C179.109 218.107 179.651 218.416 180.244 218.658L236.528 241.662C244.203 244.799 248.13 253.351 245.507 261.217L228.806 311.292L254.072 320.834L281.392 239.183C283.486 232.923 280.377 226.11 274.276 223.59L224.724 203.121L172.244 183.306Z" fill="black"/>
<path d="M221.338 62.3431L259.103 74.4376C263.61 75.881 267.097 79.4814 268.396 84.0321L278.468 119.33C279.311 122.284 281.092 124.883 283.543 126.736L312.058 148.291L295.957 167.403L268.58 148.268C266.235 146.629 264.442 144.318 263.437 141.638L250.807 107.964C250.261 106.506 248.236 106.42 247.571 107.828C230.959 143.046 226.34 164.553 225.309 201.64L170.935 181.1C176.958 135.024 186.573 106.166 211.195 66.0735C213.303 62.6406 217.501 61.1143 221.338 62.3431Z" fill="#78A85D"/>
<path fill-rule="evenodd" clip-rule="evenodd" d="M209.838 65.2404C212.335 61.1742 217.298 59.3775 221.823 60.8268L259.589 72.9214C264.602 74.5271 268.482 78.5326 269.926 83.5952L279.999 118.893C280.747 121.515 282.328 123.822 284.503 125.466L314.357 148.033L296.237 169.541L267.668 149.573C265.059 147.75 263.064 145.178 261.946 142.198L249.317 108.523C249.295 108.466 249.273 108.449 249.261 108.44C249.242 108.427 249.209 108.414 249.166 108.412C249.123 108.41 249.091 108.421 249.072 108.432C249.06 108.438 249.037 108.453 249.011 108.507C232.662 143.168 228.018 164.381 226.932 200.588L275.5 220.65L274.285 223.593L224.724 203.121L169.193 182.144L169.356 180.894C175.407 134.61 185.092 105.536 209.838 65.2404ZM223.785 199.362C224.947 163.421 229.757 141.863 246.131 107.148C247.399 104.461 251.26 104.636 252.298 107.405L264.928 141.079C265.819 143.457 267.411 145.509 269.492 146.963L295.677 165.264L309.759 148.549L282.583 128.006C279.856 125.945 277.874 123.053 276.937 119.766L266.864 84.4689C265.712 80.4302 262.617 77.2348 258.617 75.9539L220.852 63.8593C217.704 62.8511 214.271 64.1068 212.552 66.9067C188.278 106.432 178.685 134.915 172.678 180.057L223.785 199.362Z" fill="black"/>
<path d="M277.615 60.814C271.163 78.6088 251.508 87.8042 233.713 81.3526C215.918 74.901 206.723 55.2454 213.174 37.4506C219.626 19.6558 239.281 10.4604 257.076 16.912C274.871 23.3636 284.066 43.0192 277.615 60.814Z" fill="#F1D791"/>
<rect x="256.618" y="59.3976" width="18.5127" height="6.96162" rx="3.48081" transform="rotate(19.9284 256.618 59.3976)" fill="white"/>
<path opacity="0.9" fill-rule="evenodd" clip-rule="evenodd" d="M234.529 79.1019C251.081 85.1028 269.363 76.5497 275.364 59.9979C281.365 43.4462 272.812 25.1637 256.26 19.1627C239.708 13.1618 221.426 21.7149 215.425 38.2667C209.424 54.8184 217.977 73.1009 234.529 79.1019ZM233.713 81.3526C251.508 87.8042 271.163 78.6088 277.615 60.814C284.066 43.0192 274.871 23.3636 257.076 16.912C239.281 10.4604 219.626 19.6558 213.174 37.4506C206.723 55.2454 215.918 74.901 233.713 81.3526Z" fill="black"/>
<circle cx="256.385" cy="40.913" r="6.96162" transform="rotate(19.9284 256.385 40.913)" fill="black"/>
</g>
<defs>
<clipPath id="clip0">
<rect width="512" height="512" fill="white"/>
</clipPath>
</defs>
</svg>
