<svg width="512" height="512" viewBox="0 0 512 512" fill="none" xmlns="http://www.w3.org/2000/svg">
<g clip-path="url(#clip0)">
<path fill-rule="evenodd" clip-rule="evenodd" d="M370.833 363.76C454.219 342.896 512 297.564 512 245C512 172.651 402.534 114 267.5 114C132.466 114 23 172.651 23 245C23 270.262 36.3457 293.854 59.4656 313.862C40.2582 329.221 29 347.88 29 368C29 420.467 105.559 463 200 463C294.441 463 371 420.467 371 368C371 366.579 370.944 365.166 370.833 363.76Z" fill="#4772AD"/>
<path fill-rule="evenodd" clip-rule="evenodd" d="M367.642 361.466L370.105 360.85C411.495 350.494 446.344 334.106 470.778 313.953C495.216 293.797 509 270.096 509 245C509 210.466 482.826 178.511 438.971 155.013C395.241 131.583 334.622 117 267.5 117C200.378 117 139.759 131.583 96.0292 155.013C52.1735 178.511 26 210.466 26 245C26 269.124 38.7342 291.953 61.4288 311.593L64.1553 313.953L61.3392 316.205C42.5744 331.21 32 349.088 32 368C32 392.649 50.0194 415.596 80.5417 432.553C110.962 449.453 153.191 460 200 460C246.809 460 289.038 449.453 319.458 432.553C349.981 415.596 368 392.649 368 368C368 366.658 367.947 365.324 367.842 363.997L367.642 361.466ZM370.833 363.76C370.944 365.166 371 366.579 371 368C371 420.467 294.441 463 200 463C105.559 463 29 420.467 29 368C29 348.716 39.3424 330.774 57.1136 315.793C57.8837 315.143 58.6678 314.5 59.4656 313.862C58.694 313.194 57.9334 312.522 57.1837 311.847C35.4698 292.277 23 269.419 23 245C23 172.651 132.466 114 267.5 114C402.534 114 512 172.651 512 245C512 297.564 454.219 342.896 370.833 363.76Z" fill="black"/>
<path fill-rule="evenodd" clip-rule="evenodd" d="M356.99 349.125C429.147 331.071 479.146 291.843 479.146 246.358C479.146 183.752 384.422 133 267.573 133C150.724 133 56 183.752 56 246.358C56 268.218 67.5484 288.633 87.5548 305.946C70.934 319.237 61.192 335.384 61.192 352.794C61.192 398.195 127.441 435 209.163 435C290.886 435 357.135 398.195 357.135 352.794C357.135 351.564 357.086 350.341 356.99 349.125Z" fill="#4581BC"/>
<path fill-rule="evenodd" clip-rule="evenodd" d="M310.025 309.366C349.587 299.562 377 278.259 377 253.559C377 219.561 325.065 192 261 192C196.935 192 145 219.561 145 253.559C145 265.43 151.332 276.516 162.301 285.918C153.188 293.136 147.847 301.904 147.847 311.358C147.847 336.013 184.169 356 228.975 356C273.782 356 310.104 336.013 310.104 311.358C310.104 310.691 310.078 310.026 310.025 309.366Z" fill="#5596D6"/>
</g>
<defs>
<clipPath id="clip0">
<rect width="512" height="512" fill="white"/>
</clipPath>
</defs>
</svg>
