<svg width="756" height="163" viewBox="0 0 756 163" fill="none" xmlns="http://www.w3.org/2000/svg">
<path d="M18.35 11.5578L46.1 11.7078C60.6 11.7078 73.35 16.9578 84.35 27.4578C95.35 37.8578 100.85 50.7078 100.85 66.0078C100.85 81.2078 95.45 94.2578 84.65 105.158C73.95 116.058 60.95 121.508 45.65 121.508H18.2C12.1 121.508 8.3 120.258 6.8 117.758C5.6 115.658 5 112.458 5 108.158V24.7578C5 22.3578 5.05 20.6078 5.15 19.5078C5.35 18.4078 5.85 17.1078 6.65 15.6078C8.05 12.9078 11.95 11.5578 18.35 11.5578ZM46.1 94.9578C53.3 94.9578 59.8 92.3078 65.6 87.0078C71.4 81.6078 74.3 74.8578 74.3 66.7578C74.3 58.6578 71.45 51.9078 65.75 46.5078C60.15 41.0078 53.55 38.2578 45.95 38.2578H31.55V94.9578H46.1Z" fill="white"/>
<path d="M148.555 143.108V55.5078C148.555 53.2078 148.605 51.5078 148.705 50.4078C148.905 49.3078 149.355 48.0578 150.055 46.6578C151.455 43.9578 154.805 42.6078 160.105 42.6078C165.405 42.6078 168.955 43.3078 170.755 44.7078C172.655 46.0078 173.755 47.9578 174.055 50.5578C177.855 45.3578 183.805 42.7578 191.905 42.7578C200.105 42.7578 207.855 46.6078 215.155 54.3078C222.455 62.0078 226.105 70.9578 226.105 81.1578C226.105 91.3578 222.455 100.308 215.155 108.008C207.955 115.708 200.255 119.558 192.055 119.558C183.855 119.558 177.905 117.258 174.205 112.658V142.958C174.205 145.258 174.105 146.958 173.905 148.058C173.805 149.158 173.355 150.408 172.555 151.808C171.855 153.308 170.605 154.358 168.805 154.958C167.005 155.558 164.555 155.858 161.455 155.858C158.355 155.858 155.855 155.558 153.955 154.958C152.155 154.358 150.855 153.358 150.055 151.958C149.355 150.558 148.905 149.308 148.705 148.208C148.605 147.108 148.555 145.408 148.555 143.108ZM178.255 72.4578C175.955 75.1578 174.805 78.1078 174.805 81.3078C174.805 84.5078 175.955 87.4578 178.255 90.1578C180.655 92.7578 183.655 94.0578 187.255 94.0578C190.955 94.0578 194.055 92.7578 196.555 90.1578C199.155 87.5578 200.455 84.6078 200.455 81.3078C200.455 78.0078 199.255 75.0578 196.855 72.4578C194.455 69.7578 191.305 68.4078 187.405 68.4078C183.605 68.4078 180.555 69.7578 178.255 72.4578Z" fill="white"/>
<path d="M235.859 18.6078C235.859 16.3078 235.909 14.6078 236.009 13.5078C236.209 12.3078 236.659 10.9578 237.359 9.45784C238.759 6.75784 242.659 5.40784 249.059 5.40784C255.159 5.40784 258.959 6.75784 260.459 9.45784C261.259 10.9578 261.709 12.3078 261.809 13.5078C262.009 14.7078 262.109 16.4578 262.109 18.7578V88.2078C262.109 91.8078 262.409 94.1078 263.009 95.1078C263.609 96.0078 264.909 96.4578 266.909 96.4578C269.009 96.4578 270.409 96.5578 271.109 96.7578C271.809 96.8578 272.659 97.2578 273.659 97.9578C275.659 99.2578 276.659 102.808 276.659 108.608C276.659 114.908 275.659 118.758 273.659 120.158C271.059 121.958 264.859 122.258 255.059 121.058C247.359 120.058 242.359 117.508 240.059 113.408C237.259 108.508 235.859 100.708 235.859 90.0078V18.6078Z" fill="white"/>
<path d="M282.682 82.2078C282.682 70.2078 286.882 60.3078 295.282 52.5078C303.682 44.7078 313.282 40.8078 324.082 40.8078C334.882 40.8078 344.432 44.7078 352.732 52.5078C361.032 60.2078 365.182 70.0578 365.182 82.0578C365.182 90.3578 363.032 97.7579 358.732 104.258C354.432 110.658 349.182 115.408 342.982 118.508C336.882 121.508 330.532 123.008 323.932 123.008C317.332 123.008 310.932 121.408 304.732 118.208C298.532 114.908 293.282 110.108 288.982 103.808C284.782 97.4078 282.682 90.2078 282.682 82.2078ZM314.032 93.0078C317.232 95.4078 320.482 96.6078 323.782 96.6078C327.082 96.6078 330.382 95.3578 333.682 92.8578C336.982 90.3578 338.632 86.6578 338.632 81.7578C338.632 76.8578 337.082 73.2078 333.982 70.8078C330.882 68.4078 327.532 67.2078 323.932 67.2078C320.332 67.2078 316.982 68.4578 313.882 70.9578C310.782 73.4578 309.232 77.1578 309.232 82.0578C309.232 86.8578 310.832 90.5078 314.032 93.0078Z" fill="white"/>
<path d="M400.673 53.1078C405.373 46.0078 411.023 42.4578 417.623 42.4578C427.823 42.4578 435.423 46.8078 440.423 55.5078C441.523 54.0078 442.823 52.4578 444.323 50.8578C445.923 49.1578 448.423 47.3578 451.823 45.4578C455.223 43.4578 458.723 42.4578 462.323 42.4578C470.323 42.4578 477.023 45.5578 482.423 51.7578C487.823 57.8578 490.523 68.0078 490.523 82.2078V108.458C490.523 110.758 490.423 112.508 490.223 113.708C490.123 114.808 489.673 116.108 488.873 117.608C487.573 120.308 483.723 121.658 477.323 121.658C471.023 121.658 467.173 120.258 465.773 117.458C465.073 115.958 464.623 114.658 464.423 113.558C464.323 112.358 464.273 110.608 464.273 108.308V82.0578C464.273 73.3578 461.173 69.0078 454.973 69.0078C451.473 69.0078 449.073 70.1578 447.773 72.4578C446.573 74.7578 445.973 78.0078 445.973 82.2078V108.458C445.973 110.858 445.873 112.608 445.673 113.708C445.573 114.808 445.123 116.108 444.323 117.608C442.923 120.308 439.023 121.658 432.623 121.658C426.323 121.658 422.473 120.258 421.073 117.458C420.373 115.958 419.923 114.658 419.723 113.558C419.623 112.358 419.573 110.608 419.573 108.308V82.0578C419.573 73.3578 416.473 69.0078 410.273 69.0078C404.273 69.0078 401.273 73.3578 401.273 82.0578V108.608C401.273 110.908 401.173 112.658 400.973 113.858C400.873 114.958 400.423 116.258 399.623 117.758C398.123 120.358 394.223 121.658 387.923 121.658C381.623 121.658 377.773 120.308 376.373 117.608C375.673 116.108 375.223 114.808 375.023 113.708C374.923 112.608 374.873 110.858 374.873 108.458V55.6578C374.873 53.3578 374.923 51.6578 375.023 50.5578C375.223 49.3578 375.723 48.0578 376.523 46.6578C378.023 43.9578 381.573 42.6078 387.173 42.6078C392.773 42.6078 396.423 43.5078 398.123 45.3078C399.823 47.1078 400.673 49.7078 400.673 53.1078Z" fill="white"/>
<path d="M553.761 51.0078C554.361 45.4078 558.311 42.6078 565.611 42.6078C569.511 42.6078 572.411 42.9078 574.311 43.5078C576.211 44.1078 577.511 45.1578 578.211 46.6578C579.011 48.1578 579.461 49.5078 579.561 50.7078C579.761 51.8078 579.861 53.5078 579.861 55.8078V108.308C579.861 110.608 579.761 112.358 579.561 113.558C579.461 114.658 579.061 115.958 578.361 117.458C576.961 120.058 573.511 121.358 568.011 121.358C562.611 121.358 558.961 120.708 557.061 119.408C555.261 118.008 554.211 116.008 553.911 113.408C550.211 118.708 544.011 121.358 535.311 121.358C526.711 121.358 518.711 117.408 511.311 109.508C503.911 101.608 500.211 92.4578 500.211 82.0578C500.211 71.5578 503.911 62.4078 511.311 54.6078C518.811 46.7078 527.011 42.7578 535.911 42.7578C539.311 42.7578 542.411 43.3578 545.211 44.5578C548.011 45.7578 549.961 46.9078 551.061 48.0078C552.161 49.0078 553.061 50.0078 553.761 51.0078ZM526.461 82.2078C526.461 85.5078 527.761 88.5078 530.361 91.2078C532.961 93.8078 536.111 95.1078 539.811 95.1078C543.511 95.1078 546.561 93.7578 548.961 91.0578C551.461 88.3578 552.711 85.4078 552.711 82.2078C552.711 78.9078 551.511 75.8578 549.111 73.0578C546.811 70.2578 543.661 68.8578 539.661 68.8578C535.761 68.8578 532.561 70.2578 530.061 73.0578C527.661 75.8578 526.461 78.9078 526.461 82.2078Z" fill="white"/>
<path d="M741.195 43.5078C747.095 46.1078 750.045 49.2578 750.045 52.9578C750.045 54.7578 749.645 56.4578 748.845 58.0578C748.045 59.6578 747.645 60.5078 747.645 60.6078L708.345 148.508C707.545 150.408 706.845 151.858 706.245 152.858C705.745 153.858 704.895 154.808 703.695 155.708C702.495 156.608 700.995 157.058 699.195 157.058C697.395 157.058 694.745 156.308 691.245 154.808C685.345 152.208 682.395 149.108 682.395 145.508C682.395 143.108 687.195 131.658 696.795 111.158L666.945 60.9078C664.945 57.6078 663.945 55.1578 663.945 53.5578C663.945 50.3578 666.645 47.1578 672.045 43.9578C675.445 41.9578 678.095 40.9578 679.995 40.9578C681.895 40.9578 683.445 41.3578 684.645 42.1578C685.845 42.9578 686.695 43.8078 687.195 44.7078C687.795 45.5078 690.545 50.1578 695.445 58.6578C700.445 67.0578 705.195 74.9078 709.695 82.2078C710.195 80.6078 712.895 74.4578 717.795 63.7578C722.695 52.9578 725.295 47.2078 725.595 46.5078C725.995 45.8078 726.595 44.9578 727.395 43.9578C728.695 42.2578 730.495 41.4078 732.795 41.4078C735.195 41.4078 737.995 42.1078 741.195 43.5078Z" fill="white"/>
<path fill-rule="evenodd" clip-rule="evenodd" d="M18.35 6.55784L18.377 6.55791L46.1135 6.70784C61.9578 6.71113 75.9193 12.5016 87.7941 23.8332C99.7991 35.1876 105.85 49.354 105.85 66.0078C105.85 82.5361 99.9224 96.8441 88.2099 108.669C76.5694 120.523 62.2856 126.508 45.65 126.508H18.2C14.8674 126.508 11.8082 126.174 9.21262 125.32C6.59705 124.46 4.0767 122.937 2.51254 120.33C2.49429 120.3 2.47637 120.269 2.45878 120.239C0.608776 117.001 0 112.745 0 108.158V24.7578C0 22.3393 0.0485941 20.3965 0.170533 19.0552C0.183994 18.9071 0.204053 18.7597 0.230651 18.6134C0.556812 16.8195 1.30114 15.0154 2.22629 13.2773C3.70254 10.4526 6.27843 8.78384 8.98945 7.84541C11.6723 6.91672 14.8651 6.55784 18.35 6.55784ZM6.65 15.6078C5.85 17.1078 5.35 18.4078 5.15 19.5078C5.05 20.6078 5 22.3578 5 24.7578V108.158C5 112.458 5.6 115.658 6.8 117.758C8.3 120.258 12.1 121.508 18.2 121.508H45.65C60.95 121.508 73.95 116.058 84.65 105.158C95.45 94.2578 100.85 81.2078 100.85 66.0078C100.85 50.7078 95.35 37.8578 84.35 27.4578C73.35 16.9578 60.6 11.7078 46.1 11.7078L18.35 11.5578C11.95 11.5578 8.05 12.9078 6.65 15.6078ZM65.75 46.5078C60.15 41.0078 53.55 38.2578 45.95 38.2578H31.55V94.9578H46.1C53.3 94.9578 59.8 92.3078 65.6 87.0078C71.4 81.6078 74.3 74.8578 74.3 66.7578C74.3 58.6578 71.45 51.9078 65.75 46.5078ZM62.2098 83.3327C57.2449 87.8631 51.9265 89.9578 46.1 89.9578H36.55V43.2578H45.95C52.1924 43.2578 57.5473 45.4598 62.2465 50.0751C62.253 50.0815 62.2596 50.088 62.2662 50.0944C62.2812 50.1089 62.2962 50.1233 62.3113 50.1376C66.9796 54.5602 69.3 59.9818 69.3 66.7578C69.3 73.4967 66.9573 78.9049 62.2098 83.3327ZM143.725 49.9552C143.739 49.8071 143.759 49.6597 143.785 49.5134C144.096 47.8027 144.748 46.0902 145.583 44.4218C145.594 44.3999 145.605 44.378 145.616 44.3563C148.38 39.0248 154.375 37.6078 160.105 37.6078C162.944 37.6078 165.506 37.7929 167.709 38.2273C169.797 38.6389 171.945 39.3462 173.696 40.6631C174.377 41.1401 174.99 41.6663 175.538 42.2357C180.025 39.1706 185.599 37.7578 191.905 37.7578C201.851 37.7578 210.831 42.4801 218.783 50.8678C225.785 58.2528 229.856 66.8056 230.859 76.3927V18.6078C230.859 16.2817 230.908 14.3929 231.03 13.0552C231.041 12.9315 231.057 12.8083 231.077 12.6858C231.373 10.911 232.001 9.11714 232.828 7.34341C232.858 7.28039 232.889 7.21799 232.921 7.15625C234.394 4.31404 236.979 2.63704 239.699 1.69541C242.382 0.766718 245.574 0.407837 249.059 0.407837C252.418 0.407837 255.52 0.771439 258.158 1.70883C260.847 2.66408 263.327 4.32473 264.83 7.02962C264.84 7.04795 264.85 7.06634 264.86 7.08479L264.871 7.10489C265.835 8.91181 266.566 10.8582 266.772 12.8778C267.018 14.4633 267.109 16.4724 267.109 18.7578V88.2078C267.109 89.5752 267.157 90.6473 267.234 91.4585C268.984 91.4658 270.78 91.5378 272.147 91.8626C273.831 92.1773 275.31 93.0167 276.466 93.8195C278.858 95.4128 280.073 97.934 280.722 100.24C281.396 102.633 281.659 105.479 281.659 108.608C281.659 111.966 281.399 114.975 280.749 117.477C280.126 119.877 278.951 122.557 276.527 124.254L276.505 124.269C273.995 126.007 270.59 126.568 267.301 126.727C263.802 126.896 259.49 126.638 254.452 126.021L254.415 126.016C246.174 124.946 239.177 122.036 235.709 115.872C232.247 109.802 230.859 100.916 230.859 90.0078V85.923C229.857 95.5047 225.789 104.053 218.795 111.435C210.938 119.833 202.003 124.558 192.055 124.558C187.328 124.558 182.985 123.862 179.205 122.324V142.958C179.205 145.21 179.117 147.205 178.86 148.744C178.643 150.658 177.912 152.475 176.989 154.124C175.605 156.939 173.213 158.759 170.386 159.701C167.856 160.545 164.797 160.858 161.455 160.858C158.094 160.858 155.028 160.54 152.449 159.726C152.424 159.718 152.399 159.71 152.374 159.701C149.625 158.785 147.229 157.091 145.713 154.439C145.678 154.376 145.643 154.312 145.61 154.248C145.601 154.23 145.592 154.212 145.583 154.194C144.748 152.525 144.096 150.813 143.785 149.102C143.759 148.956 143.739 148.809 143.725 148.661C143.604 147.323 143.555 145.434 143.555 143.108V55.5078C143.555 53.1817 143.604 51.2929 143.725 49.9552ZM172.555 151.808C173.355 150.408 173.805 149.158 173.905 148.058C174.105 146.958 174.205 145.258 174.205 142.958V112.658C175.567 114.351 177.233 115.732 179.205 116.802C182.59 118.639 186.873 119.558 192.055 119.558C200.255 119.558 207.955 115.708 215.155 108.008C222.455 100.308 226.105 91.3578 226.105 81.1578C226.105 70.9578 222.455 62.0078 215.155 54.3078C207.855 46.6078 200.105 42.7578 191.905 42.7578C186.307 42.7578 181.737 43.9994 178.193 46.4826C176.608 47.5928 175.229 48.9512 174.055 50.5578C173.811 48.4472 173.04 46.7649 171.742 45.5109C171.442 45.2202 171.112 44.9525 170.755 44.7078C168.955 43.3078 165.405 42.6078 160.105 42.6078C154.805 42.6078 151.455 43.9578 150.055 46.6578C149.355 48.0578 148.905 49.3078 148.705 50.4078C148.605 51.5078 148.555 53.2078 148.555 55.5078V143.108C148.555 145.408 148.605 147.108 148.705 148.208C148.905 149.308 149.355 150.558 150.055 151.958C150.855 153.358 152.155 154.358 153.955 154.958C155.855 155.558 158.355 155.858 161.455 155.858C164.555 155.858 167.005 155.558 168.805 154.958C170.605 154.358 171.855 153.308 172.555 151.808ZM240.059 113.408C242.359 117.508 247.359 120.058 255.059 121.058C264.859 122.258 271.059 121.958 273.659 120.158C275.659 118.758 276.659 114.908 276.659 108.608C276.659 102.808 275.659 99.2578 273.659 97.9578C272.659 97.2578 271.809 96.8578 271.109 96.7578C270.409 96.5578 269.009 96.4578 266.909 96.4578C264.909 96.4578 263.609 96.0078 263.009 95.1078C262.409 94.1078 262.109 91.8078 262.109 88.2078V18.7578C262.109 16.4578 262.009 14.7078 261.809 13.5078C261.709 12.3078 261.259 10.9578 260.459 9.45784C258.959 6.75784 255.159 5.40784 249.059 5.40784C242.659 5.40784 238.759 6.75784 237.359 9.45784C236.659 10.9578 236.209 12.3078 236.009 13.5078C235.909 14.6078 235.859 16.3078 235.859 18.6078V90.0078C235.859 100.708 237.259 108.508 240.059 113.408ZM192.997 86.6447C193.004 86.6372 193.012 86.6298 193.019 86.6223C194.799 84.8428 195.455 83.1247 195.455 81.3078C195.455 79.3606 194.795 77.5986 193.181 75.8492C193.159 75.8262 193.138 75.8031 193.118 75.7797C191.748 74.2392 190.004 73.4078 187.405 73.4078C184.951 73.4078 183.336 74.2028 182.061 75.7002C180.442 77.6006 179.805 79.4271 179.805 81.3078C179.805 83.1627 180.425 84.9649 181.995 86.8371C183.414 88.3432 185.057 89.0578 187.255 89.0578C189.634 89.0578 191.42 88.2838 192.951 86.6923C192.966 86.6763 192.981 86.6605 192.997 86.6447ZM362.902 107.017L362.882 107.046C358.155 114.081 352.275 119.451 345.218 122.98L345.188 122.995C338.423 126.322 331.32 128.008 323.932 128.008C316.488 128.008 309.306 126.195 302.438 122.651C302.42 122.641 302.401 122.631 302.382 122.622C295.408 118.91 289.568 113.536 284.852 106.627C284.835 106.602 284.818 106.576 284.801 106.551C280.042 99.2983 277.682 91.1363 277.682 82.2078C277.682 68.8909 282.408 57.6388 291.879 48.8439C301.142 40.2429 311.937 35.8078 324.082 35.8078C336.224 35.8078 346.975 40.2417 356.145 48.8537C364.13 56.2668 368.693 65.4921 369.873 76.2741V55.6578C369.873 53.3317 369.922 51.4429 370.044 50.1052C370.055 49.9815 370.071 49.8583 370.091 49.7358C370.413 47.8057 371.171 45.9502 372.168 44.2011C375.096 38.9664 381.251 37.6078 387.173 37.6078C390.2 37.6078 392.95 37.847 395.308 38.4282C397.615 38.9972 399.99 40.0027 401.758 41.8747C402.129 42.2671 402.469 42.6759 402.78 43.0995C407.009 39.4875 411.955 37.4578 417.623 37.4578C427.146 37.4578 434.967 40.8061 440.742 47.3674C442.836 45.1629 445.801 43.0987 449.337 41.1192C453.416 38.7304 457.766 37.4578 462.323 37.4578C471.807 37.4578 479.862 41.2127 486.179 48.4577C492.074 55.1256 494.88 65.1186 495.424 77.5292C496.374 67.578 500.498 58.7406 507.684 51.1665L507.685 51.1653C515.902 42.5097 525.342 37.7578 535.911 37.7578C539.909 37.7578 543.69 38.466 547.181 39.9621C548.978 40.7325 550.681 41.5763 552.145 42.5285C552.767 41.8354 553.478 41.1989 554.282 40.6287C557.432 38.3956 561.421 37.6078 565.611 37.6078C569.631 37.6078 573.161 37.9013 575.817 38.7399C578.715 39.6551 581.256 41.4652 582.68 44.4125C583.61 46.1787 584.313 48.076 584.52 50.0433C584.774 51.579 584.861 53.5661 584.861 55.8078V108.308C584.861 110.602 584.769 112.618 584.521 114.206C584.324 116.028 583.698 117.845 582.892 119.572C582.868 119.624 582.843 119.675 582.817 119.725C582.8 119.76 582.782 119.794 582.763 119.828C579.937 125.078 573.769 126.358 568.011 126.358C565.137 126.358 562.559 126.187 560.347 125.793C558.201 125.411 556.022 124.756 554.238 123.534C554.154 123.477 554.071 123.417 553.991 123.355C553.393 122.889 552.85 122.386 552.361 121.849C547.751 124.966 541.917 126.358 535.311 126.358C524.989 126.358 515.747 121.557 507.662 112.926C500.726 105.522 496.637 97.0008 495.523 87.4849V108.458C495.523 110.754 495.431 112.771 495.183 114.359C494.971 116.285 494.238 118.158 493.327 119.881C491.908 122.741 489.345 124.424 486.665 125.364C483.995 126.3 480.804 126.658 477.323 126.658C473.87 126.658 470.687 126.283 468.002 125.307C465.257 124.309 462.732 122.557 461.301 119.694C461.281 119.654 461.261 119.613 461.242 119.572C460.439 117.851 459.808 116.123 459.504 114.452C459.475 114.294 459.454 114.134 459.44 113.973C459.323 112.562 459.273 110.646 459.273 108.308V82.0578C459.273 78.1504 458.55 76.1171 457.876 75.1721C457.425 74.5389 456.754 74.0078 454.973 74.0078C452.817 74.0078 452.331 74.5776 452.166 74.8479C451.518 76.139 450.973 78.4455 450.973 82.2078V108.458C450.973 110.791 450.886 112.843 450.629 114.393C450.41 116.328 449.667 118.209 448.747 119.938C447.27 122.763 444.695 124.432 441.984 125.37C439.301 126.299 436.108 126.658 432.623 126.658C429.17 126.658 425.987 126.283 423.302 125.307C420.557 124.309 418.032 122.557 416.601 119.694C416.581 119.654 416.561 119.613 416.542 119.572C415.739 117.851 415.108 116.123 414.804 114.452C414.775 114.294 414.754 114.134 414.74 113.973C414.623 112.562 414.573 110.646 414.573 108.308V82.0578C414.573 78.1504 413.85 76.1171 413.176 75.1721C412.725 74.5389 412.054 74.0078 410.273 74.0078C408.658 74.0078 408.068 74.4871 407.639 75.109C406.979 76.0665 406.273 78.1277 406.273 82.0578V108.608C406.273 110.904 406.181 112.921 405.933 114.509C405.718 116.464 404.966 118.366 404.035 120.111C404.009 120.16 403.982 120.208 403.954 120.256C402.399 122.953 399.833 124.533 397.154 125.426C394.499 126.311 391.356 126.658 387.923 126.658C384.482 126.658 381.32 126.298 378.656 125.364C375.948 124.414 373.397 122.731 371.934 119.909C371.902 119.848 371.872 119.785 371.842 119.722C371.039 118.001 370.408 116.273 370.104 114.602C370.077 114.456 370.057 114.309 370.044 114.161C369.922 112.819 369.873 110.876 369.873 108.458V87.662C369.083 94.6902 366.771 101.168 362.902 107.017ZM400.973 113.858C401.173 112.658 401.273 110.908 401.273 108.608V82.0578C401.273 73.3578 404.273 69.0078 410.273 69.0078C416.473 69.0078 419.573 73.3578 419.573 82.0578V108.308C419.573 110.608 419.623 112.358 419.723 113.558C419.923 114.658 420.373 115.958 421.073 117.458C422.473 120.258 426.323 121.658 432.623 121.658C439.023 121.658 442.923 120.308 444.323 117.608C445.123 116.108 445.573 114.808 445.673 113.708C445.873 112.608 445.973 110.858 445.973 108.458V82.2078C445.973 78.0078 446.573 74.7578 447.773 72.4578C449.073 70.1578 451.473 69.0078 454.973 69.0078C461.173 69.0078 464.273 73.3578 464.273 82.0578V108.308C464.273 110.608 464.323 112.358 464.423 113.558C464.623 114.658 465.073 115.958 465.773 117.458C467.173 120.258 471.023 121.658 477.323 121.658C483.723 121.658 487.573 120.308 488.873 117.608C489.673 116.108 490.123 114.808 490.223 113.708C490.423 112.508 490.523 110.758 490.523 108.458V82.2078C490.523 68.0078 487.823 57.8578 482.423 51.7578C477.023 45.5578 470.323 42.4578 462.323 42.4578C458.723 42.4578 455.223 43.4578 451.823 45.4578C448.423 47.3578 445.923 49.1578 444.323 50.8578C444.144 51.049 443.967 51.2395 443.794 51.4293C442.515 52.8276 441.392 54.1871 440.423 55.5078C439.512 53.9229 438.515 52.4823 437.431 51.1861C432.568 45.3673 425.965 42.4578 417.623 42.4578C412.943 42.4578 408.74 44.2432 405.015 47.8138C403.487 49.2782 402.04 51.0429 400.673 53.1078C400.673 50.5197 400.181 48.3951 399.195 46.7341C398.886 46.2131 398.529 45.7377 398.123 45.3078C396.423 43.5078 392.773 42.6078 387.173 42.6078C381.573 42.6078 378.023 43.9578 376.523 46.6578C375.723 48.0578 375.223 49.3578 375.023 50.5578C374.923 51.6578 374.873 53.3578 374.873 55.6578V108.458C374.873 110.858 374.923 112.608 375.023 113.708C375.223 114.808 375.673 116.108 376.373 117.608C377.773 120.308 381.623 121.658 387.923 121.658C394.223 121.658 398.123 120.358 399.623 117.758C400.423 116.258 400.873 114.958 400.973 113.858ZM549.777 117.554C551.392 116.424 552.77 115.042 553.911 113.408C554.156 115.536 554.904 117.262 556.154 118.586C556.432 118.879 556.734 119.154 557.061 119.408C558.961 120.708 562.611 121.358 568.011 121.358C573.511 121.358 576.961 120.058 578.361 117.458C579.061 115.958 579.461 114.658 579.561 113.558C579.761 112.358 579.861 110.608 579.861 108.308V55.8078C579.861 53.5078 579.761 51.8078 579.561 50.7078C579.461 49.5078 579.011 48.1578 578.211 46.6578C577.511 45.1578 576.211 44.1078 574.311 43.5078C572.411 42.9078 569.511 42.6078 565.611 42.6078C561.116 42.6078 557.891 43.6694 555.937 45.7924C554.717 47.1175 553.992 48.8559 553.761 51.0078C553.061 50.0078 552.161 49.0078 551.061 48.0078C550.678 47.6249 550.192 47.236 549.603 46.841C548.5 46.1012 547.036 45.3401 545.211 44.5578C542.411 43.3578 539.311 42.7578 535.911 42.7578C527.011 42.7578 518.811 46.7078 511.311 54.6078C503.911 62.4078 500.211 71.5578 500.211 82.0578C500.211 92.4578 503.911 101.608 511.311 109.508C518.711 117.408 526.711 121.358 535.311 121.358C541.329 121.358 546.151 120.09 549.777 117.554ZM352.732 52.5078C344.432 44.7078 334.882 40.8078 324.082 40.8078C313.282 40.8078 303.682 44.7078 295.282 52.5078C286.882 60.3078 282.682 70.2078 282.682 82.2078C282.682 90.2078 284.782 97.4078 288.982 103.808C293.282 110.108 298.532 114.908 304.732 118.208C310.932 121.408 317.332 123.008 323.932 123.008C330.532 123.008 336.882 121.508 342.982 118.508C349.182 115.408 354.432 110.658 358.732 104.258C363.032 97.7578 365.182 90.3578 365.182 82.0578C365.182 70.0578 361.032 60.2078 352.732 52.5078ZM317.074 89.0393C319.579 90.9077 321.788 91.6078 323.782 91.6078C325.74 91.6078 328.007 90.8842 330.662 88.8724C332.477 87.4974 333.632 85.4164 333.632 81.7578C333.632 77.9785 332.496 75.981 330.921 74.7615C328.614 72.9756 326.323 72.2078 323.932 72.2078C321.596 72.2078 319.332 72.9859 317.02 74.8499C315.367 76.1837 314.232 78.2865 314.232 82.0578C314.232 85.6082 315.335 87.6648 317.074 89.0393ZM314.032 93.0078C317.232 95.4078 320.482 96.6078 323.782 96.6078C327.082 96.6078 330.382 95.3578 333.682 92.8578C336.982 90.3578 338.632 86.6578 338.632 81.7578C338.632 76.8578 337.082 73.2078 333.982 70.8078C330.882 68.4078 327.532 67.2078 323.932 67.2078C320.332 67.2078 316.982 68.4578 313.882 70.9578C310.782 73.4578 309.232 77.1578 309.232 82.0578C309.232 86.8578 310.832 90.5078 314.032 93.0078ZM545.275 76.2644L545.247 76.2315C544.004 74.7174 542.341 73.8578 539.661 73.8578C537.14 73.8578 535.327 74.6845 533.823 76.3515C532.128 78.3448 531.461 80.2562 531.461 82.2078C531.461 84.0247 532.12 85.8122 533.929 87.7045C535.577 89.3381 537.443 90.1078 539.811 90.1078C542.122 90.1078 543.799 89.3394 545.224 87.736C545.246 87.7107 545.269 87.6856 545.292 87.6608C547.074 85.7365 547.711 83.9595 547.711 82.2078C547.711 80.2433 547.035 78.3194 545.315 76.3118C545.301 76.2961 545.288 76.2803 545.275 76.2644ZM743.199 38.9271L743.212 38.9324C749.489 41.6985 755.045 46.0782 755.045 52.9578C755.045 55.529 754.467 57.9951 753.317 60.2939C752.922 61.084 752.644 61.6541 752.469 62.0243C752.43 62.1089 752.399 62.1742 752.377 62.2228C752.328 62.367 752.272 62.5091 752.21 62.6487L712.932 150.499C712.138 152.381 711.368 154.01 710.623 155.279C709.677 157.082 708.261 158.534 706.695 159.708C704.467 161.379 701.855 162.058 699.195 162.058C696.309 162.058 692.858 160.939 689.276 159.404L689.229 159.383C683.025 156.649 677.395 152.333 677.395 145.508C677.395 144.551 677.606 143.606 677.778 142.937C677.975 142.174 678.247 141.309 678.571 140.374C679.221 138.498 680.167 136.09 681.384 133.187C683.63 127.829 686.889 120.571 691.146 111.438L662.669 63.4994C662.665 63.4926 662.661 63.4859 662.657 63.4792C661.582 61.7042 660.697 60.0294 660.066 58.4848C659.46 57.0011 658.945 55.2934 658.945 53.5578C658.945 47.4206 663.971 42.9306 669.496 39.6564L669.51 39.6482C673.015 37.5864 676.663 35.9578 679.995 35.9578C682.574 35.9578 685.174 36.5009 687.419 37.9976C688.951 39.0191 690.403 40.3232 691.411 42.0105C691.963 42.8155 692.879 44.3348 694.012 46.2501C695.398 48.5937 697.315 51.8904 699.761 56.132C702.901 61.4085 705.942 66.4658 708.884 71.3038C710.07 68.6493 711.526 65.44 713.248 61.6795C718.166 50.8387 720.727 45.174 721 44.5382C721.075 44.3632 721.16 44.1925 721.254 44.0271C721.828 43.0225 722.593 41.959 723.46 40.8728C725.783 37.8648 729.092 36.4078 732.795 36.4078C736.125 36.4078 739.632 37.3662 743.199 38.9271ZM727.395 43.9578C726.595 44.9578 725.995 45.8078 725.595 46.5078C725.295 47.2078 722.695 52.9578 717.795 63.7578C715.319 69.1653 713.405 73.4107 712.052 76.4941C710.728 79.5118 709.943 81.4164 709.695 82.2078C708.622 80.4661 707.534 78.6931 706.432 76.8887C702.914 71.1306 699.252 65.0537 695.445 58.6578C690.545 50.1578 687.795 45.5078 687.195 44.7078C686.695 43.8078 685.845 42.9578 684.645 42.1578C683.445 41.3578 681.895 40.9578 679.995 40.9578C678.095 40.9578 675.445 41.9578 672.045 43.9578C666.645 47.1578 663.945 50.3578 663.945 53.5578C663.945 55.1578 664.945 57.6078 666.945 60.9078L696.795 111.158C687.195 131.658 682.395 143.108 682.395 145.508C682.395 149.108 685.345 152.208 691.245 154.808C694.745 156.308 697.395 157.058 699.195 157.058C700.995 157.058 702.495 156.608 703.695 155.708C704.895 154.808 705.745 153.858 706.245 152.858C706.845 151.858 707.545 150.408 708.345 148.508L747.645 60.6078C747.645 60.5078 748.045 59.6578 748.845 58.0578C749.645 56.4578 750.045 54.7578 750.045 52.9578C750.045 49.2578 747.095 46.1078 741.195 43.5078C737.995 42.1078 735.195 41.4078 732.795 41.4078C730.495 41.4078 728.695 42.2578 727.395 43.9578ZM174.805 81.3078C174.805 78.1078 175.955 75.1578 178.255 72.4578C180.555 69.7578 183.605 68.4078 187.405 68.4078C191.305 68.4078 194.455 69.7578 196.855 72.4578C199.255 75.0578 200.455 78.0078 200.455 81.3078C200.455 84.6078 199.155 87.5578 196.555 90.1578C194.055 92.7578 190.955 94.0578 187.255 94.0578C183.655 94.0578 180.655 92.7578 178.255 90.1578C175.955 87.4578 174.805 84.5078 174.805 81.3078ZM530.361 91.2078C527.761 88.5078 526.461 85.5078 526.461 82.2078C526.461 78.9078 527.661 75.8578 530.061 73.0578C532.561 70.2578 535.761 68.8578 539.661 68.8578C543.661 68.8578 546.811 70.2578 549.111 73.0578C551.511 75.8578 552.711 78.9078 552.711 82.2078C552.711 85.4078 551.461 88.3578 548.961 91.0578C546.561 93.7578 543.511 95.1078 539.811 95.1078C536.111 95.1078 532.961 93.8078 530.361 91.2078Z" fill="black"/>
<path fill-rule="evenodd" clip-rule="evenodd" d="M647.822 133.931V37.988H651.59V133.931H647.822Z" fill="white"/>
<path fill-rule="evenodd" clip-rule="evenodd" d="M616.507 46.6083C625.287 40.2232 636.559 36.5199 651.283 33.6724L652.952 42.3037C638.641 45.0713 628.889 48.4734 621.678 53.718C614.585 58.8763 609.536 66.1261 605.283 77.4558C603.174 83.0743 603.174 89.3141 605.283 94.9326C609.536 106.262 614.585 113.512 621.678 118.67C628.889 123.915 638.641 127.317 652.952 130.085L651.283 138.716C636.559 135.868 625.287 132.165 616.507 125.78C607.609 119.309 601.701 110.405 597.053 98.0222C594.196 90.4118 594.196 81.9766 597.053 74.3662C601.701 61.9838 607.609 53.0797 616.507 46.6083Z" fill="#473514"/>
<path fill-rule="evenodd" clip-rule="evenodd" d="M594.206 79.9933C595.649 73.7034 597.313 69.1047 600.747 62.8663L610.649 68.3167C607.744 73.5942 606.443 77.2035 605.222 82.5216C604.684 84.8692 604.684 87.3179 605.222 89.6655C606.443 94.9836 607.744 98.5928 610.649 103.87L600.747 109.321C597.313 103.082 595.649 98.4837 594.206 92.1937C593.285 88.1823 593.285 84.0048 594.206 79.9933Z" fill="#9A0101"/>
<path d="M127.808 60.54H119.217V23.6783H127.808L127.808 60.54Z" fill="#B87D26"/>
<path fill-rule="evenodd" clip-rule="evenodd" d="M120.506 59.1577H126.52L126.52 25.0606H120.506V59.1577ZM127.808 60.54L127.808 23.6783H119.217V60.54H127.808Z" fill="black"/>
<path d="M113.256 20.4811C113.256 14.3892 117.86 9.45079 123.539 9.45079C129.218 9.45079 133.822 14.3892 133.822 20.4811C133.822 26.573 129.218 31.5114 123.539 31.5114C117.86 31.5114 113.256 26.573 113.256 20.4811Z" fill="#855C1F"/>
<path fill-rule="evenodd" clip-rule="evenodd" d="M123.539 10.8331C118.572 10.8331 114.545 15.1527 114.545 20.4811C114.545 25.8095 118.572 30.1291 123.539 30.1291C128.507 30.1291 132.533 25.8095 132.533 20.4811C132.533 15.1527 128.507 10.8331 123.539 10.8331ZM123.539 9.45079C117.86 9.45079 113.256 14.3892 113.256 20.4811C113.256 26.573 117.86 31.5114 123.539 31.5114C129.218 31.5114 133.822 26.573 133.822 20.4811C133.822 14.3892 129.218 9.45079 123.539 9.45079Z" fill="black"/>
<path d="M129.711 145.33L123.662 157.658L117.614 145.33L117.614 59.283H123.662H129.711L129.711 145.33Z" fill="#CDD5E2"/>
<path fill-rule="evenodd" clip-rule="evenodd" d="M123.018 153.377L123.018 60.6653H118.902L118.902 144.988L123.018 153.377ZM117.614 145.33L117.614 59.283H129.711L129.711 145.33L123.662 157.658L117.614 145.33ZM124.307 153.377L124.307 60.6653H128.422L128.422 144.988L124.307 153.377Z" fill="black"/>
<path d="M138.302 60.6465C138.302 62.6174 136.813 64.2152 134.975 64.2152L111.99 64.2152C110.153 64.2152 108.663 62.6174 108.663 60.6465V60.6465C108.663 58.6756 110.153 57.0779 111.99 57.0779L134.975 57.0779C136.813 57.0779 138.302 58.6756 138.302 60.6465V60.6465Z" fill="#B87D26"/>
<path fill-rule="evenodd" clip-rule="evenodd" d="M111.99 62.8329L134.975 62.8329C136.101 62.8329 137.013 61.854 137.013 60.6465C137.013 59.4391 136.101 58.4602 134.975 58.4602L111.99 58.4602C110.864 58.4602 109.952 59.4391 109.952 60.6465C109.952 61.854 110.864 62.8329 111.99 62.8329ZM134.975 64.2152C136.813 64.2152 138.302 62.6174 138.302 60.6465C138.302 58.6756 136.813 57.0779 134.975 57.0779L111.99 57.0779C110.153 57.0779 108.663 58.6756 108.663 60.6465C108.663 62.6174 110.153 64.2152 111.99 64.2152L134.975 64.2152Z" fill="#0A0000"/>
</svg>
