<svg width="512" height="512" viewBox="0 0 512 512" fill="none" xmlns="http://www.w3.org/2000/svg">
<g clip-path="url(#clip0)">
<path d="M127 232L45 493H451L326 113L297 188L245 28L147 307L127 232Z" fill="#8A7D73" stroke="black" stroke-width="3"/>
<path d="M245 28L213.387 118L202.498 149L245 188L281.4 140L245 28Z" fill="white"/>
<path d="M326 113L311.5 150.5L326 177L340.803 158L326 113Z" fill="white"/>
<path d="M245 28L213.387 118L202.498 149L245 188L281.4 140L245 28Z" stroke="black" stroke-width="3"/>
<path d="M326 113L311.5 150.5L326 177L340.803 158L326 113Z" stroke="black" stroke-width="3"/>
<path d="M127 232L45 493H451L326 113L297 188L245 28L147 307L127 232Z" fill="#8A7D73"/>
<path fill-rule="evenodd" clip-rule="evenodd" d="M245.055 23.3167L297.123 183.524L326.114 108.546L453.072 494.5H42.9565L127.118 226.62L147.196 301.915L245.055 23.3167ZM244.945 32.6833L146.804 312.085L126.882 237.38L47.0436 491.5H448.927L325.886 117.454L296.877 192.476L244.945 32.6833Z" fill="black"/>
<path d="M245 28L213.387 118L202.498 149L245 188L281.4 140L245 28Z" fill="white"/>
<path d="M326 113L311.5 150.5L326 177L340.803 158L326 113Z" fill="white"/>
<path fill-rule="evenodd" clip-rule="evenodd" d="M245.055 23.3167L283.069 140.282L245.2 190.219L200.755 149.436L245.055 23.3167ZM244.945 32.6833L204.241 148.564L244.8 185.781L279.731 139.718L244.945 32.6833ZM326.114 108.546L342.477 158.291L325.78 179.723L309.85 150.609L326.114 108.546ZM313.15 150.391L326.22 174.277L339.128 157.709L325.886 117.454L313.15 150.391Z" fill="black"/>
</g>
<defs>
<clipPath id="clip0">
<rect width="512" height="512" fill="white"/>
</clipPath>
</defs>
</svg>
