<svg width="512" height="512" viewBox="0 0 512 512" fill="none" xmlns="http://www.w3.org/2000/svg">
<path d="M129.195 262.175L33.5 479H485L382.5 121L345.5 187L269 27.5L146 311.165L129.195 262.175Z" fill="#8A7D73"/>
<path fill-rule="evenodd" clip-rule="evenodd" d="M268.931 23.8881L345.604 183.748L382.951 117.127L486.99 480.5H31.1984L129.37 258.063L146.163 307.018L268.931 23.8881ZM269.069 31.1119L145.837 315.312L129.02 266.287L35.8016 477.5H483.01L382.049 124.873L345.396 190.252L269.069 31.1119Z" fill="black"/>
<path d="M233.174 112.294L269 27.5L313.845 121L345.5 187L364 154L382.5 121L394.251 162.043L375.47 176.111L364 154L345.5 187L313.845 121L269 154L233.174 112.294Z" fill="white"/>
<path fill-rule="evenodd" clip-rule="evenodd" d="M268.913 23.8509L345.604 183.748L382.951 117.127L395.978 162.623L374.953 178.373L363.949 157.159L345.396 190.252L313.275 123.281L268.769 156.033L231.431 112.566L268.913 23.8509ZM311.955 120.528L269.087 31.1491L234.918 112.022L269.231 151.967L311.955 120.528ZM365.704 154.028L375.987 173.85L392.524 161.462L382.049 124.873L365.704 154.028Z" fill="black"/>
</svg>
