<svg width="512" height="512" viewBox="0 0 512 512" fill="none" xmlns="http://www.w3.org/2000/svg">
<g clip-path="url(#clip0)">
<path d="M258.5 322.531C242.934 324.263 236.28 328.614 228.5 343.031V455.355C228.5 457.466 228.297 459.58 227.783 461.627C224.776 473.598 220.356 478.924 210.15 482.24C207.136 483.22 203.858 483.224 200.863 482.185C190.261 478.506 187.234 472.449 185.121 460.955C184.825 459.346 184.7 457.709 184.7 456.074V296.031H332.3V456.074C332.3 457.709 332.174 459.346 331.879 460.955C329.765 472.449 326.738 478.506 316.136 482.185C313.142 483.224 309.864 483.22 306.849 482.24C296.644 478.924 292.224 473.598 289.217 461.627C288.702 459.58 288.5 457.466 288.5 455.355V343.031C280.719 328.614 274.066 324.263 258.5 322.531Z" fill="#F1D791"/>
<path fill-rule="evenodd" clip-rule="evenodd" d="M185.121 460.955C184.825 459.346 184.7 457.709 184.7 456.074V296.031H332.3V456.074C332.3 457.709 332.174 459.346 331.879 460.955C329.765 472.449 326.738 478.506 316.136 482.185C313.142 483.224 309.864 483.22 306.849 482.24C296.644 478.924 292.224 473.598 289.217 461.627C288.702 459.58 288.5 457.466 288.5 455.355V343.031C280.719 328.614 274.066 324.263 258.5 322.531C242.934 324.263 236.28 328.614 228.5 343.031V455.355C228.5 457.466 228.297 459.58 227.783 461.627C224.776 473.598 220.356 478.924 210.15 482.24C207.136 483.22 203.858 483.224 200.863 482.185C190.261 478.506 187.234 472.449 185.121 460.955ZM231.5 343.794V455.355C231.5 457.654 231.28 460.021 230.692 462.358C229.139 468.541 227.137 473.375 223.952 477.122C220.726 480.916 216.521 483.324 211.078 485.093C207.464 486.267 203.515 486.28 199.88 485.019C194.146 483.03 190.137 480.271 187.337 476.201C184.615 472.244 183.242 467.329 182.17 461.497C181.837 459.682 181.7 457.86 181.7 456.074V296.031C181.7 294.374 183.043 293.031 184.7 293.031H332.3C333.957 293.031 335.3 294.374 335.3 296.031V456.074C335.3 457.86 335.163 459.682 334.829 461.497C333.757 467.329 332.384 472.244 329.662 476.201C326.863 480.271 322.853 483.03 317.12 485.019C313.484 486.28 309.535 486.267 305.922 485.093C300.479 483.324 296.274 480.916 293.048 477.122C289.863 473.375 287.86 468.541 286.307 462.358C285.72 460.021 285.5 457.654 285.5 455.355V343.794C281.849 337.152 278.606 333.131 274.736 330.507C270.803 327.841 265.903 326.399 258.5 325.55C251.097 326.399 246.196 327.841 242.264 330.507C238.394 333.131 235.15 337.152 231.5 343.794Z" fill="black"/>
<path d="M258.5 322.531C242.934 324.263 236.28 328.614 228.5 343.031V416H184.7V296.031H332.3V416H288.5V343.031C280.719 328.614 274.066 324.263 258.5 322.531Z" fill="#82817F"/>
<path fill-rule="evenodd" clip-rule="evenodd" d="M184.7 416H228.5V343.031C236.28 328.614 242.934 324.263 258.5 322.531C274.066 324.263 280.719 328.614 288.5 343.031V416H332.3V296.031H184.7V416ZM285.5 343.794V416C285.5 417.657 286.843 419 288.5 419H332.3C333.957 419 335.3 417.657 335.3 416V296.031C335.3 294.374 333.957 293.031 332.3 293.031H184.7C183.043 293.031 181.7 294.374 181.7 296.031V416C181.7 417.657 183.043 419 184.7 419H228.5C230.157 419 231.5 417.657 231.5 416V343.794C235.15 337.152 238.394 333.131 242.264 330.507C246.196 327.841 251.097 326.399 258.5 325.55C265.903 326.399 270.803 327.841 274.736 330.507C278.606 333.131 281.849 337.152 285.5 343.794Z" fill="black"/>
<path d="M91.9627 284.579C111.34 226.873 126.676 193.396 161.829 150.934C170.887 139.992 184.546 134.031 198.751 134.031L318.249 134.031C332.454 134.031 346.112 139.992 355.171 150.934C390.324 193.396 405.66 226.873 425.037 284.579L426.023 289.366C430.225 309.756 405.604 320.982 392.531 308.315C389.374 305.257 388.074 300.845 386.976 296.589C375.615 252.535 359.481 227.913 332.3 183.531V296.031H184.7V183.531C157.518 227.913 141.384 252.535 130.024 296.589C128.926 300.845 127.626 305.257 124.469 308.315C111.396 320.982 86.7742 309.756 90.9762 289.366L91.9627 284.579Z" fill="#F1D791"/>
<path fill-rule="evenodd" clip-rule="evenodd" d="M89.0245 283.974C89.0489 283.855 89.0803 283.739 89.1188 283.624C108.561 225.722 124.045 191.869 159.518 149.021C169.188 137.34 183.72 131.031 198.751 131.031L318.249 131.031C333.28 131.031 347.811 137.34 357.482 149.021C392.954 191.869 408.438 225.722 427.881 283.624C427.919 283.739 427.951 283.855 427.975 283.974L428.962 288.76C431.366 300.425 425.446 309.585 417.138 313.899C408.931 318.16 398.061 317.852 390.443 310.47C386.6 306.747 385.148 301.515 384.071 297.338C373.628 256.843 359.165 233.038 335.3 194.158V296.031C335.3 297.687 333.957 299.031 332.3 299.031H184.7C183.043 299.031 181.7 297.687 181.7 296.031V194.158C157.834 233.038 143.372 256.843 132.929 297.338C131.851 301.515 130.399 306.747 126.557 310.47C118.938 317.852 108.068 318.16 99.862 313.899C91.5532 309.585 85.634 300.425 88.038 288.76L89.0245 283.974ZM181.7 188.423C182.684 186.819 183.684 185.188 184.7 183.531V296.031H332.3V183.531C333.315 185.188 334.315 186.819 335.3 188.423C335.922 189.438 336.539 190.442 337.149 191.436C361.431 230.987 376.308 255.221 386.976 296.589C388.074 300.845 389.374 305.257 392.531 308.315C405.604 320.982 430.225 309.756 426.023 289.366L425.037 284.579C405.66 226.873 390.324 193.396 355.171 150.934C346.112 139.992 332.454 134.031 318.249 134.031L198.751 134.031C184.546 134.031 170.887 139.992 161.829 150.934C126.676 193.396 111.34 226.873 91.9627 284.579L90.9762 289.366C86.7742 309.756 111.396 320.982 124.469 308.315C127.626 305.257 128.926 300.845 130.024 296.589C140.692 255.221 155.569 230.987 179.85 191.436C180.461 190.442 181.077 189.438 181.7 188.423Z" fill="black"/>
<path d="M184.7 296.031V183.531C170.718 205.278 162.908 217.488 150.686 241.56L117.025 219.913C133.03 189.008 144.572 170.68 162.55 149.889C171.509 139.528 184.754 134.031 198.451 134.031L318.549 134.031C332.246 134.031 345.491 139.528 354.45 149.889C372.427 170.68 383.97 189.008 399.975 219.913L366.314 241.56C354.092 217.488 346.281 205.278 332.3 183.531V296.031H258.5H184.7Z" fill="#82817F"/>
<path fill-rule="evenodd" clip-rule="evenodd" d="M364.943 238.875C354.37 218.263 346.961 206.371 335.3 188.2C334.331 186.69 333.332 185.136 332.3 183.531V296.031H184.7V183.531C183.668 185.136 182.669 186.69 181.7 188.2C170.038 206.371 162.629 218.263 152.056 238.875C151.605 239.754 151.149 240.649 150.686 241.56L117.025 219.913C133.03 189.008 144.572 170.68 162.55 149.889C171.509 139.528 184.754 134.031 198.451 134.031L318.549 134.031C332.246 134.031 345.491 139.528 354.45 149.889C372.427 170.68 383.97 189.008 399.975 219.913L366.314 241.56C365.851 240.649 365.394 239.754 364.943 238.875ZM181.7 193.761C171.003 210.496 163.812 222.333 153.361 242.919C152.977 243.675 152.29 244.234 151.471 244.456C150.652 244.678 149.777 244.543 149.063 244.084L115.402 222.436C114.1 221.599 113.649 219.908 114.361 218.533C130.43 187.505 142.097 168.956 160.281 147.927C169.863 136.845 183.968 131.031 198.451 131.031L318.549 131.031C333.032 131.031 347.136 136.845 356.719 147.927C374.903 168.956 386.57 187.505 402.639 218.533C403.351 219.908 402.9 221.599 401.597 222.436L367.937 244.084C367.223 244.543 366.348 244.678 365.529 244.456C364.71 244.234 364.023 243.675 363.639 242.919C353.187 222.333 345.996 210.496 335.3 193.761V296.031C335.3 297.687 333.957 299.031 332.3 299.031H184.7C183.043 299.031 181.7 297.687 181.7 296.031V193.761Z" fill="black"/>
<circle cx="258.5" cy="90.0305" r="62.5" fill="#F1D791" stroke="black" stroke-width="3"/>
<circle cx="238.5" cy="70.0305" r="13" fill="black"/>
<circle cx="279.5" cy="70.0305" r="13" fill="black"/>
<rect x="225.5" y="109.031" width="67" height="13" rx="6.5" fill="white"/>
<path d="M92.936 251.938L112.505 247.807L129.028 326.082L109.459 330.213L92.936 251.938Z" fill="#B87D26"/>
<path fill-rule="evenodd" clip-rule="evenodd" d="M111.733 248.992L94.121 252.71L110.231 329.028L127.843 325.31L111.733 248.992ZM92.936 251.938L109.459 330.213L129.028 326.082L112.505 247.807L92.936 251.938Z" fill="black"/>
<g filter="url(#filter0_d)">
<path d="M144.04 330.005C146.77 342.941 138.497 355.641 125.561 358.372C112.625 361.102 99.9251 352.829 97.1944 339.893C94.4637 326.957 102.737 314.257 115.673 311.526C128.609 308.796 141.309 317.069 144.04 330.005Z" fill="#855C1F"/>
</g>
<g filter="url(#filter1_d)">
<path fill-rule="evenodd" clip-rule="evenodd" d="M125.355 357.393C137.75 354.777 145.678 342.607 143.061 330.211C140.445 317.816 128.275 309.888 115.879 312.505C103.484 315.121 95.5562 327.291 98.1729 339.687C100.789 352.082 112.959 360.01 125.355 357.393ZM125.561 358.372C138.497 355.641 146.77 342.941 144.04 330.005C141.309 317.069 128.609 308.796 115.673 311.526C102.737 314.257 94.4637 326.957 97.1944 339.893C99.9251 352.829 112.625 361.102 125.561 358.372Z" fill="black"/>
</g>
<path d="M50.5946 72.8035L58.8465 43.7168L78.1506 66.9865L116.721 249.705L102.943 252.613L89.1654 255.522L50.5946 72.8035Z" fill="#CDD5E2"/>
<path fill-rule="evenodd" clip-rule="evenodd" d="M59.9754 46.6438L103.226 251.532L115.536 248.933L77.2232 67.4348L59.9754 46.6438ZM78.1506 66.9865L116.721 249.705L89.1654 255.522L50.5946 72.8035L58.8465 43.7168L78.1506 66.9865ZM58.997 46.8504L102.248 251.738L89.9373 254.337L51.6241 72.8387L58.997 46.8504Z" fill="black"/>
<path d="M68.9855 256.757C68.102 252.572 70.7785 248.463 74.9637 247.58L127.32 236.527C131.505 235.644 135.614 238.321 136.498 242.506C137.381 246.691 134.705 250.8 130.519 251.683L78.163 262.735C73.9778 263.619 69.8689 260.942 68.9855 256.757Z" fill="#855C1F"/>
<path fill-rule="evenodd" clip-rule="evenodd" d="M127.527 237.506L75.1702 248.558C71.5255 249.327 69.1945 252.906 69.9639 256.551C70.7333 260.195 74.3117 262.526 77.9565 261.757L130.313 250.705C133.958 249.935 136.289 246.357 135.519 242.712C134.75 239.067 131.171 236.737 127.527 237.506ZM74.9637 247.58C70.7785 248.463 68.102 252.572 68.9855 256.757C69.8689 260.942 73.9778 263.619 78.163 262.735L130.519 251.683C134.705 250.8 137.381 246.691 136.498 242.506C135.614 238.321 131.505 235.644 127.32 236.527L74.9637 247.58Z" fill="black"/>
<path d="M400.241 141.21C378.287 179.606 353.753 188.453 306.502 198.88C305.957 199.001 305.582 199.45 305.715 199.992C308.658 212.007 341.762 341.505 401.203 341.505C460.725 341.505 489.819 211.66 492.323 199.944C492.434 199.421 492.078 198.996 491.559 198.866C442.744 186.655 419.3 176.299 402.054 141.264C401.696 140.535 400.644 140.504 400.241 141.21Z" fill="#C4C4C4"/>
<path fill-rule="evenodd" clip-rule="evenodd" d="M401.103 142.72C390.145 161.659 378.457 173.481 363.593 181.841C348.698 190.218 330.699 195.065 307.32 200.236C309.169 207.68 318.089 241.863 333.627 274.611C341.634 291.484 351.358 307.892 362.717 320.059C374.081 332.233 386.926 340.005 401.203 340.005C415.492 340.005 428.098 332.219 439.085 320.029C450.07 307.841 459.289 291.407 466.773 274.51C481.306 241.699 489.152 207.484 490.732 200.205C466.552 194.143 448.432 188.476 434.195 179.909C420.012 171.376 409.752 160.012 401.103 142.72ZM398.939 140.465C399.936 138.721 402.508 138.789 403.4 140.601C411.914 157.898 421.902 169.012 435.741 177.339C449.65 185.707 467.519 191.306 491.923 197.411C492.994 197.679 494.116 198.728 493.789 200.258C492.531 206.145 484.606 241.656 469.516 275.725C461.973 292.754 452.602 309.513 441.313 322.038C430.027 334.559 416.675 343.005 401.203 343.005C385.76 343.005 372.177 334.589 360.524 322.106C348.865 309.618 338.985 292.9 330.917 275.897C314.777 241.882 305.737 206.386 304.258 200.349C303.871 198.768 305.053 197.664 306.178 197.416C329.809 192.201 347.554 187.419 362.122 179.226C376.627 171.068 388.07 159.474 398.939 140.465L400.241 141.21L400.244 141.211M398.939 140.465L400.241 141.21Z" fill="black"/>
</g>
<defs>
<filter id="filter0_d" x="88.25" y="306.582" width="64.734" height="64.734" filterUnits="userSpaceOnUse" color-interpolation-filters="sRGB">
<feFlood flood-opacity="0" result="BackgroundImageFix"/>
<feColorMatrix in="SourceAlpha" type="matrix" values="0 0 0 0 0 0 0 0 0 0 0 0 0 0 0 0 0 0 127 0"/>
<feOffset dy="4"/>
<feGaussianBlur stdDeviation="2"/>
<feColorMatrix type="matrix" values="0 0 0 0 0 0 0 0 0 0 0 0 0 0 0 0 0 0 0.25 0"/>
<feBlend mode="normal" in2="BackgroundImageFix" result="effect1_dropShadow"/>
<feBlend mode="normal" in="SourceGraphic" in2="effect1_dropShadow" result="shape"/>
</filter>
<filter id="filter1_d" x="88.25" y="306.582" width="64.734" height="64.734" filterUnits="userSpaceOnUse" color-interpolation-filters="sRGB">
<feFlood flood-opacity="0" result="BackgroundImageFix"/>
<feColorMatrix in="SourceAlpha" type="matrix" values="0 0 0 0 0 0 0 0 0 0 0 0 0 0 0 0 0 0 127 0"/>
<feOffset dy="4"/>
<feGaussianBlur stdDeviation="2"/>
<feColorMatrix type="matrix" values="0 0 0 0 0 0 0 0 0 0 0 0 0 0 0 0 0 0 0.25 0"/>
<feBlend mode="normal" in2="BackgroundImageFix" result="effect1_dropShadow"/>
<feBlend mode="normal" in="SourceGraphic" in2="effect1_dropShadow" result="shape"/>
</filter>
<clipPath id="clip0">
<rect width="512" height="512" fill="white"/>
</clipPath>
</defs>
</svg>
