<svg width="512" height="512" viewBox="0 0 512 512" fill="none" xmlns="http://www.w3.org/2000/svg">
<g clip-path="url(#clip0)">
<path d="M258.5 322.531C242.934 324.263 236.28 328.614 228.5 343.031V455.355C228.5 457.466 228.297 459.58 227.783 461.627C224.776 473.598 220.356 478.924 210.15 482.24C207.136 483.22 203.858 483.224 200.863 482.185C190.261 478.506 187.234 472.449 185.121 460.955C184.825 459.346 184.7 457.709 184.7 456.074V296.031H332.3V456.074C332.3 457.709 332.174 459.346 331.879 460.955C329.765 472.449 326.738 478.506 316.136 482.185C313.142 483.224 309.864 483.22 306.849 482.24C296.644 478.924 292.224 473.598 289.217 461.627C288.702 459.58 288.5 457.466 288.5 455.355V343.031C280.719 328.614 274.066 324.263 258.5 322.531Z" fill="#F1D791"/>
<path fill-rule="evenodd" clip-rule="evenodd" d="M185.121 460.955C184.825 459.346 184.7 457.709 184.7 456.074V296.031H332.3V456.074C332.3 457.709 332.174 459.346 331.879 460.955C329.765 472.449 326.738 478.506 316.136 482.185C313.142 483.224 309.864 483.22 306.849 482.24C296.644 478.924 292.224 473.598 289.217 461.627C288.702 459.58 288.5 457.466 288.5 455.355V343.031C280.719 328.614 274.066 324.263 258.5 322.531C242.934 324.263 236.28 328.614 228.5 343.031V455.355C228.5 457.466 228.297 459.58 227.783 461.627C224.776 473.598 220.356 478.924 210.15 482.24C207.136 483.22 203.858 483.224 200.863 482.185C190.261 478.506 187.234 472.449 185.121 460.955ZM231.5 343.794V455.355C231.5 457.654 231.28 460.021 230.692 462.358C229.139 468.541 227.137 473.375 223.952 477.122C220.726 480.916 216.521 483.324 211.078 485.093C207.464 486.267 203.515 486.28 199.88 485.019C194.146 483.03 190.137 480.271 187.337 476.201C184.615 472.244 183.242 467.329 182.17 461.497C181.837 459.682 181.7 457.86 181.7 456.074V296.031C181.7 294.374 183.043 293.031 184.7 293.031H332.3C333.957 293.031 335.3 294.374 335.3 296.031V456.074C335.3 457.86 335.163 459.682 334.829 461.497C333.757 467.329 332.384 472.244 329.662 476.201C326.863 480.271 322.853 483.03 317.12 485.019C313.484 486.28 309.535 486.267 305.922 485.093C300.479 483.324 296.274 480.916 293.048 477.122C289.863 473.375 287.86 468.541 286.307 462.358C285.72 460.021 285.5 457.654 285.5 455.355V343.794C281.849 337.152 278.606 333.131 274.736 330.507C270.803 327.841 265.903 326.399 258.5 325.55C251.097 326.399 246.196 327.841 242.264 330.507C238.394 333.131 235.15 337.152 231.5 343.794Z" fill="black"/>
<path d="M258.5 322.531C242.934 324.263 236.28 328.614 228.5 343.031V416H184.7V296.031H332.3V416H288.5V343.031C280.719 328.614 274.066 324.263 258.5 322.531Z" fill="#82817F"/>
<path fill-rule="evenodd" clip-rule="evenodd" d="M184.7 416H228.5V343.031C236.28 328.614 242.934 324.263 258.5 322.531C274.066 324.263 280.719 328.614 288.5 343.031V416H332.3V296.031H184.7V416ZM285.5 343.794V416C285.5 417.657 286.843 419 288.5 419H332.3C333.957 419 335.3 417.657 335.3 416V296.031C335.3 294.374 333.957 293.031 332.3 293.031H184.7C183.043 293.031 181.7 294.374 181.7 296.031V416C181.7 417.657 183.043 419 184.7 419H228.5C230.157 419 231.5 417.657 231.5 416V343.794C235.15 337.152 238.394 333.131 242.264 330.507C246.196 327.841 251.097 326.399 258.5 325.55C265.903 326.399 270.803 327.841 274.736 330.507C278.606 333.131 281.849 337.152 285.5 343.794Z" fill="black"/>
<path d="M91.9627 284.579C111.34 226.873 126.676 193.396 161.829 150.934C170.887 139.992 184.546 134.031 198.751 134.031L318.249 134.031C332.454 134.031 346.112 139.992 355.171 150.934C390.324 193.396 405.66 226.873 425.037 284.579L426.023 289.366C430.225 309.756 405.604 320.982 392.531 308.315C389.374 305.257 388.074 300.845 386.976 296.589C375.615 252.535 359.481 227.913 332.3 183.531V296.031H184.7V183.531C157.518 227.913 141.384 252.535 130.024 296.589C128.926 300.845 127.626 305.257 124.469 308.315C111.396 320.982 86.7742 309.756 90.9762 289.366L91.9627 284.579Z" fill="#F1D791"/>
<path fill-rule="evenodd" clip-rule="evenodd" d="M89.0245 283.974C89.0489 283.855 89.0803 283.739 89.1188 283.624C108.561 225.722 124.045 191.869 159.518 149.021C169.188 137.34 183.72 131.031 198.751 131.031L318.249 131.031C333.28 131.031 347.811 137.34 357.482 149.021C392.954 191.869 408.438 225.722 427.881 283.624C427.919 283.739 427.951 283.855 427.975 283.974L428.962 288.76C431.366 300.425 425.446 309.585 417.138 313.899C408.931 318.16 398.061 317.852 390.443 310.47C386.6 306.747 385.148 301.515 384.071 297.338C373.628 256.843 359.165 233.038 335.3 194.158V296.031C335.3 297.687 333.957 299.031 332.3 299.031H184.7C183.043 299.031 181.7 297.687 181.7 296.031V194.158C157.834 233.038 143.372 256.843 132.929 297.338C131.851 301.515 130.399 306.747 126.557 310.47C118.938 317.852 108.068 318.16 99.862 313.899C91.5532 309.585 85.634 300.425 88.038 288.76L89.0245 283.974ZM181.7 188.423C182.684 186.819 183.684 185.188 184.7 183.531V296.031H332.3V183.531C333.315 185.188 334.315 186.819 335.3 188.423C335.922 189.438 336.539 190.442 337.149 191.436C361.431 230.987 376.308 255.221 386.976 296.589C388.074 300.845 389.374 305.257 392.531 308.315C405.604 320.982 430.225 309.756 426.023 289.366L425.037 284.579C405.66 226.873 390.324 193.396 355.171 150.934C346.112 139.992 332.454 134.031 318.249 134.031L198.751 134.031C184.546 134.031 170.887 139.992 161.829 150.934C126.676 193.396 111.34 226.873 91.9627 284.579L90.9762 289.366C86.7742 309.756 111.396 320.982 124.469 308.315C127.626 305.257 128.926 300.845 130.024 296.589C140.692 255.221 155.569 230.987 179.85 191.436C180.461 190.442 181.077 189.438 181.7 188.423Z" fill="black"/>
<path d="M184.7 296.031V183.531C170.718 205.278 162.908 217.488 150.686 241.56L117.025 219.913C133.03 189.008 144.572 170.68 162.55 149.889C171.509 139.528 184.754 134.031 198.451 134.031L318.549 134.031C332.246 134.031 345.491 139.528 354.45 149.889C372.427 170.68 383.97 189.008 399.975 219.913L366.314 241.56C354.092 217.488 346.281 205.278 332.3 183.531V296.031H258.5H184.7Z" fill="#82817F"/>
<path fill-rule="evenodd" clip-rule="evenodd" d="M364.943 238.875C354.37 218.263 346.961 206.371 335.3 188.2C334.331 186.69 333.332 185.136 332.3 183.531V296.031H184.7V183.531C183.668 185.136 182.669 186.69 181.7 188.2C170.038 206.371 162.629 218.263 152.056 238.875C151.605 239.754 151.149 240.649 150.686 241.56L117.025 219.913C133.03 189.008 144.572 170.68 162.55 149.889C171.509 139.528 184.754 134.031 198.451 134.031L318.549 134.031C332.246 134.031 345.491 139.528 354.45 149.889C372.427 170.68 383.97 189.008 399.975 219.913L366.314 241.56C365.851 240.649 365.394 239.754 364.943 238.875ZM181.7 193.761C171.003 210.496 163.812 222.333 153.361 242.919C152.977 243.675 152.29 244.234 151.471 244.456C150.652 244.678 149.777 244.543 149.063 244.084L115.402 222.436C114.1 221.599 113.649 219.908 114.361 218.533C130.43 187.505 142.097 168.956 160.281 147.927C169.863 136.845 183.968 131.031 198.451 131.031L318.549 131.031C333.032 131.031 347.136 136.845 356.719 147.927C374.903 168.956 386.57 187.505 402.639 218.533C403.351 219.908 402.9 221.599 401.597 222.436L367.937 244.084C367.223 244.543 366.348 244.678 365.529 244.456C364.71 244.234 364.023 243.675 363.639 242.919C353.187 222.333 345.996 210.496 335.3 193.761V296.031C335.3 297.687 333.957 299.031 332.3 299.031H184.7C183.043 299.031 181.7 297.687 181.7 296.031V193.761Z" fill="black"/>
<circle cx="259" cy="90.0305" r="62.5" fill="#F1D791" stroke="black" stroke-width="3"/>
<circle cx="239" cy="70.0305" r="13" fill="white"/>
<circle cx="280" cy="70.0305" r="13" fill="white"/>
<rect x="226" y="109.031" width="67" height="13" rx="6.5" fill="white"/>
<circle cx="239" cy="70.0305" r="5.06792" fill="black"/>
<circle cx="280" cy="70.0305" r="5.06792" fill="black"/>
<path d="M92.936 251.933L112.505 247.802L129.028 326.077L109.459 330.208L92.936 251.933Z" fill="#B87D26"/>
<path fill-rule="evenodd" clip-rule="evenodd" d="M110.189 251.357L96.4909 254.249L111.775 326.653L125.473 323.761L110.189 251.357ZM92.936 251.933L109.459 330.208L129.028 326.077L112.505 247.802L92.936 251.933Z" fill="black"/>
<path d="M144.04 330C146.77 342.936 138.497 355.636 125.561 358.367C112.625 361.098 99.9251 352.825 97.1944 339.889C94.4637 326.953 102.737 314.252 115.673 311.522C128.609 308.791 141.309 317.064 144.04 330Z" fill="#855C1F"/>
<path fill-rule="evenodd" clip-rule="evenodd" d="M124.942 355.432C136.257 353.043 143.493 341.934 141.104 330.62C138.716 319.305 127.607 312.069 116.292 314.457C104.977 316.846 97.7412 327.954 100.13 339.269C102.518 350.584 113.627 357.82 124.942 355.432ZM125.561 358.367C138.497 355.636 146.77 342.936 144.04 330C141.309 317.064 128.609 308.791 115.673 311.522C102.737 314.252 94.4637 326.953 97.1944 339.889C99.9251 352.825 112.625 361.098 125.561 358.367Z" fill="black"/>
<path d="M50.5946 72.7988L58.8465 43.7121L78.1506 66.9819L116.721 249.7L102.943 252.609L89.1654 255.517L50.5946 72.7988Z" fill="#CDD5E2"/>
<path fill-rule="evenodd" clip-rule="evenodd" d="M62.2332 52.4932L103.791 249.363L113.166 247.384L75.3684 68.3268L62.2332 52.4932ZM78.1506 66.9819L116.721 249.7L89.1654 255.517L50.5946 72.7988L58.8465 43.7121L78.1506 66.9819ZM59.2979 53.1129L100.856 249.983L91.4811 251.962L53.683 72.9044L59.2979 53.1129Z" fill="black"/>
<path d="M68.9855 256.752C68.102 252.567 70.7785 248.458 74.9637 247.575L127.32 236.523C131.505 235.639 135.614 238.316 136.498 242.501C137.381 246.686 134.705 250.795 130.519 251.679L78.163 262.731C73.9778 263.614 69.8689 260.938 68.9855 256.752Z" fill="#B87D26"/>
<path fill-rule="evenodd" clip-rule="evenodd" d="M127.94 239.458L75.5833 250.51C73.0193 251.052 71.3795 253.569 71.9208 256.133C72.462 258.697 74.9793 260.337 77.5434 259.795L129.9 248.743C132.464 248.202 134.104 245.685 133.562 243.121C133.021 240.557 130.504 238.917 127.94 239.458ZM74.9637 247.575C70.7785 248.458 68.102 252.567 68.9855 256.752C69.8689 260.938 73.9778 263.614 78.163 262.731L130.519 251.679C134.705 250.795 137.381 246.686 136.498 242.501C135.614 238.316 131.505 235.639 127.32 236.523L74.9637 247.575Z" fill="#0A0000"/>
<path d="M400.241 141.205C378.287 179.601 353.753 188.449 306.502 198.876C305.957 198.996 305.582 199.445 305.715 199.987C308.658 212.002 341.762 341.5 401.203 341.5C460.725 341.5 489.819 211.655 492.323 199.94C492.434 199.416 492.078 198.991 491.559 198.861C442.744 186.65 419.3 176.294 402.054 141.259C401.696 140.53 400.644 140.5 400.241 141.205Z" fill="#C4C4C4"/>
<path fill-rule="evenodd" clip-rule="evenodd" d="M401.103 142.716C390.145 161.654 378.457 173.477 363.593 181.836C348.698 190.213 330.699 195.06 307.32 200.231C309.169 207.675 318.089 241.858 333.627 274.606C341.634 291.48 351.358 307.887 362.717 320.055C374.081 332.228 386.926 340 401.203 340C415.492 340 428.098 332.215 439.085 320.024C450.07 307.837 459.289 291.402 466.773 274.506C481.306 241.694 489.152 207.48 490.732 200.201C466.552 194.138 448.432 188.471 434.195 179.905C420.012 171.372 409.752 160.007 401.103 142.716ZM398.939 140.46C399.936 138.716 402.508 138.784 403.4 140.597C411.914 157.893 421.902 169.007 435.741 177.334C449.65 185.703 467.519 191.302 491.923 197.406C492.994 197.674 494.116 198.724 493.789 200.253C492.531 206.141 484.606 241.652 469.516 275.721C461.973 292.75 452.602 309.509 441.313 322.033C430.027 334.555 416.675 343 401.203 343C385.76 343 372.177 334.585 360.524 322.102C348.865 309.613 338.985 292.895 330.917 275.892C314.777 241.877 305.737 206.381 304.258 200.344C303.871 198.763 305.053 197.659 306.178 197.411C329.809 192.196 347.554 187.415 362.122 179.221C376.627 171.064 388.07 159.47 398.939 140.46L400.241 141.205L400.244 141.207M398.939 140.46L400.241 141.205L398.939 140.46Z" fill="black"/>
</g>
<defs>
<clipPath id="clip0">
<rect width="512" height="512" fill="white"/>
</clipPath>
</defs>
</svg>
