<svg width="512" height="512" viewBox="0 0 512 512" fill="none" xmlns="http://www.w3.org/2000/svg">
<path d="M174 76H336V500H174V76Z" fill="#CDCABB"/>
<path fill-rule="evenodd" clip-rule="evenodd" d="M333 79H177V497H333V79ZM174 76V500H336V76H174Z" fill="black"/>
<path d="M221 160.714C221 146.513 232.489 135 246.66 135H263.34C277.511 135 289 146.513 289 160.714V190.286C289 204.487 277.511 216 263.34 216H246.66C232.489 216 221 204.487 221 190.286V160.714Z" fill="black"/>
<path d="M165.5 14.5V95.5H346.5V14.5H301.845V50.5657H279.22V14.5H233.375V50.5657H208.964V14.5H165.5Z" fill="#CDCABB"/>
<path fill-rule="evenodd" clip-rule="evenodd" d="M164 13H210.464V49.0657H231.875V13H280.72V49.0657H300.345V13H348V97H164V13ZM167 16V94H345V16H303.345V52.0657H277.72V16H234.875V52.0657H207.464V16H167Z" fill="black"/>
<path d="M217.636 404.483V482.502H254.713H291.791V404.483C291.791 381.924 280.672 363.636 266.956 363.636H254.713H242.47C228.755 363.636 217.636 381.924 217.636 404.483Z" fill="#957357"/>
<path fill-rule="evenodd" clip-rule="evenodd" d="M226.307 376.45C221.993 383.546 219.272 393.453 219.272 404.483V480.867H290.155V404.483C290.155 393.453 287.434 383.546 283.119 376.45C278.787 369.324 273.025 365.272 266.956 365.272H242.47C236.402 365.272 230.639 369.324 226.307 376.45ZM223.512 374.75C228.168 367.091 234.823 362 242.47 362H266.956C274.604 362 281.259 367.091 285.915 374.75C290.589 382.438 293.427 392.954 293.427 404.483V484.138H216V404.483C216 392.954 218.838 382.438 223.512 374.75Z" fill="black"/>
</svg>
