<svg width="512" height="512" viewBox="0 0 512 512" fill="none" xmlns="http://www.w3.org/2000/svg">
<g clip-path="url(#clip0)">
<path d="M40 220V477C40 488.046 48.9543 497 60 497H434C445.046 497 454 488.046 454 477V220H322H190H40Z" fill="#CDCABB"/>
<path fill-rule="evenodd" clip-rule="evenodd" d="M38.5 218.5H455.5V477C455.5 488.874 445.874 498.5 434 498.5H60C48.1259 498.5 38.5 488.874 38.5 477V218.5ZM41.5 221.5V477C41.5 487.217 49.7827 495.5 60 495.5H434C444.217 495.5 452.5 487.217 452.5 477V221.5H41.5Z" fill="black"/>
<path d="M16 204V127H45V176H99V127H133V176H187V127H216V204C216 215.046 207.046 224 196 224H36C24.9543 224 16 215.046 16 204Z" fill="#B9B6A9"/>
<path fill-rule="evenodd" clip-rule="evenodd" d="M14.5 125.5H46.5V174.5H97.5V125.5H134.5V174.5H185.5V125.5H217.5V204C217.5 215.874 207.874 225.5 196 225.5H36C24.1259 225.5 14.5 215.874 14.5 204V125.5ZM17.5 128.5V204C17.5 214.217 25.7827 222.5 36 222.5H196C206.217 222.5 214.5 214.217 214.5 204V128.5H188.5V177.5H131.5V128.5H100.5V177.5H43.5V128.5H17.5Z" fill="black"/>
<path d="M296 200V123H325V172H379V123H413V172H467V123H496V200C496 211.046 487.046 220 476 220H316C304.954 220 296 211.046 296 200Z" fill="#B9B6A9"/>
<path fill-rule="evenodd" clip-rule="evenodd" d="M294.5 121.5H326.5V170.5H377.5V121.5H414.5V170.5H465.5V121.5H497.5V200C497.5 211.874 487.874 221.5 476 221.5H316C304.126 221.5 294.5 211.874 294.5 200V121.5ZM297.5 124.5V200C297.5 210.217 305.783 218.5 316 218.5H476C486.217 218.5 494.5 210.217 494.5 200V124.5H468.5V173.5H411.5V124.5H380.5V173.5H323.5V124.5H297.5Z" fill="black"/>
<path d="M174 76H336V496H174V76Z" fill="#CDCABB"/>
<path fill-rule="evenodd" clip-rule="evenodd" d="M333 79H177V495H333V79ZM174 76V498H336V76H174Z" fill="black"/>
<path d="M221 160.714C221 146.513 232.489 135 246.66 135H263.34C277.511 135 289 146.513 289 160.714V190.286C289 204.487 277.511 216 263.34 216H246.66C232.489 216 221 204.487 221 190.286V160.714Z" fill="black"/>
<path d="M165.5 14.5V95.5H346.5V14.5H301.845V50.5657H279.22V14.5H233.375V50.5657H208.964V14.5H165.5Z" fill="#B9B6A9"/>
<path fill-rule="evenodd" clip-rule="evenodd" d="M164 13H210.464V49.0657H231.875V13H280.72V49.0657H300.345V13H348V97H164V13ZM167 16V94H345V16H303.345V52.0657H277.72V16H234.875V52.0657H207.464V16H167Z" fill="black"/>
<path d="M217.636 404.483V482.502H254.713H291.791V404.483C291.791 381.924 280.672 363.636 266.956 363.636H254.713H242.47C228.755 363.636 217.636 381.924 217.636 404.483Z" fill="#957357"/>
<path fill-rule="evenodd" clip-rule="evenodd" d="M226.307 376.45C221.993 383.546 219.272 393.453 219.272 404.483V480.867H290.155V404.483C290.155 393.453 287.434 383.546 283.119 376.45C278.787 369.324 273.025 365.272 266.956 365.272H242.47C236.402 365.272 230.639 369.324 226.307 376.45ZM223.512 374.75C228.168 367.091 234.823 362 242.47 362H266.956C274.604 362 281.259 367.091 285.915 374.75C290.589 382.438 293.427 392.954 293.427 404.483V484.138H216V404.483C216 392.954 218.838 382.438 223.512 374.75Z" fill="black"/>
<path d="M146 278.176V327.5H86V278.176C86 275.746 86.4331 273.32 87.3448 271.067C93.4769 255.914 97.9203 252.18 107.976 247.541C113.052 245.2 118.948 245.2 124.024 247.541C134.08 252.18 138.523 255.914 144.655 271.067C145.567 273.32 146 275.746 146 278.176Z" fill="black"/>
<path d="M426 278.176V327.5H366V278.176C366 275.746 366.433 273.32 367.345 271.067C373.477 255.914 377.92 252.18 387.976 247.541C393.052 245.2 398.948 245.2 404.024 247.541C414.08 252.18 418.523 255.914 424.655 271.067C425.567 273.32 426 275.746 426 278.176Z" fill="black"/>
</g>
<defs>
<clipPath id="clip0">
<rect width="512" height="512" fill="white"/>
</clipPath>
</defs>
</svg>
