<svg width="512" height="512" viewBox="0 0 512 512" fill="none" xmlns="http://www.w3.org/2000/svg">
<rect x="192.5" y="76.5" width="126" height="421" fill="#CDCABB" stroke="black" stroke-width="3" stroke-linecap="round"/>
<circle cx="255" cy="144" r="50" fill="white"/>
<line x1="254.5" y1="146" x2="254.5" y2="104" stroke="black" stroke-width="6"/>
<path d="M275 184.373L253.964 147.5" stroke="black" stroke-width="6"/>
<circle cx="254.5" cy="144.5" r="7.5" fill="black"/>
<path d="M332.5 81.5H179.5V44.5H218H237H275.5H294.5H332.5V81.5Z" fill="#B9B6A9" stroke="black" stroke-width="3"/>
<rect x="237.5" y="12.5" width="38" height="29" fill="#B9B6A9" stroke="black" stroke-width="3"/>
<path d="M294.5 12.5H332.5V41.5H294.5V12.5Z" fill="#B9B6A9" stroke="black" stroke-width="3"/>
<rect x="179.5" y="12.5" width="38" height="29" fill="#B9B6A9" stroke="black" stroke-width="3"/>
<path d="M180 13V81.5H332V13H294.5V43.5H275.5V13H237V43.5H216.5V13H180Z" fill="#CDCABB" stroke="black" stroke-width="3"/>
<path d="M95.5 358.5H412.5V464C412.5 482.502 397.502 497.5 379 497.5H129C110.498 497.5 95.5 482.502 95.5 464V358.5Z" fill="#CDCABB" stroke="black" stroke-width="3"/>
<path d="M127 397V400M127 397C127 394.791 125.209 393 123 393H106C103.791 393 102 394.791 102 397V400C102 402.209 103.791 404 106 404H123C125.209 404 127 402.209 127 400M127 397C127 394.791 128.791 393 131 393H148C150.209 393 152 394.791 152 397M127 400C127 402.209 128.791 404 131 404H148C150.209 404 152 402.209 152 400M152 397V400M152 397C152 394.791 153.791 393 156 393H173C175.209 393 177 394.791 177 397M152 400C152 402.209 153.791 404 156 404H173C175.209 404 177 402.209 177 400M177 397V400M177 397C177 394.791 178.791 393 181 393H198C200.209 393 202 394.791 202 397M177 400C177 402.209 178.791 404 181 404H198C200.209 404 202 402.209 202 400M202 397V400M202 397C202 394.791 203.791 393 206 393H223C225.209 393 227 394.791 227 397M202 400C202 402.209 203.791 404 206 404H223C225.209 404 227 402.209 227 400M227 397V400M227 397C227 394.791 228.791 393 231 393H248C250.209 393 252 394.791 252 397M227 400C227 402.209 228.791 404 231 404H248C250.209 404 252 402.209 252 400M252 397V400M252 397C252 394.791 253.791 393 256 393H273C275.209 393 277 394.791 277 397M252 400C252 402.209 253.791 404 256 404H273C275.209 404 277 402.209 277 400M277 397V400M277 397C277 394.791 278.791 393 281 393H298C300.209 393 302 394.791 302 397M277 400C277 402.209 278.791 404 281 404H298C300.209 404 302 402.209 302 400M302 397V400M302 397C302 394.791 303.791 393 306 393H323C325.209 393 327 394.791 327 397M302 400C302 402.209 303.791 404 306 404H323C325.209 404 327 402.209 327 400M327 397V400M327 397C327 394.791 328.791 393 331 393H348C350.209 393 352 394.791 352 397M327 400C327 402.209 328.791 404 331 404H348M352 397V400M352 397C352 394.791 353.791 393 356 393H373C375.209 393 377 394.791 377 397M352 400C352 402.209 350.209 404 348 404M352 400C352 402.209 353.791 404 356 404H373M348 404H365C367.209 404 369 405.791 369 408M348 404C345.791 404 344 405.791 344 408V411C344 413.209 345.791 415 348 415H365C367.209 415 369 413.209 369 411M377 397V400M377 397C377 394.791 378.791 393 381 393H398M377 400C377 402.209 375.209 404 373 404M377 400C377 402.209 378.791 404 381 404H398M373 404H390C392.209 404 394 405.791 394 408M373 404C370.791 404 369 405.791 369 408M398 393C400.209 393 402 394.791 402 397V400C402 402.209 400.209 404 398 404M398 393C395.791 393 394 391.209 394 389V386C394 383.791 395.791 382 398 382H413.5M398 404C395.791 404 394 405.791 394 408M398 404H412.5H405C402.791 404 401 402.209 401 400V397C401 394.791 402.791 393 405 393H412.5M370 389V386M370 389C370 391.209 371.791 393 374 393H391C393.209 393 395 391.209 395 389V386C395 383.791 393.209 382 391 382H374C371.791 382 370 383.791 370 386M370 389C370 391.209 368.209 393 366 393H349C346.791 393 345 391.209 345 389M370 386C370 383.791 368.209 382 366 382H349C346.791 382 345 383.791 345 386M369 408V411M369 411C369 413.209 370.791 415 373 415H390C392.209 415 394 413.209 394 411M394 408V411M394 411C394 413.209 395.791 415 398 415M389 419V422M389 419C389 416.791 387.209 415 385 415H368C365.791 415 364 416.791 364 419M389 419C389 416.791 390.791 415 393 415H412.5M389 422C389 424.209 387.209 426 385 426H368C365.791 426 364 424.209 364 422M389 422C389 424.209 390.791 426 393 426H412.5M364 422V419M364 422C364 424.209 362.209 426 360 426H343C340.791 426 339 424.209 339 422M364 419C364 416.791 362.209 415 360 415H343C340.791 415 339 416.791 339 419M343 448H360C362.209 448 364 449.791 364 452M343 448C340.791 448 339 449.791 339 452V455C339 457.209 340.791 459 343 459H360C362.209 459 364 457.209 364 455M343 448H326C323.791 448 322 446.209 322 444M343 448C345.209 448 347 446.209 347 444M364 452V455M364 452C364 449.791 365.791 448 368 448M364 455C364 457.209 365.791 459 368 459H385C387.209 459 389 457.209 389 455M384 463V466M384 463C384 460.791 382.209 459 380 459H363C360.791 459 359 460.791 359 463V466C359 468.209 360.791 470 363 470M384 463C384 460.791 385.791 459 388 459H405C407.209 459 409 460.791 409 463M384 466C384 468.209 382.209 470 380 470M384 466C384 468.209 385.791 470 388 470M380 470H363M380 470C382.209 470 384 471.791 384 474M363 470C360.791 470 359 471.791 359 474M368 448H385C387.209 448 389 449.791 389 452M368 448H351C348.791 448 347 446.209 347 444M368 448C370.209 448 372 446.209 372 444M389 452V455M389 452C389 449.791 390.791 448 393 448M389 455C389 457.209 390.791 459 393 459H410H413C410.791 459 409 460.791 409 463M397 441V444M397 441C397 438.791 395.209 437 393 437H376C373.791 437 372 438.791 372 441M397 441C397 438.791 398.791 437 401 437M397 444C397 446.209 395.209 448 393 448M397 444C397 446.209 398.791 448 401 448M393 448H376C373.791 448 372 446.209 372 444M393 448H412.5M372 444V441M372 441C372 438.791 370.209 437 368 437H351C348.791 437 347 438.791 347 441M394 430V433M394 430C394 427.791 392.209 426 390 426H373C370.791 426 369 427.791 369 430V433C369 435.209 370.791 437 373 437H390C392.209 437 394 435.209 394 433M394 430C394 427.791 395.791 426 398 426M394 433C394 435.209 395.791 437 398 437H401M409 463V466M409 466C409 468.209 407.209 470 405 470M409 466C409 468.209 410.791 470 413 470C410.791 470 409 471.791 409 474M405 470H388M405 470C407.209 470 409 471.791 409 474M388 470C385.791 470 384 471.791 384 474M245 408V411M245 408C245 405.791 243.209 404 241 404H224C221.791 404 220 405.791 220 408M245 408C245 405.791 246.791 404 249 404H266C268.209 404 270 405.791 270 408M245 411C245 413.209 243.209 415 241 415H224C221.791 415 220 413.209 220 411M245 411C245 413.209 246.791 415 249 415H266C268.209 415 270 413.209 270 411M220 411V408M220 411C220 413.209 218.209 415 216 415H199C196.791 415 195 413.209 195 411M220 408C220 405.791 218.209 404 216 404H199C196.791 404 195 405.791 195 408M270 408V411M270 408C270 405.791 271.791 404 274 404H291C293.209 404 295 405.791 295 408M270 411C270 413.209 271.791 415 274 415H291C293.209 415 295 413.209 295 411M295 408V411M295 408C295 405.791 296.791 404 299 404H316C318.209 404 320 405.791 320 408M295 411C295 413.209 296.791 415 299 415H316C318.209 415 320 413.209 320 411M320 408V411M320 408C320 405.791 321.791 404 324 404H341C343.209 404 345 405.791 345 408V411C345 413.209 343.209 415 341 415H324C321.791 415 320 413.209 320 411M95 404H116C118.209 404 120 405.791 120 408M120 408V411M120 408C120 405.791 121.791 404 124 404H141C143.209 404 145 405.791 145 408M120 411C120 413.209 118.209 415 116 415H96.5M120 411C120 413.209 121.791 415 124 415H141C143.209 415 145 413.209 145 411M145 408V411M145 408C145 405.791 146.791 404 149 404H166C168.209 404 170 405.791 170 408M145 411C145 413.209 146.791 415 149 415H166C168.209 415 170 413.209 170 411M170 408V411M170 408C170 405.791 171.791 404 174 404H191C193.209 404 195 405.791 195 408M170 411C170 413.209 171.791 415 174 415H191C193.209 415 195 413.209 195 411M195 408V411M264 419V422M264 419C264 416.791 262.209 415 260 415H243C240.791 415 239 416.791 239 419M264 419C264 416.791 265.791 415 268 415H285C287.209 415 289 416.791 289 419M264 422C264 424.209 262.209 426 260 426H243C240.791 426 239 424.209 239 422M264 422C264 424.209 265.791 426 268 426H285C287.209 426 289 424.209 289 422M239 422V419M239 422C239 424.209 237.209 426 235 426H218C215.791 426 214 424.209 214 422M239 419C239 416.791 237.209 415 235 415H218C215.791 415 214 416.791 214 419M289 419V422M289 419C289 416.791 290.791 415 293 415H310C312.209 415 314 416.791 314 419M289 422C289 424.209 290.791 426 293 426H310C312.209 426 314 424.209 314 422M314 419V422M314 419C314 416.791 315.791 415 318 415H335C337.209 415 339 416.791 339 419M314 422C314 424.209 315.791 426 318 426H335C337.209 426 339 424.209 339 422M339 419V422M139 419V422M139 419C139 416.791 137.209 415 135 415H118C115.791 415 114 416.791 114 419V422C114 424.209 115.791 426 118 426H135C137.209 426 139 424.209 139 422M139 419C139 416.791 140.791 415 143 415H160C162.209 415 164 416.791 164 419M139 422C139 424.209 140.791 426 143 426H160C162.209 426 164 424.209 164 422M164 419V422M164 419C164 416.791 165.791 415 168 415H185C187.209 415 189 416.791 189 419M164 422C164 424.209 165.791 426 168 426H185C187.209 426 189 424.209 189 422M189 419V422M189 419C189 416.791 190.791 415 193 415H210C212.209 415 214 416.791 214 419M189 422C189 424.209 190.791 426 193 426H210C212.209 426 214 424.209 214 422M214 419V422M244 430V433M244 430C244 427.791 242.209 426 240 426H223C220.791 426 219 427.791 219 430M244 430C244 427.791 245.791 426 248 426H265C267.209 426 269 427.791 269 430M244 433C244 435.209 242.209 437 240 437H223C220.791 437 219 435.209 219 433M244 433C244 435.209 245.791 437 248 437H265C267.209 437 269 435.209 269 433M219 433V430M219 433C219 435.209 217.209 437 215 437H198C195.791 437 194 435.209 194 433M219 430C219 427.791 217.209 426 215 426H198C195.791 426 194 427.791 194 430M269 430V433M269 430C269 427.791 270.791 426 273 426H290C292.209 426 294 427.791 294 430M269 433C269 435.209 270.791 437 273 437H290C292.209 437 294 435.209 294 433M294 430V433M294 430C294 427.791 295.791 426 298 426H315C317.209 426 319 427.791 319 430M294 433C294 435.209 295.791 437 298 437H315C317.209 437 319 435.209 319 433M319 430V433M319 430C319 427.791 320.791 426 323 426H340C342.209 426 344 427.791 344 430V433C344 435.209 342.209 437 340 437H323C320.791 437 319 435.209 319 433M95 426H115C117.209 426 119 427.791 119 430M119 430V433M119 430C119 427.791 120.791 426 123 426H140C142.209 426 144 427.791 144 430M119 433C119 435.209 117.209 437 115 437H95M119 433C119 435.209 120.791 437 123 437H140C142.209 437 144 435.209 144 433M144 430V433M144 430C144 427.791 145.791 426 148 426H165C167.209 426 169 427.791 169 430M144 433C144 435.209 145.791 437 148 437H165C167.209 437 169 435.209 169 433M169 430V433M169 430C169 427.791 170.791 426 173 426H190C192.209 426 194 427.791 194 430M169 433C169 435.209 170.791 437 173 437H190C192.209 437 194 435.209 194 433M194 430V433M240 452V455M240 452C240 449.791 238.209 448 236 448H219C216.791 448 215 449.791 215 452M240 452C240 449.791 241.791 448 244 448H261C263.209 448 265 449.791 265 452M240 455C240 457.209 238.209 459 236 459H219C216.791 459 215 457.209 215 455M240 455C240 457.209 241.791 459 244 459H261C263.209 459 265 457.209 265 455M215 455V452M215 455C215 457.209 213.209 459 211 459H194C191.791 459 190 457.209 190 455M215 452C215 449.791 213.209 448 211 448H194C191.791 448 190 449.791 190 452M265 452V455M265 452C265 449.791 266.791 448 269 448H286C288.209 448 290 449.791 290 452M265 455C265 457.209 266.791 459 269 459H286C288.209 459 290 457.209 290 455M290 452V455M290 452C290 449.791 291.791 448 294 448H311C313.209 448 315 449.791 315 452M290 455C290 457.209 291.791 459 294 459H311C313.209 459 315 457.209 315 455M315 452V455M315 452C315 449.791 316.791 448 319 448H336C338.209 448 340 449.791 340 452V455C340 457.209 338.209 459 336 459H319C316.791 459 315 457.209 315 455M94 448H111C113.209 448 115 449.791 115 452M115 452V455M115 452C115 449.791 116.791 448 119 448H136C138.209 448 140 449.791 140 452M115 455C115 457.209 113.209 459 111 459H94M115 455C115 457.209 116.791 459 119 459H136C138.209 459 140 457.209 140 455M140 452V455M140 452C140 449.791 141.791 448 144 448H161C163.209 448 165 449.791 165 452M140 455C140 457.209 141.791 459 144 459H161C163.209 459 165 457.209 165 455M165 452V455M165 452C165 449.791 166.791 448 169 448H186C188.209 448 190 449.791 190 452M165 455C165 457.209 166.791 459 169 459H186C188.209 459 190 457.209 190 455M190 452V455M260 463V466M260 463C260 460.791 258.209 459 256 459H239C236.791 459 235 460.791 235 463M260 463C260 460.791 261.791 459 264 459H281C283.209 459 285 460.791 285 463M260 466C260 468.209 258.209 470 256 470H239C236.791 470 235 468.209 235 466M260 466C260 468.209 261.791 470 264 470H281C283.209 470 285 468.209 285 466M235 466V463M235 466C235 468.209 233.209 470 231 470H214C211.791 470 210 468.209 210 466M235 463C235 460.791 233.209 459 231 459H214C211.791 459 210 460.791 210 463M285 463V466M285 463C285 460.791 286.791 459 289 459H306C308.209 459 310 460.791 310 463M285 466C285 468.209 286.791 470 289 470H306C308.209 470 310 468.209 310 466M310 463V466M310 463C310 460.791 311.791 459 314 459H331C333.209 459 335 460.791 335 463M310 466C310 468.209 311.791 470 314 470H331C333.209 470 335 468.209 335 466M335 463V466M335 463C335 460.791 336.791 459 339 459H356C358.209 459 360 460.791 360 463V466C360 468.209 358.209 470 356 470H339C336.791 470 335 468.209 335 466M135 463V466M135 463C135 460.791 133.209 459 131 459H114C111.791 459 110 460.791 110 463V466C110 468.209 111.791 470 114 470M135 463C135 460.791 136.791 459 139 459H156C158.209 459 160 460.791 160 463M135 466C135 468.209 133.209 470 131 470M135 466C135 468.209 136.791 470 139 470H156C158.209 470 160 468.209 160 466M131 470H114M131 470C133.209 470 135 471.791 135 474V477C135 479.209 133.209 481 131 481H114C111.791 481 110 479.209 110 477M114 470C111.791 470 110 471.791 110 474M160 463V466M160 463C160 460.791 161.791 459 164 459H181C183.209 459 185 460.791 185 463M160 466C160 468.209 161.791 470 164 470H181C183.209 470 185 468.209 185 466M185 463V466M185 463C185 460.791 186.791 459 189 459H206C208.209 459 210 460.791 210 463M185 466C185 468.209 186.791 470 189 470H206C208.209 470 210 468.209 210 466M210 463V466M309 474V477M309 474C309 471.791 307.209 470 305 470H288C285.791 470 284 471.791 284 474M309 474C309 471.791 310.791 470 313 470H330C332.209 470 334 471.791 334 474M309 477C309 479.209 307.209 481 305 481H288C285.791 481 284 479.209 284 477M309 477C309 479.209 310.791 481 313 481H330C332.209 481 334 479.209 334 477M284 477V474M284 477C284 479.209 282.209 481 280 481H263C260.791 481 259 479.209 259 477M284 474C284 471.791 282.209 470 280 470H263C260.791 470 259 471.791 259 474M334 474V477M334 474C334 471.791 335.791 470 338 470H355C357.209 470 359 471.791 359 474M334 477C334 479.209 335.791 481 338 481H355C357.209 481 359 479.209 359 477M359 474V477M359 477C359 479.209 360.791 481 363 481H380C382.209 481 384 479.209 384 477M384 474V477M384 477C384 479.209 385.791 481 388 481H405C407.209 481 409 479.209 409 477M409 474V477M409 477C409 479.209 406.791 481 409 481M184 474V477M184 474C184 471.791 182.209 470 180 470H163C160.791 470 159 471.791 159 474M184 474C184 471.791 185.791 470 188 470H205C207.209 470 209 471.791 209 474M184 477C184 479.209 182.209 481 180 481H163C160.791 481 159 479.209 159 477M184 477C184 479.209 185.791 481 188 481H205C207.209 481 209 479.209 209 477M159 477V474M159 477C159 479.209 157.209 481 155 481H138C135.791 481 134 479.209 134 477V474C134 471.791 135.791 470 138 470H155C157.209 470 159 471.791 159 474M209 474V477M209 474C209 471.791 210.791 470 213 470H230C232.209 470 234 471.791 234 474M209 477C209 479.209 210.791 481 213 481H230C232.209 481 234 479.209 234 477M234 474V477M234 474C234 471.791 235.791 470 238 470H255C257.209 470 259 471.791 259 474M234 477C234 479.209 235.791 481 238 481H255C257.209 481 259 479.209 259 477M259 474V477M298 485V488M298 485C298 482.791 296.209 481 294 481H277C274.791 481 273 482.791 273 485M298 485C298 482.791 299.791 481 302 481H319C321.209 481 323 482.791 323 485M298 488C298 490.209 296.209 492 294 492H277C274.791 492 273 490.209 273 488M298 488C298 490.209 299.791 492 302 492H319C321.209 492 323 490.209 323 488M273 488V485M273 488C273 490.209 271.209 492 269 492H252C249.791 492 248 490.209 248 488M273 485C273 482.791 271.209 481 269 481H252C249.791 481 248 482.791 248 485M323 485V488M323 485C323 482.791 324.791 481 327 481H344C346.209 481 348 482.791 348 485M323 488C323 490.209 324.791 492 327 492H344C346.209 492 348 490.209 348 488M348 485V488M348 485C348 482.791 349.791 481 352 481H369C371.209 481 373 482.791 373 485M348 488C348 490.209 349.791 492 352 492H369C371.209 492 373 490.209 373 488M373 485V488M373 485C373 482.791 374.791 481 377 481H394C396.209 481 398 482.791 398 485M373 488C373 490.209 374.791 492 377 492H394C396.209 492 398 490.209 398 488M398 485V488M398 485C398 482.791 399.791 481 402 481M398 488C398 490.209 397.291 491 399.5 491M173 485V488M173 485C173 482.791 171.209 481 169 481H152C149.791 481 148 482.791 148 485M173 485C173 482.791 174.791 481 177 481H194C196.209 481 198 482.791 198 485M173 488C173 490.209 171.209 492 169 492H152C149.791 492 148 490.209 148 488M173 488C173 490.209 174.791 492 177 492H194C196.209 492 198 490.209 198 488M148 488V485M148 488C148 490.209 146.209 492 144 492M148 485C148 482.791 146.209 481 144 481H127C124.791 481 123 482.791 123 485M198 485V488M198 485C198 482.791 199.791 481 202 481H219C221.209 481 223 482.791 223 485M198 488C198 490.209 199.791 492 202 492H219M223 485V488M223 485C223 482.791 224.791 481 227 481H244C246.209 481 248 482.791 248 485M223 488C223 490.209 221.209 492 219 492M223 488C223 490.209 224.791 492 227 492H244C246.209 492 248 490.209 248 488M219 492H236C238.209 492 240 493.791 240 496V499M219 492C216.791 492 215 493.791 215 496M248 485V488M319 371H302C299.791 371 298 372.791 298 375M319 371C321.209 371 323 372.791 323 375M319 371H336C338.209 371 340 369.209 340 367M319 371C316.791 371 315 369.209 315 367M323 375V378M323 375C323 372.791 324.791 371 327 371H344M323 378C323 380.209 321.209 382 319 382H302C299.791 382 298 380.209 298 378M323 378C323 380.209 324.791 382 327 382H344C346.209 382 348 380.209 348 378M298 378V375M298 378C298 380.209 296.209 382 294 382H277C274.791 382 273 380.209 273 378M298 375C298 372.791 296.209 371 294 371M344 371C346.209 371 348 372.791 348 375M344 371H361C363.209 371 365 369.209 365 367M344 371C341.791 371 340 369.209 340 367M348 375V378M348 375C348 372.791 349.791 371 352 371H369M348 378C348 380.209 349.791 382 352 382H369C371.209 382 373 380.209 373 378M369 371C371.209 371 373 372.791 373 375M369 371H386C388.209 371 390 369.209 390 367M369 371C366.791 371 365 369.209 365 367M373 375V378M373 375C373 372.791 374.791 371 377 371H394M373 378C373 380.209 374.791 382 377 382H394C396.209 382 398 380.209 398 378M394 371C396.209 371 398 372.791 398 375M394 371H411M394 371C391.791 371 390 369.209 390 367M398 375V378M398 375C398 372.791 399.791 371 402 371M398 378C398 380.209 399.791 382 402 382M194 371H177C174.791 371 173 372.791 173 375M194 371C196.209 371 198 372.791 198 375M194 371H211C213.209 371 215 369.209 215 367M194 371C191.791 371 190 369.209 190 367M198 375V378M198 375C198 372.791 199.791 371 202 371H219M198 378C198 380.209 196.209 382 194 382H177C174.791 382 173 380.209 173 378M198 378C198 380.209 199.791 382 202 382H219C221.209 382 223 380.209 223 378M173 378V375M173 378C173 380.209 171.209 382 169 382H152C149.791 382 148 380.209 148 378M173 375C173 372.791 171.209 371 169 371M219 371C221.209 371 223 372.791 223 375M219 371H236C238.209 371 240 369.209 240 367M219 371C216.791 371 215 369.209 215 367M223 375V378M223 375C223 372.791 224.791 371 227 371H244M223 378C223 380.209 224.791 382 227 382H244C246.209 382 248 380.209 248 378M244 371C246.209 371 248 372.791 248 375M244 371H261C263.209 371 265 369.209 265 367M244 371C241.791 371 240 369.209 240 367M248 375V378M248 375C248 372.791 249.791 371 252 371H269M248 378C248 380.209 249.791 382 252 382H269C271.209 382 273 380.209 273 378M269 371C271.209 371 273 372.791 273 375M269 371H286C288.209 371 290 369.209 290 367M269 371C266.791 371 265 369.209 265 367M273 375V378M273 375C273 372.791 274.791 371 277 371H294M294 371H311C313.209 371 315 369.209 315 367M294 371C291.791 371 290 369.209 290 367M315 364V367M315 364C315 361.791 313.209 360 311 360H294C291.791 360 290 361.791 290 364M315 364C315 361.791 316.791 360 319 360H336C338.209 360 340 361.791 340 364M290 367V364M290 364C290 361.791 288.209 360 286 360H269C266.791 360 265 361.791 265 364M340 364V367M340 364C340 361.791 341.791 360 344 360H361C363.209 360 365 361.791 365 364M365 364V367M365 364C365 361.791 366.791 360 369 360H386C388.209 360 390 361.791 390 364M390 364V367M390 364C390 361.791 391.791 360 394 360H411M190 364V367M190 364C190 361.791 188.209 360 186 360H169C166.791 360 165 361.791 165 364M190 364C190 361.791 191.791 360 194 360H211C213.209 360 215 361.791 215 364M190 367C190 369.209 188.209 371 186 371H169M169 371C166.791 371 165 369.209 165 367M169 371H152C149.791 371 148 372.791 148 375M165 367V364M165 367C165 369.209 163.209 371 161 371H144M165 364C165 361.791 163.209 360 161 360H144C141.791 360 140 361.791 140 364M215 364V367M215 364C215 361.791 216.791 360 219 360H236C238.209 360 240 361.791 240 364M240 364V367M240 364C240 361.791 241.791 360 244 360H261C263.209 360 265 361.791 265 364M265 364V367M272 441V444M272 441C272 438.791 270.209 437 268 437H251C248.791 437 247 438.791 247 441M272 441C272 438.791 273.791 437 276 437H293C295.209 437 297 438.791 297 441M272 444C272 446.209 270.209 448 268 448H251C248.791 448 247 446.209 247 444M272 444C272 446.209 273.791 448 276 448H293C295.209 448 297 446.209 297 444M247 444V441M247 444C247 446.209 245.209 448 243 448H226C223.791 448 222 446.209 222 444M247 441C247 438.791 245.209 437 243 437H226C223.791 437 222 438.791 222 441M297 441V444M297 441C297 438.791 298.791 437 301 437H318C320.209 437 322 438.791 322 441M297 444C297 446.209 298.791 448 301 448H318C320.209 448 322 446.209 322 444M322 441V444M322 441C322 438.791 323.791 437 326 437H343C345.209 437 347 438.791 347 441M347 441V444M147 441V444M147 441C147 438.791 145.209 437 143 437H126C123.791 437 122 438.791 122 441M147 441C147 438.791 148.791 437 151 437H168C170.209 437 172 438.791 172 441M147 444C147 446.209 145.209 448 143 448H126C123.791 448 122 446.209 122 444M147 444C147 446.209 148.791 448 151 448H168C170.209 448 172 446.209 172 444M122 444V441M122 444C122 446.209 120.209 448 118 448H101C98.7909 448 97 446.209 97 444V441C97 438.791 98.7909 437 101 437H118C120.209 437 122 438.791 122 441M172 441V444M172 441C172 438.791 173.791 437 176 437H193C195.209 437 197 438.791 197 441M172 444C172 446.209 173.791 448 176 448H193C195.209 448 197 446.209 197 444M197 441V444M197 441C197 438.791 198.791 437 201 437H218C220.209 437 222 438.791 222 441M197 444C197 446.209 198.791 448 201 448H218C220.209 448 222 446.209 222 444M222 441V444M270 386V389M270 386C270 383.791 268.209 382 266 382H249C246.791 382 245 383.791 245 386M270 386C270 383.791 271.791 382 274 382H291C293.209 382 295 383.791 295 386M270 389C270 391.209 268.209 393 266 393H249C246.791 393 245 391.209 245 389M270 389C270 391.209 271.791 393 274 393H291C293.209 393 295 391.209 295 389M245 389V386M245 389C245 391.209 243.209 393 241 393H224C221.791 393 220 391.209 220 389M245 386C245 383.791 243.209 382 241 382H224C221.791 382 220 383.791 220 386M295 386V389M295 386C295 383.791 296.791 382 299 382H316C318.209 382 320 383.791 320 386M295 389C295 391.209 296.791 393 299 393H316C318.209 393 320 391.209 320 389M320 386V389M320 386C320 383.791 321.791 382 324 382H341C343.209 382 345 383.791 345 386M320 389C320 391.209 321.791 393 324 393H341C343.209 393 345 391.209 345 389M345 386V389M145 386V389M145 386C145 383.791 143.209 382 141 382H124C121.791 382 120 383.791 120 386M145 386C145 383.791 146.791 382 149 382H166C168.209 382 170 383.791 170 386M145 389C145 391.209 143.209 393 141 393H124C121.791 393 120 391.209 120 389M145 389C145 391.209 146.791 393 149 393H166C168.209 393 170 391.209 170 389M120 389V386M120 389C120 391.209 118.209 393 116 393H99C96.7909 393 95 391.209 95 389V386C95 383.791 96.7909 382 99 382H116C118.209 382 120 383.791 120 386M170 386V389M170 386C170 383.791 171.791 382 174 382H191C193.209 382 195 383.791 195 386M170 389C170 391.209 171.791 393 174 393H191C193.209 393 195 391.209 195 389M195 386V389M195 386C195 383.791 196.791 382 199 382H216C218.209 382 220 383.791 220 386M195 389C195 391.209 196.791 393 199 393H216C218.209 393 220 391.209 220 389M220 386V389M148 378V375M148 378C148 380.209 146.209 382 144 382H127C124.791 382 123 380.209 123 378M148 375C148 372.791 146.209 371 144 371M144 371H127C124.791 371 123 372.791 123 375M144 371C141.791 371 140 369.209 140 367M123 378V375M123 378C123 380.209 121.209 382 119 382H102C99.7909 382 98 380.209 98 378V375C98 372.791 99.7909 371 102 371H119M123 375C123 372.791 121.209 371 119 371M140 367V364M140 367C140 369.209 138.209 371 136 371H119M140 364C140 361.791 138.209 360 136 360H119C116.791 360 115 361.791 115 364M119 371C116.791 371 115 369.209 115 367M115 367V364M115 367C115 369.209 113.209 371 111 371H95M115 364C115 361.791 113.209 360 111 360H94M110 477V474M110 477C110 479.209 108.209 481 106 481M110 474C110 471.791 108.209 470 106 470H96.5M144 492H127C124.791 492 123 490.209 123 488M144 492H161C163.209 492 165 493.791 165 496M144 492C141.791 492 140 493.791 140 496M123 488V485M123 488C123 490.209 121.209 492 119 492H110M123 485C123 482.791 121.209 481 119 481H102M107 459C109.209 459 111 460.791 111 463V466C111 468.209 109.209 470 107 470M164 496C164 493.791 165.791 492 168 492H185C187.209 492 189 493.791 189 496C189 493.791 190.791 492 193 492H210C212.209 492 214 493.791 214 496M239 499V496C239 493.791 240.791 492 243 492H260C262.209 492 264 493.791 264 496C264 493.791 265.791 492 268 492H285C287.209 492 289 493.791 289 496M313 496C313 493.791 311.209 492 309 492H292C289.791 492 288 493.791 288 496M311 497C311 494.791 312.791 493 315 493H332C334.209 493 336 494.791 336 497C336 494.791 337.791 493 340 493H357C359.209 493 361 494.791 361 497C361 494.791 362.791 493 365 493H382C384.209 493 386 494.791 386 497C386 494.791 387.791 493 390 493M401 437H412.5M348 425H365C367.209 425 369 426.791 369 429V432C369 434.209 367.209 436 365 436H348C345.791 436 344 434.209 344 432V429C344 426.791 345.791 425 348 425Z" stroke="black"/>
<path d="M74.5242 364.5L255.68 176.174L433.52 364.5H74.5242Z" fill="#AC8665" stroke="black" stroke-width="3"/>
<path d="M240 400.5H269C279.217 400.5 287.5 408.783 287.5 419V497.5H221.5V419C221.5 408.783 229.783 400.5 240 400.5Z" fill="#AC8665" stroke="black" stroke-width="3"/>
<circle cx="269.5" cy="458.5" r="7.5" fill="black"/>
<rect x="227.5" y="268.5" width="52" height="48" rx="8.5" fill="#FFE876" stroke="black" stroke-width="3"/>
<line x1="253.5" y1="268" x2="253.5" y2="318" stroke="black" stroke-width="3"/>
<line x1="226" y1="291.5" x2="281" y2="291.5" stroke="black" stroke-width="3"/>
</svg>
