<svg width="512" height="512" viewBox="0 0 512 512" fill="none" xmlns="http://www.w3.org/2000/svg">
<path d="M256 489C384.682 489 489 384.682 489 256C489 127.318 384.682 23 256 23C190.77 23 131.801 49.8046 89.5066 93L41 41.5V170L186 192.5L128.5 133.975C172.589 94.2888 200.405 81.6046 256.5 79C353.978 79 433 158.022 433 255.5C421.025 389.85 365.581 428.37 256 489Z" fill="white"/>
<path fill-rule="evenodd" clip-rule="evenodd" d="M132.987 129.981C174.533 93.4294 202.331 81.5152 256.5 79C353.978 79 433 158.022 433 255.5C421.443 385.159 369.4 425.563 267.282 482.725C263.587 484.793 259.826 486.883 256 489C260.359 489 264.69 488.88 268.99 488.644C391.63 481.904 489 380.323 489 256C489 127.318 384.682 23 256 23C192.929 23 135.712 48.0597 93.7605 88.7654C92.3245 90.1587 90.9065 91.5704 89.5066 93L41 41.5V170L186 192.5L128.5 133.975C130.014 132.612 131.509 131.281 132.987 129.981ZM169.037 183.796L119.827 133.709L124.486 129.515C146.729 109.494 165.266 95.911 185.608 87.0783C205.995 78.2258 227.767 74.3277 256.222 73.0065L256.361 73H256.5C357.292 73 439 154.708 439 255.5V255.767L438.976 256.033C432.915 324.03 415.765 368.566 385.663 403.793C360.055 433.762 325.363 456.603 281.515 481.582C394.873 468.902 483 372.743 483 256C483 130.631 381.369 29 256 29C192.449 29 135.006 55.1075 93.7937 97.1977L89.4227 101.662L47 56.6213V164.859L169.037 183.796Z" fill="black"/>
</svg>
