<svg width="512" height="512" viewBox="0 0 512 512" fill="none" xmlns="http://www.w3.org/2000/svg">
<path d="M37 435V178H190V254.006H250H310V178H463V435C463 446.046 454.046 455 443 455H310H250H190H57C45.9543 455 37 446.046 37 435Z" fill="#CDCABB"/>
<path d="M190 455H57C45.9543 455 37 446.046 37 435V178H190V254.006M190 455V254.006M190 455H250H310M190 254.006H250H310M310 455H443C454.046 455 463 446.046 463 435V178H310V254.006M310 455V254.006" stroke="black" stroke-width="3"/>
<path d="M208.723 368.717V455H250H291.277V368.717C291.277 343.768 278.899 323.543 263.63 323.543H250H236.37C221.101 323.543 208.723 343.768 208.723 368.717Z" fill="#957357" stroke="black" stroke-width="3"/>
<path d="M485 183V106H456V155H402V106H368V155H314V106H285V183C285 194.046 293.954 203 305 203H465C476.046 203 485 194.046 485 183Z" fill="#B9B6A9" stroke="black" stroke-width="3"/>
<path d="M423 257.176V306.5H363V257.176C363 254.746 363.433 252.32 364.345 250.067C370.477 234.914 374.92 231.18 384.976 226.541C390.052 224.2 395.948 224.2 401.024 226.541C411.08 231.18 415.523 234.914 421.655 250.067C422.567 252.32 423 254.746 423 257.176Z" fill="black"/>
<path d="M15 183V106H44V155H98V106H132V155H186V106H215V183C215 194.046 206.046 203 195 203H35C23.9543 203 15 194.046 15 183Z" fill="#B9B6A9" stroke="black" stroke-width="3"/>
<path d="M77 257.176V306.5H137V257.176C137 254.746 136.567 252.32 135.655 250.067C129.523 234.914 125.08 231.18 115.024 226.541C109.948 224.2 104.052 224.2 98.9761 226.541C88.9203 231.18 84.4769 234.914 78.3448 250.067C77.4331 252.32 77 254.746 77 257.176Z" fill="black"/>
</svg>
