<svg xmlns="http://www.w3.org/2000/svg" width="512" height="512" viewBox="0 0 512 512" fill="none" role="img" aria-labelledby="title desc">
<title id="title">Wall — miniature stone fortification</title>
<desc id="desc">Editable vector artwork with a transparent canvas, warm limestone, beveled masonry, and soft light from the upper left. No embedded raster images. All buildings share a bottom anchor and projection.</desc>
<defs>
  <linearGradient id="stone-front" x1="0" y1="0" x2="0.8" y2="1" gradientUnits="objectBoundingBox"><stop stop-color="#dfd1ad"/><stop offset=".5" stop-color="#cfc09a"/><stop offset="1" stop-color="#b9a783"/></linearGradient>
  <linearGradient id="stone-side" x1="0" y1="0" x2="1" y2=".6"><stop stop-color="#a99a7d"/><stop offset="1" stop-color="#827660"/></linearGradient>
  <linearGradient id="stone-top" x1="0" y1="0" x2=".6" y2="1"><stop stop-color="#f5e8c4"/><stop offset="1" stop-color="#d8c69d"/></linearGradient>
  <linearGradient id="cap-front" x1="0" y1="0" x2="0" y2="1"><stop stop-color="#e4d5ae"/><stop offset=".65" stop-color="#cbbb94"/><stop offset="1" stop-color="#ae9b76"/></linearGradient>
  <linearGradient id="wood" x1="0" y1="0" x2="1" y2=".1"><stop stop-color="#654b31"/><stop offset=".28" stop-color="#997046"/><stop offset=".7" stop-color="#8c643e"/><stop offset="1" stop-color="#5b452f"/></linearGradient>
  <linearGradient id="recess" x1="0" y1="0" x2="1" y2=".8"><stop stop-color="#282820"/><stop offset="1" stop-color="#514938"/></linearGradient>
  <radialGradient id="contact"><stop stop-color="#322d23" stop-opacity=".24"/><stop offset=".7" stop-color="#322d23" stop-opacity=".09"/><stop offset="1" stop-color="#322d23" stop-opacity="0"/></radialGradient>
</defs>
<g id="ground-shadow"><ellipse cx="256" cy="463" rx="219.3" ry="15" fill="url(#contact)"/></g>
<g id="building" transform="translate(242.2 461.16) scale(1.11)" stroke-linejoin="round" stroke-linecap="round">
<g id="wall-segment"><polygon points="175,4.38 199.96,-16.43 199.96,-183.43 175,-162.62" fill="url(#stone-side)" /><polygon points="-175,-4.38 175,4.38 175,-162.62 -175,-171.38" fill="url(#stone-front)" /><polygon points="-175,-171.38 175,-162.62 199.96,-183.43 -150.04,-192.18" fill="url(#stone-top)" /><g transform="matrix(.48 -.4 0 1 175 -162.62)"><rect width="52" height="167" fill="#7d715a"/><rect x="0.8" y="0.8" width="50.4" height="54.07" rx="4.5" fill="url(#stone-side)"/><path d="M2.3 50.37 V5.3 Q2.3 2.2 5.3 2.2 H46.7" fill="none" stroke="#fff0ce" stroke-opacity="0.13" stroke-width="1.5"/><path d="M5.3 53.57 H46.7 Q49.8 53.57 49.8 50.37" fill="none" stroke="#76664e" stroke-opacity=".25" stroke-width="1.4"/><path d="M7.35 20.26 l7.06 -3.24 l3.53 5.41 l-7.56 2.70 Z" fill="#fff0ce" opacity=".13"/><rect x="0.8" y="56.47" width="27.52" height="54.07" rx="2.75" fill="url(#stone-side)"/><path d="M2.3 107.78 V59.22 Q2.3 57.87 3.55 57.87 H25.57" fill="none" stroke="#fff0ce" stroke-opacity="0.13" stroke-width="1.5"/><path d="M3.55 109.23 H25.57 Q26.92 109.23 26.92 107.78" fill="none" stroke="#76664e" stroke-opacity=".25" stroke-width="1.4"/><rect x="29.92" y="56.47" width="21.28" height="54.07" rx="2.13" fill="url(#stone-side)"/><path d="M31.42 108.41 V58.59 Q31.42 57.87 32.05 57.87 H49.07" fill="none" stroke="#fff0ce" stroke-opacity="0.13" stroke-width="1.5"/><path d="M32.05 109.23 H49.07 Q49.8 109.23 49.8 108.41" fill="none" stroke="#76664e" stroke-opacity=".25" stroke-width="1.4"/><rect x="0.8" y="112.13" width="50.4" height="54.07" rx="4.5" fill="url(#stone-side)"/><rect x="0.8" y="112.13" width="50.4" height="54.07" rx="4.5" fill="#756b55" opacity=".045"/><path d="M2.3 161.7 V116.63 Q2.3 113.53 5.3 113.53 H46.7" fill="none" stroke="#fff0ce" stroke-opacity="0.13" stroke-width="1.5"/><path d="M5.3 164.9 H46.7 Q49.8 164.9 49.8 161.7" fill="none" stroke="#76664e" stroke-opacity=".25" stroke-width="1.4"/><path d="M7.35 131.6 l7.06 -3.24 l3.53 5.41 l-7.56 2.70 Z" fill="#fff0ce" opacity=".13"/></g><g transform="matrix(1 .025 0 1 -175 -171.38)"><rect width="350" height="167" fill="#9e8e6e"/><rect x="0.8" y="0.8" width="68.4" height="54.07" rx="4.5" fill="url(#stone-front)"/><path d="M2.3 50.37 V5.3 Q2.3 2.2 5.3 2.2 H64.7" fill="none" stroke="#fff0ce" stroke-opacity="0.43" stroke-width="1.5"/><path d="M5.3 53.57 H64.7 Q67.8 53.57 67.8 50.37" fill="none" stroke="#76664e" stroke-opacity=".25" stroke-width="1.4"/><path d="M9.69 20.26 l9.58 -3.24 l4.79 5.41 l-10.26 2.70 Z" fill="#fff0ce" opacity=".13"/><rect x="70.8" y="0.8" width="68.4" height="54.07" rx="4.5" fill="url(#stone-front)"/><rect x="70.8" y="0.8" width="68.4" height="54.07" rx="4.5" fill="#f9e9c3" opacity=".075"/><path d="M72.3 50.37 V5.3 Q72.3 2.2 75.3 2.2 H134.7" fill="none" stroke="#fff0ce" stroke-opacity="0.43" stroke-width="1.5"/><path d="M75.3 53.57 H134.7 Q137.8 53.57 137.8 50.37" fill="none" stroke="#76664e" stroke-opacity=".25" stroke-width="1.4"/><rect x="140.8" y="0.8" width="68.4" height="54.07" rx="4.5" fill="url(#stone-front)"/><rect x="140.8" y="0.8" width="68.4" height="54.07" rx="4.5" fill="#756b55" opacity=".045"/><path d="M142.3 50.37 V5.3 Q142.3 2.2 145.3 2.2 H204.7" fill="none" stroke="#fff0ce" stroke-opacity="0.43" stroke-width="1.5"/><path d="M145.3 53.57 H204.7 Q207.8 53.57 207.8 50.37" fill="none" stroke="#76664e" stroke-opacity=".25" stroke-width="1.4"/><rect x="210.8" y="0.8" width="68.4" height="54.07" rx="4.5" fill="url(#stone-front)"/><path d="M212.3 50.37 V5.3 Q212.3 2.2 215.3 2.2 H274.7" fill="none" stroke="#fff0ce" stroke-opacity="0.43" stroke-width="1.5"/><path d="M215.3 53.57 H274.7 Q277.8 53.57 277.8 50.37" fill="none" stroke="#76664e" stroke-opacity=".25" stroke-width="1.4"/><path d="M219.69 20.26 l9.58 -3.24 l4.79 5.41 l-10.26 2.70 Z" fill="#fff0ce" opacity=".13"/><rect x="280.8" y="0.8" width="68.4" height="54.07" rx="4.5" fill="url(#stone-front)"/><path d="M282.3 50.37 V5.3 Q282.3 2.2 285.3 2.2 H344.7" fill="none" stroke="#fff0ce" stroke-opacity="0.43" stroke-width="1.5"/><path d="M285.3 53.57 H344.7 Q347.8 53.57 347.8 50.37" fill="none" stroke="#76664e" stroke-opacity=".25" stroke-width="1.4"/><rect x="0.8" y="56.47" width="33.4" height="54.07" rx="3.34" fill="url(#stone-front)"/><path d="M2.3 107.19 V59.81 Q2.3 57.87 4.14 57.87 H30.86" fill="none" stroke="#fff0ce" stroke-opacity="0.43" stroke-width="1.5"/><path d="M4.14 109.23 H30.86 Q32.8 109.23 32.8 107.19" fill="none" stroke="#76664e" stroke-opacity=".25" stroke-width="1.4"/><rect x="35.8" y="56.47" width="68.4" height="54.07" rx="4.5" fill="url(#stone-front)"/><path d="M37.3 106.03 V60.97 Q37.3 57.87 40.3 57.87 H99.7" fill="none" stroke="#fff0ce" stroke-opacity="0.43" stroke-width="1.5"/><path d="M40.3 109.23 H99.7 Q102.8 109.23 102.8 106.03" fill="none" stroke="#76664e" stroke-opacity=".25" stroke-width="1.4"/><rect x="105.8" y="56.47" width="68.4" height="54.07" rx="4.5" fill="url(#stone-front)"/><rect x="105.8" y="56.47" width="68.4" height="54.07" rx="4.5" fill="#f9e9c3" opacity=".075"/><path d="M107.3 106.03 V60.97 Q107.3 57.87 110.3 57.87 H169.7" fill="none" stroke="#fff0ce" stroke-opacity="0.43" stroke-width="1.5"/><path d="M110.3 109.23 H169.7 Q172.8 109.23 172.8 106.03" fill="none" stroke="#76664e" stroke-opacity=".25" stroke-width="1.4"/><rect x="175.8" y="56.47" width="68.4" height="54.07" rx="4.5" fill="url(#stone-front)"/><rect x="175.8" y="56.47" width="68.4" height="54.07" rx="4.5" fill="#756b55" opacity=".045"/><path d="M177.3 106.03 V60.97 Q177.3 57.87 180.3 57.87 H239.7" fill="none" stroke="#fff0ce" stroke-opacity="0.43" stroke-width="1.5"/><path d="M180.3 109.23 H239.7 Q242.8 109.23 242.8 106.03" fill="none" stroke="#76664e" stroke-opacity=".25" stroke-width="1.4"/><path d="M184.69 75.93 l9.58 -3.24 l4.79 5.41 l-10.26 2.70 Z" fill="#fff0ce" opacity=".13"/><rect x="245.8" y="56.47" width="68.4" height="54.07" rx="4.5" fill="url(#stone-front)"/><path d="M247.3 106.03 V60.97 Q247.3 57.87 250.3 57.87 H309.7" fill="none" stroke="#fff0ce" stroke-opacity="0.43" stroke-width="1.5"/><path d="M250.3 109.23 H309.7 Q312.8 109.23 312.8 106.03" fill="none" stroke="#76664e" stroke-opacity=".25" stroke-width="1.4"/><rect x="315.8" y="56.47" width="33.4" height="54.07" rx="3.34" fill="url(#stone-front)"/><path d="M317.3 107.19 V59.81 Q317.3 57.87 319.14 57.87 H345.86" fill="none" stroke="#fff0ce" stroke-opacity="0.43" stroke-width="1.5"/><path d="M319.14 109.23 H345.86 Q347.8 109.23 347.8 107.19" fill="none" stroke="#76664e" stroke-opacity=".25" stroke-width="1.4"/><rect x="0.8" y="112.13" width="68.4" height="54.07" rx="4.5" fill="url(#stone-front)"/><rect x="0.8" y="112.13" width="68.4" height="54.07" rx="4.5" fill="#756b55" opacity=".045"/><path d="M2.3 161.7 V116.63 Q2.3 113.53 5.3 113.53 H64.7" fill="none" stroke="#fff0ce" stroke-opacity="0.43" stroke-width="1.5"/><path d="M5.3 164.9 H64.7 Q67.8 164.9 67.8 161.7" fill="none" stroke="#76664e" stroke-opacity=".25" stroke-width="1.4"/><path d="M9.69 131.6 l9.58 -3.24 l4.79 5.41 l-10.26 2.70 Z" fill="#fff0ce" opacity=".13"/><rect x="70.8" y="112.13" width="68.4" height="54.07" rx="4.5" fill="url(#stone-front)"/><path d="M72.3 161.7 V116.63 Q72.3 113.53 75.3 113.53 H134.7" fill="none" stroke="#fff0ce" stroke-opacity="0.43" stroke-width="1.5"/><path d="M75.3 164.9 H134.7 Q137.8 164.9 137.8 161.7" fill="none" stroke="#76664e" stroke-opacity=".25" stroke-width="1.4"/><rect x="140.8" y="112.13" width="68.4" height="54.07" rx="4.5" fill="url(#stone-front)"/><path d="M142.3 161.7 V116.63 Q142.3 113.53 145.3 113.53 H204.7" fill="none" stroke="#fff0ce" stroke-opacity="0.43" stroke-width="1.5"/><path d="M145.3 164.9 H204.7 Q207.8 164.9 207.8 161.7" fill="none" stroke="#76664e" stroke-opacity=".25" stroke-width="1.4"/><rect x="210.8" y="112.13" width="68.4" height="54.07" rx="4.5" fill="url(#stone-front)"/><rect x="210.8" y="112.13" width="68.4" height="54.07" rx="4.5" fill="#f9e9c3" opacity=".075"/><path d="M212.3 161.7 V116.63 Q212.3 113.53 215.3 113.53 H274.7" fill="none" stroke="#fff0ce" stroke-opacity="0.43" stroke-width="1.5"/><path d="M215.3 164.9 H274.7 Q277.8 164.9 277.8 161.7" fill="none" stroke="#76664e" stroke-opacity=".25" stroke-width="1.4"/><path d="M219.69 131.6 l9.58 -3.24 l4.79 5.41 l-10.26 2.70 Z" fill="#fff0ce" opacity=".13"/><rect x="280.8" y="112.13" width="68.4" height="54.07" rx="4.5" fill="url(#stone-front)"/><rect x="280.8" y="112.13" width="68.4" height="54.07" rx="4.5" fill="#756b55" opacity=".045"/><path d="M282.3 161.7 V116.63 Q282.3 113.53 285.3 113.53 H344.7" fill="none" stroke="#fff0ce" stroke-opacity="0.43" stroke-width="1.5"/><path d="M285.3 164.9 H344.7 Q347.8 164.9 347.8 161.7" fill="none" stroke="#76664e" stroke-opacity=".25" stroke-width="1.4"/></g><polygon points="-175,-171.38 175,-162.62 199.96,-183.43 -150.04,-192.18" fill="url(#stone-top)" /><polygon points="178.08,-160.9 206.88,-184.9 206.88,-201.9 178.08,-177.9" fill="url(#stone-side)" /><polygon points="-181.92,-169.9 178.08,-160.9 178.08,-177.9 -181.92,-186.9" fill="url(#cap-front)" /><polygon points="-181.92,-186.9 178.08,-177.9 206.88,-201.9 -153.12,-210.9" fill="url(#stone-top)" /><polygon points="-142.92,-185.93 -114.12,-209.93 -114.12,-245.93 -142.92,-221.93" fill="url(#stone-side)" /><polygon points="-181.92,-186.9 -142.92,-185.93 -142.92,-221.93 -181.92,-222.9" fill="url(#cap-front)" /><polygon points="-181.92,-222.9 -142.92,-221.93 -114.12,-245.93 -153.12,-246.9" fill="url(#stone-top)" /><g transform="matrix(1 .025 0 1 -181.92 -222.9)"><rect x="0" y="0" width="39" height="36" rx="3.9" fill="url(#stone-front)"/><rect x="0" y="0" width="39" height="36" rx="3.9" fill="#f9e9c3" opacity=".075"/><path d="M1.5 32.1 V3.9 Q1.5 1.4 3.9 1.4 H35.1" fill="none" stroke="#fff0ce" stroke-opacity="0.43" stroke-width="1.5"/><path d="M3.9 34.7 H35.1 Q37.6 34.7 37.6 32.1" fill="none" stroke="#76664e" stroke-opacity=".25" stroke-width="1.4"/></g><polygon points="-181.92,-219.9 -178.92,-222.83 -145.92,-222 -142.92,-218.93" fill="#f6e7c0" /><polygon points="-181.92,-219.9 -180.48,-224.1 -141.48,-223.12 -142.92,-218.93" fill="url(#stone-top)" /><polygon points="-78.72,-184.32 -49.92,-208.32 -49.92,-244.32 -78.72,-220.32" fill="url(#stone-side)" /><polygon points="-117.72,-185.3 -78.72,-184.32 -78.72,-220.32 -117.72,-221.3" fill="url(#cap-front)" /><polygon points="-117.72,-221.3 -78.72,-220.32 -49.92,-244.32 -88.92,-245.3" fill="url(#stone-top)" /><g transform="matrix(1 .025 0 1 -117.72 -221.3)"><rect x="0" y="0" width="39" height="36" rx="3.9" fill="url(#stone-front)"/><rect x="0" y="0" width="39" height="36" rx="3.9" fill="#f9e9c3" opacity=".075"/><path d="M1.5 32.1 V3.9 Q1.5 1.4 3.9 1.4 H35.1" fill="none" stroke="#fff0ce" stroke-opacity="0.43" stroke-width="1.5"/><path d="M3.9 34.7 H35.1 Q37.6 34.7 37.6 32.1" fill="none" stroke="#76664e" stroke-opacity=".25" stroke-width="1.4"/></g><polygon points="-117.72,-218.3 -114.72,-221.22 -81.72,-220.4 -78.72,-217.32" fill="#f6e7c0" /><polygon points="-117.72,-218.3 -116.28,-222.5 -77.28,-221.52 -78.72,-217.32" fill="url(#stone-top)" /><polygon points="-14.52,-182.72 14.28,-206.72 14.28,-242.72 -14.52,-218.72" fill="url(#stone-side)" /><polygon points="-53.52,-183.69 -14.52,-182.72 -14.52,-218.72 -53.52,-219.69" fill="url(#cap-front)" /><polygon points="-53.52,-219.69 -14.52,-218.72 14.28,-242.72 -24.72,-243.69" fill="url(#stone-top)" /><g transform="matrix(1 .025 0 1 -53.52 -219.69)"><rect x="0" y="0" width="39" height="36" rx="3.9" fill="url(#stone-front)"/><rect x="0" y="0" width="39" height="36" rx="3.9" fill="#f9e9c3" opacity=".075"/><path d="M1.5 32.1 V3.9 Q1.5 1.4 3.9 1.4 H35.1" fill="none" stroke="#fff0ce" stroke-opacity="0.43" stroke-width="1.5"/><path d="M3.9 34.7 H35.1 Q37.6 34.7 37.6 32.1" fill="none" stroke="#76664e" stroke-opacity=".25" stroke-width="1.4"/></g><polygon points="-53.52,-216.69 -50.52,-219.62 -17.52,-218.79 -14.52,-215.72" fill="#f6e7c0" /><polygon points="-53.52,-216.69 -52.08,-220.89 -13.08,-219.91 -14.52,-215.72" fill="url(#stone-top)" /><polygon points="49.68,-181.11 78.48,-205.11 78.48,-241.11 49.68,-217.11" fill="url(#stone-side)" /><polygon points="10.68,-182.09 49.68,-181.11 49.68,-217.11 10.68,-218.09" fill="url(#cap-front)" /><polygon points="10.68,-218.09 49.68,-217.11 78.48,-241.11 39.48,-242.09" fill="url(#stone-top)" /><g transform="matrix(1 .025 0 1 10.68 -218.09)"><rect x="0" y="0" width="39" height="36" rx="3.9" fill="url(#stone-front)"/><rect x="0" y="0" width="39" height="36" rx="3.9" fill="#f9e9c3" opacity=".075"/><path d="M1.5 32.1 V3.9 Q1.5 1.4 3.9 1.4 H35.1" fill="none" stroke="#fff0ce" stroke-opacity="0.43" stroke-width="1.5"/><path d="M3.9 34.7 H35.1 Q37.6 34.7 37.6 32.1" fill="none" stroke="#76664e" stroke-opacity=".25" stroke-width="1.4"/></g><polygon points="10.68,-215.09 13.68,-218.01 46.68,-217.19 49.68,-214.11" fill="#f6e7c0" /><polygon points="10.68,-215.09 12.12,-219.28 51.12,-218.31 49.68,-214.11" fill="url(#stone-top)" /><polygon points="113.88,-179.5 142.68,-203.5 142.68,-239.5 113.88,-215.5" fill="url(#stone-side)" /><polygon points="74.88,-180.48 113.88,-179.5 113.88,-215.5 74.88,-216.48" fill="url(#cap-front)" /><polygon points="74.88,-216.48 113.88,-215.5 142.68,-239.5 103.68,-240.48" fill="url(#stone-top)" /><g transform="matrix(1 .025 0 1 74.88 -216.48)"><rect x="0" y="0" width="39" height="36" rx="3.9" fill="url(#stone-front)"/><rect x="0" y="0" width="39" height="36" rx="3.9" fill="#f9e9c3" opacity=".075"/><path d="M1.5 32.1 V3.9 Q1.5 1.4 3.9 1.4 H35.1" fill="none" stroke="#fff0ce" stroke-opacity="0.43" stroke-width="1.5"/><path d="M3.9 34.7 H35.1 Q37.6 34.7 37.6 32.1" fill="none" stroke="#76664e" stroke-opacity=".25" stroke-width="1.4"/></g><polygon points="74.88,-213.48 77.88,-216.41 110.88,-215.58 113.88,-212.5" fill="#f6e7c0" /><polygon points="74.88,-213.48 76.32,-217.68 115.32,-216.7 113.88,-212.5" fill="url(#stone-top)" /><polygon points="178.08,-177.9 206.88,-201.9 206.88,-237.9 178.08,-213.9" fill="url(#stone-side)" /><polygon points="139.08,-178.88 178.08,-177.9 178.08,-213.9 139.08,-214.88" fill="url(#cap-front)" /><polygon points="139.08,-214.88 178.08,-213.9 206.88,-237.9 167.88,-238.88" fill="url(#stone-top)" /><g transform="matrix(1 .025 0 1 139.08 -214.88)"><rect x="0" y="0" width="39" height="36" rx="3.9" fill="url(#stone-front)"/><rect x="0" y="0" width="39" height="36" rx="3.9" fill="#f9e9c3" opacity=".075"/><path d="M1.5 32.1 V3.9 Q1.5 1.4 3.9 1.4 H35.1" fill="none" stroke="#fff0ce" stroke-opacity="0.43" stroke-width="1.5"/><path d="M3.9 34.7 H35.1 Q37.6 34.7 37.6 32.1" fill="none" stroke="#76664e" stroke-opacity=".25" stroke-width="1.4"/></g><polygon points="139.08,-211.88 142.08,-214.8 175.08,-213.97 178.08,-210.9" fill="#f6e7c0" /><polygon points="139.08,-211.88 140.52,-216.07 179.52,-215.1 178.08,-210.9" fill="url(#stone-top)" /></g>
</g>
</svg>