<svg width="512" height="512" viewBox="0 0 512 512" fill="none" xmlns="http://www.w3.org/2000/svg">
<g clip-path="url(#clip0)">
<path d="M40 220V477C40 488.046 48.9543 497 60 497H434C445.046 497 454 488.046 454 477V220H322H190H40Z" fill="#CDCABB"/>
<path fill-rule="evenodd" clip-rule="evenodd" d="M38.5 218.5H455.5V477C455.5 488.874 445.874 498.5 434 498.5H60C48.1259 498.5 38.5 488.874 38.5 477V218.5ZM41.5 221.5V477C41.5 487.217 49.7827 495.5 60 495.5H434C444.217 495.5 452.5 487.217 452.5 477V221.5H41.5Z" fill="black"/>
<path d="M18 225V148H47V197H101V148H135V197H189V148H223V197H277V148H311V197H365V148H399V197H453V148H482V225C482 236.046 473.046 245 462 245H38C26.9543 245 18 236.046 18 225Z" fill="#B9B6A9"/>
<path fill-rule="evenodd" clip-rule="evenodd" d="M16.5 146.5H48.5V195.5H99.5V146.5H136.5V195.5H187.5V146.5H224.5V195.5H275.5V146.5H312.5V195.5H363.5V146.5H400.5V195.5H451.5V146.5H483.5V225C483.5 236.874 473.874 246.5 462 246.5H38C26.1259 246.5 16.5 236.874 16.5 225V146.5ZM19.5 149.5V225C19.5 235.217 27.7827 243.5 38 243.5H462C472.217 243.5 480.5 235.217 480.5 225V149.5H454.5V198.5H397.5V149.5H366.5V198.5H309.5V149.5H278.5V198.5H221.5V149.5H190.5V198.5H133.5V149.5H102.5V198.5H45.5V149.5H19.5Z" fill="black"/>
</g>
<defs>
<clipPath id="clip0">
<rect width="512" height="512" fill="white"/>
</clipPath>
</defs>
</svg>
