<svg width="512" height="512" viewBox="0 0 512 512" fill="none" xmlns="http://www.w3.org/2000/svg">
<g clip-path="url(#clip0)">
<path fill-rule="evenodd" clip-rule="evenodd" d="M332.2 415H286.9V458H287.016C287.474 471.896 297.432 483 309.65 483C322.159 483 332.3 471.359 332.3 457C332.3 456.171 332.266 455.35 332.2 454.541V415Z" fill="#F1D791"/>
<path d="M286.9 415V413.5H285.4V415H286.9ZM332.2 415H333.7V413.5H332.2V415ZM286.9 458H285.4V459.5H286.9V458ZM287.016 458L288.516 457.951L288.468 456.5H287.016V458ZM332.2 454.541H330.7V454.602L330.705 454.663L332.2 454.541ZM286.9 416.5H332.2V413.5H286.9V416.5ZM288.4 458V415H285.4V458H288.4ZM287.016 456.5H286.9V459.5H287.016V456.5ZM309.65 481.5C298.423 481.5 288.953 471.232 288.516 457.951L285.517 458.049C285.995 472.56 296.442 484.5 309.65 484.5V481.5ZM330.8 457C330.8 470.732 321.143 481.5 309.65 481.5V484.5C323.175 484.5 333.8 471.987 333.8 457H330.8ZM330.705 454.663C330.768 455.432 330.8 456.211 330.8 457H333.8C333.8 456.13 333.764 455.269 333.695 454.419L330.705 454.663ZM330.7 415V454.541H333.7V415H330.7Z" fill="black"/>
<path fill-rule="evenodd" clip-rule="evenodd" d="M226 415H180.7V457V458H180.715C181.156 472.448 191.122 484 203.35 484C215.578 484 225.543 472.448 225.985 458H226V457V415Z" fill="#F1D791"/>
<path d="M180.7 415V413.5H179.2V415H180.7ZM226 415H227.5V413.5H226V415ZM180.7 458H179.2V459.5H180.7V458ZM180.715 458L182.214 457.954L182.17 456.5H180.715V458ZM225.985 458V456.5H224.53L224.485 457.954L225.985 458ZM226 458V459.5H227.5V458H226ZM180.7 416.5H226V413.5H180.7V416.5ZM182.2 457V415H179.2V457H182.2ZM182.2 458V457H179.2V458H182.2ZM180.715 456.5H180.7V459.5H180.715V456.5ZM203.35 482.5C192.16 482.5 182.639 471.841 182.214 457.954L179.216 458.046C179.674 473.055 190.083 485.5 203.35 485.5V482.5ZM224.485 457.954C224.061 471.841 214.54 482.5 203.35 482.5V485.5C216.617 485.5 227.026 473.055 227.484 458.046L224.485 457.954ZM226 456.5H225.985V459.5H226V456.5ZM224.5 457V458H227.5V457H224.5ZM224.5 415V457H227.5V415H224.5Z" fill="black"/>
<path d="M180.7 415H226V346.596C226 343.954 226.773 341.37 228.224 339.162L228.576 338.626C241.97 318.249 271.971 318.607 284.875 339.299C286.198 341.421 286.9 343.873 286.9 346.374V415H308.5H332.2V294L180.7 295V415Z" fill="#4B842B"/>
<path d="M226 415V416.5H227.5V415H226ZM180.7 415H179.2V416.5H180.7V415ZM180.7 295L180.69 293.5L179.2 293.51V295H180.7ZM228.224 339.162L226.971 338.338L226.971 338.338L228.224 339.162ZM228.576 338.626L229.83 339.45L229.83 339.45L228.576 338.626ZM332.2 294H333.7V292.49L332.19 292.5L332.2 294ZM332.2 415V416.5H333.7V415H332.2ZM286.9 415H285.4V416.5H286.9V415ZM284.875 339.299L283.602 340.093V340.093L284.875 339.299ZM226 413.5H180.7V416.5H226V413.5ZM182.2 415V295H179.2V415H182.2ZM224.5 346.596V415H227.5V346.596H224.5ZM229.478 339.986L229.83 339.45L227.323 337.803L226.971 338.338L229.478 339.986ZM330.7 294V415H333.7V294H330.7ZM288.4 415V346.374H285.4V415H288.4ZM180.71 296.5L332.21 295.5L332.19 292.5L180.69 293.5L180.71 296.5ZM332.2 413.5H308.5V416.5H332.2V413.5ZM308.5 413.5H286.9V416.5H308.5V413.5ZM283.602 340.093C284.777 341.977 285.4 344.153 285.4 346.374H288.4C288.4 343.592 287.62 340.866 286.147 338.505L283.602 340.093ZM229.83 339.45C242.622 319.987 271.278 320.329 283.602 340.093L286.147 338.505C272.665 316.885 241.318 316.51 227.323 337.803L229.83 339.45ZM227.5 346.596C227.5 344.247 228.187 341.949 229.478 339.986L226.971 338.338C225.359 340.791 224.5 343.662 224.5 346.596H227.5Z" fill="black"/>
<rect x="182.2" y="413" width="42.2" height="4" fill="#4B842B"/>
<rect x="288.4" y="413" width="42.3" height="4" fill="#4B842B"/>
<mask id="path-9-outside-1" maskUnits="userSpaceOnUse" x="56.0371" y="132" width="371" height="186" fill="black">
<rect fill="white" x="56.0371" y="132" width="371" height="186"/>
<path d="M315.609 135H186.677C178.313 135 170.07 137.078 162.76 141.144C108.879 171.106 81.9996 191.95 61.5 253L60.5135 257.787C56.3114 278.177 80.9334 289.403 94.0063 276.736C97.1288 273.711 98.4015 269.357 99.6224 265.18L99.6625 265.043C112.663 220.576 147.155 192.617 182.2 184.5V297H330.7V184.5L331.251 185.4C358.086 229.217 373.144 253.803 384.342 297.557C385.431 301.815 386.734 306.226 389.89 309.285C402.963 321.952 427.585 310.725 423.383 290.335L422.397 285.549C403.02 227.843 387.683 194.365 352.531 151.904C343.472 140.962 329.814 135 315.609 135Z"/>
</mask>
<path d="M315.609 135H186.677C178.313 135 170.07 137.078 162.76 141.144C108.879 171.106 81.9996 191.95 61.5 253L60.5135 257.787C56.3114 278.177 80.9334 289.403 94.0063 276.736C97.1288 273.711 98.4015 269.357 99.6224 265.18L99.6625 265.043C112.663 220.576 147.155 192.617 182.2 184.5V297H330.7V184.5L331.251 185.4C358.086 229.217 373.144 253.803 384.342 297.557C385.431 301.815 386.734 306.226 389.89 309.285C402.963 321.952 427.585 310.725 423.383 290.335L422.397 285.549C403.02 227.843 387.683 194.365 352.531 151.904C343.472 140.962 329.814 135 315.609 135Z" fill="#78A85D"/>
<path d="M330.7 297V300C332.356 300 333.7 298.657 333.7 297H330.7ZM182.2 297H179.2C179.2 298.657 180.543 300 182.2 300V297ZM162.76 141.144L161.302 138.522V138.522L162.76 141.144ZM61.5 253L58.656 252.045C58.6176 252.16 58.5861 252.276 58.5617 252.394L61.5 253ZM99.6625 265.043L96.7831 264.201L96.783 264.201L99.6625 265.043ZM182.2 184.5H185.2C185.2 183.585 184.782 182.721 184.066 182.152C183.35 181.582 182.414 181.371 181.523 181.577L182.2 184.5ZM60.5135 257.787L57.5752 257.181H57.5752L60.5135 257.787ZM94.0063 276.736L91.9188 274.582H91.9188L94.0063 276.736ZM352.531 151.904L354.841 149.99V149.99L352.531 151.904ZM422.397 285.549L425.335 284.943C425.31 284.825 425.279 284.708 425.241 284.594L422.397 285.549ZM384.342 297.557L387.248 296.813V296.813L384.342 297.557ZM331.251 185.4L328.692 186.966L331.251 185.4ZM330.7 184.5L333.258 182.933C332.556 181.788 331.179 181.248 329.886 181.613C328.593 181.977 327.7 183.157 327.7 184.5H330.7ZM423.383 290.335L426.321 289.73L423.383 290.335ZM389.89 309.285L387.803 311.439L389.89 309.285ZM99.6224 265.18L96.7429 264.338L96.7429 264.338L99.6224 265.18ZM186.677 138H315.609V132H186.677V138ZM330.7 294H182.2V300H330.7V294ZM161.302 138.522C134.336 153.517 113.804 166.398 97.454 183.33C81.0473 200.321 69.0062 221.221 58.656 252.045L64.344 253.955C74.4935 223.729 86.1418 203.683 101.77 187.498C117.455 171.255 137.303 158.732 164.218 143.765L161.302 138.522ZM102.542 265.885C115.226 222.499 148.845 195.305 182.876 187.423L181.523 181.577C145.464 189.929 110.1 218.652 96.7831 264.201L102.542 265.885ZM58.5617 252.394L57.5752 257.181L63.4517 258.392L64.4383 253.606L58.5617 252.394ZM57.5752 257.181C55.1713 268.846 61.0904 278.006 69.3993 282.32C77.6054 286.581 88.4756 286.272 96.0939 278.891L91.9188 274.582C86.4641 279.867 78.4868 280.278 72.1643 276.995C65.9444 273.766 61.6536 267.117 63.4517 258.392L57.5752 257.181ZM350.22 153.817C385.053 195.892 400.242 228.993 419.553 286.504L425.241 284.594C405.798 226.692 390.314 192.839 354.841 149.99L350.22 153.817ZM387.248 296.813C375.926 252.575 360.642 227.646 333.809 183.833L328.692 186.966C355.53 230.787 370.361 255.03 381.435 298.301L387.248 296.813ZM333.809 183.833L333.258 182.933L328.141 186.067L328.692 186.966L333.809 183.833ZM419.458 286.154L420.445 290.941L426.321 289.73L425.335 284.943L419.458 286.154ZM420.445 290.941C422.243 299.666 417.952 306.314 411.732 309.544C405.41 312.827 397.432 312.416 391.978 307.13L387.803 311.439C395.421 318.821 406.291 319.13 414.497 314.869C422.806 310.555 428.725 301.395 426.321 289.73L420.445 290.941ZM179.2 184.5V297H185.2V184.5H179.2ZM327.7 184.5V297H333.7V184.5H327.7ZM381.435 298.301C382.506 302.486 383.959 307.715 387.803 311.439L391.978 307.13C389.508 304.737 388.356 301.144 387.248 296.813L381.435 298.301ZM315.609 138C328.988 138 341.773 143.614 350.22 153.817L354.841 149.99C345.171 138.31 330.64 132 315.609 132V138ZM96.783 264.201L96.7429 264.338L102.502 266.021L102.542 265.884L96.783 264.201ZM96.7429 264.338C95.473 268.683 94.3715 272.205 91.9188 274.582L96.0939 278.891C99.886 275.216 101.33 270.031 102.502 266.021L96.7429 264.338ZM186.677 132C177.817 132 169.071 134.202 161.302 138.522L164.218 143.765C171.07 139.955 178.809 138 186.677 138V132Z" fill="black" mask="url(#path-9-outside-1)"/>
<path d="M60.4764 258.336L61.4629 253.549C69 228 81 206 94.5 191L128 215.5C117.068 226.432 105.899 244.112 99.6238 265.598L99.5884 265.719C98.3672 269.902 97.0957 274.256 93.9693 277.285C80.8963 289.952 56.2744 278.725 60.4764 258.336Z" fill="#F1D791"/>
<path d="M423.383 290.335L422.397 285.549C413.942 260.371 406.257 239.805 397.36 221.094L364.402 243C372.563 259.6 378.909 276.325 384.345 297.569C385.434 301.827 386.734 306.226 389.89 309.285C402.963 321.952 427.585 310.725 423.383 290.335Z" fill="#F1D791"/>
<circle cx="256" cy="91" r="62.5" fill="#F1D791" stroke="black" stroke-width="3"/>
<circle cx="236" cy="71" r="13" fill="black"/>
<circle cx="277" cy="71" r="13" fill="black"/>
<rect x="223" y="110" width="67" height="13" rx="6.5" fill="white"/>
<path d="M128.289 131.403L168.402 339.061" stroke="white" stroke-width="7"/>
<path fill-rule="evenodd" clip-rule="evenodd" d="M109.917 302.724C123.596 313.573 141.893 321.581 173.612 334.013L169.963 343.324C138.495 330.99 118.751 322.494 103.703 310.559C88.4787 298.484 78.3771 283.162 65.3421 258.082C63.1588 253.881 62.2413 249.128 62.7042 244.416C65.4675 216.287 69.1405 198.306 78.7766 181.432C88.3008 164.753 103.464 149.519 128.08 126.358L134.932 133.642C110.12 156.987 96.1178 171.23 87.4604 186.391C78.9148 201.355 75.3892 217.574 72.6563 245.394C72.3828 248.177 72.9255 250.988 74.2152 253.47C87.1066 278.274 96.4158 292.015 109.917 302.724Z" fill="#473514"/>
<path d="M86.7172 285.064C66.9664 260.289 64.4665 241.978 72.5003 211.417" stroke="#9A0101" stroke-width="12"/>
<path d="M356.447 302.899L366.927 305.274L368.915 308.481L370.907 311.694L368.375 322.136L348.707 334.332L351.145 323.737L349.247 320.676L347.353 317.622L336.779 315.095L356.447 302.899Z" fill="#9A0101"/>
<path fill-rule="evenodd" clip-rule="evenodd" d="M367.366 304.654L371.658 311.576L368.989 322.583L347.646 335.817L350.397 323.859L346.911 318.237L334.977 315.385L356.32 302.151L367.366 304.654ZM366.487 305.894L356.575 303.647L338.581 314.804L347.795 317.006L351.892 323.615L349.768 332.847L367.762 321.69L370.157 311.812L366.487 305.894Z" fill="black"/>
<path fill-rule="evenodd" clip-rule="evenodd" d="M445.681 264.932L351.209 323.51L347.507 317.538L441.978 258.961L445.681 264.932Z" fill="#473514"/>
<path fill-rule="evenodd" clip-rule="evenodd" d="M442.316 257.924L446.76 265.09L350.871 324.546L346.428 317.381L442.316 257.924ZM441.64 259.997L348.585 317.696L351.547 322.474L444.603 264.774L441.64 259.997Z" fill="black"/>
<path d="M464.883 248.891L429.353 251.233L444.024 261.825L447.006 279.703L464.883 248.891Z" fill="#CDD5E2"/>
<path fill-rule="evenodd" clip-rule="evenodd" d="M466.152 248.104L446.636 281.741L443.381 262.224L427.364 250.661L466.152 248.104ZM463.615 249.678L431.343 251.805L444.668 261.426L447.377 277.666L463.615 249.678Z" fill="black"/>
</g>
<defs>
<clipPath id="clip0">
<rect width="512" height="512" fill="white"/>
</clipPath>
</defs>
</svg>
