<svg width="512" height="512" viewBox="0 0 512 512" fill="none" xmlns="http://www.w3.org/2000/svg">
<g clip-path="url(#clip0)">
<path fill-rule="evenodd" clip-rule="evenodd" d="M334.2 415H288.9V458H289.016C289.474 471.896 299.432 483 311.65 483C324.159 483 334.3 471.359 334.3 457C334.3 456.171 334.266 455.35 334.2 454.541V415Z" fill="#F1D791"/>
<path d="M288.9 415V413.5H287.4V415H288.9ZM334.2 415H335.7V413.5H334.2V415ZM288.9 458H287.4V459.5H288.9V458ZM289.016 458L290.516 457.951L290.468 456.5H289.016V458ZM334.2 454.541H332.7V454.602L332.705 454.663L334.2 454.541ZM288.9 416.5H334.2V413.5H288.9V416.5ZM290.4 458V415H287.4V458H290.4ZM289.016 456.5H288.9V459.5H289.016V456.5ZM311.65 481.5C300.423 481.5 290.953 471.232 290.516 457.951L287.517 458.049C287.995 472.56 298.442 484.5 311.65 484.5V481.5ZM332.8 457C332.8 470.732 323.143 481.5 311.65 481.5V484.5C325.175 484.5 335.8 471.987 335.8 457H332.8ZM332.705 454.663C332.768 455.432 332.8 456.211 332.8 457H335.8C335.8 456.13 335.765 455.269 335.695 454.419L332.705 454.663ZM332.7 415V454.541H335.7V415H332.7Z" fill="black"/>
<path fill-rule="evenodd" clip-rule="evenodd" d="M228 415H182.7V457V458H182.715C183.157 472.448 193.122 484 205.35 484C217.578 484 227.543 472.448 227.985 458H228V457V415Z" fill="#F1D791"/>
<path d="M182.7 415V413.5H181.2V415H182.7ZM228 415H229.5V413.5H228V415ZM182.7 458H181.2V459.5H182.7V458ZM182.715 458L184.215 457.954L184.17 456.5H182.715V458ZM227.985 458V456.5H226.53L226.485 457.954L227.985 458ZM228 458V459.5H229.5V458H228ZM182.7 416.5H228V413.5H182.7V416.5ZM184.2 457V415H181.2V457H184.2ZM184.2 458V457H181.2V458H184.2ZM182.715 456.5H182.7V459.5H182.715V456.5ZM205.35 482.5C194.16 482.5 184.639 471.841 184.215 457.954L181.216 458.046C181.674 473.055 192.083 485.5 205.35 485.5V482.5ZM226.485 457.954C226.061 471.841 216.54 482.5 205.35 482.5V485.5C218.617 485.5 229.026 473.055 229.484 458.046L226.485 457.954ZM228 456.5H227.985V459.5H228V456.5ZM226.5 457V458H229.5V457H226.5ZM226.5 415V457H229.5V415H226.5Z" fill="black"/>
<path d="M182.7 415H228V346.596C228 343.954 228.773 341.37 230.224 339.162L230.576 338.626C243.97 318.249 273.972 318.607 286.875 339.299C288.198 341.421 288.9 343.873 288.9 346.374V415H310.5H334.2V294L182.7 295V415Z" fill="#82817F"/>
<path d="M228 415V416.5H229.5V415H228ZM182.7 415H181.2V416.5H182.7V415ZM182.7 295L182.69 293.5L181.2 293.51V295H182.7ZM230.224 339.162L228.971 338.338L228.971 338.338L230.224 339.162ZM230.576 338.626L231.83 339.45L231.83 339.45L230.576 338.626ZM334.2 294H335.7V292.49L334.19 292.5L334.2 294ZM334.2 415V416.5H335.7V415H334.2ZM288.9 415H287.4V416.5H288.9V415ZM286.875 339.299L285.602 340.093L285.602 340.093L286.875 339.299ZM228 413.5H182.7V416.5H228V413.5ZM184.2 415V295H181.2V415H184.2ZM226.5 346.596V415H229.5V346.596H226.5ZM231.478 339.986L231.83 339.45L229.323 337.803L228.971 338.338L231.478 339.986ZM332.7 294V415H335.7V294H332.7ZM290.4 415V346.374H287.4V415H290.4ZM182.71 296.5L334.21 295.5L334.19 292.5L182.69 293.5L182.71 296.5ZM334.2 413.5H310.5V416.5H334.2V413.5ZM310.5 413.5H288.9V416.5H310.5V413.5ZM285.602 340.093C286.777 341.977 287.4 344.153 287.4 346.374H290.4C290.4 343.592 289.62 340.866 288.148 338.505L285.602 340.093ZM231.83 339.45C244.623 319.987 273.278 320.329 285.602 340.093L288.148 338.505C274.665 316.885 243.318 316.51 229.323 337.803L231.83 339.45ZM229.5 346.596C229.5 344.247 230.187 341.949 231.478 339.986L228.971 338.338C227.359 340.791 226.5 343.662 226.5 346.596H229.5Z" fill="black"/>
<rect x="184.2" y="413" width="42.2" height="4" fill="#82817F"/>
<rect x="290.4" y="413" width="42.3" height="4" fill="#82817F"/>
<mask id="path-9-outside-1" maskUnits="userSpaceOnUse" x="86" y="132" width="343" height="186" fill="black">
<rect fill="white" x="86" y="132" width="343" height="186"/>
<path d="M317.609 135H198.251C184.046 135 170.388 140.962 161.329 151.904C126.176 194.365 110.84 227.843 91.4629 285.549L90.4764 290.336C86.2743 310.725 110.896 321.952 123.969 309.285C127.126 306.226 128.426 301.815 129.524 297.559C140.885 253.505 157.019 228.883 184.2 184.5V297H332.7V184.5L333.25 185.399C360.086 229.217 375.144 253.802 386.342 297.557C387.432 301.815 388.734 306.226 391.89 309.285C404.963 321.952 429.585 310.725 425.383 290.335L424.397 285.549C405.02 227.843 389.684 194.365 354.531 151.904C345.472 140.962 331.814 135 317.609 135Z"/>
</mask>
<path d="M317.609 135H198.251C184.046 135 170.388 140.962 161.329 151.904C126.176 194.365 110.84 227.843 91.4629 285.549L90.4764 290.336C86.2743 310.725 110.896 321.952 123.969 309.285C127.126 306.226 128.426 301.815 129.524 297.559C140.885 253.505 157.019 228.883 184.2 184.5V297H332.7V184.5L333.25 185.399C360.086 229.217 375.144 253.802 386.342 297.557C387.432 301.815 388.734 306.226 391.89 309.285C404.963 321.952 429.585 310.725 425.383 290.335L424.397 285.549C405.02 227.843 389.684 194.365 354.531 151.904C345.472 140.962 331.814 135 317.609 135Z" fill="#82817F"/>
<path d="M332.7 297V300C334.357 300 335.7 298.657 335.7 297H332.7ZM184.2 297H181.2C181.2 298.657 182.543 300 184.2 300V297ZM161.329 151.904L163.64 153.817L163.64 153.817L161.329 151.904ZM91.4629 285.549L88.619 284.594C88.5805 284.708 88.549 284.825 88.5247 284.943L91.4629 285.549ZM129.524 297.559L132.429 298.308L132.429 298.308L129.524 297.559ZM184.2 184.5H187.2C187.2 183.157 186.307 181.977 185.014 181.613C183.721 181.248 182.343 181.788 181.641 182.933L184.2 184.5ZM90.4764 290.336L87.5382 289.73L87.5382 289.73L90.4764 290.336ZM123.969 309.285L121.882 307.13L121.882 307.13L123.969 309.285ZM354.531 151.904L356.842 149.99L356.842 149.99L354.531 151.904ZM424.397 285.549L427.335 284.943C427.311 284.825 427.279 284.708 427.241 284.594L424.397 285.549ZM386.342 297.557L389.248 296.813L389.248 296.813L386.342 297.557ZM333.25 185.399L330.692 186.966L330.692 186.966L333.25 185.399ZM332.7 184.5L335.258 182.933C334.557 181.788 333.179 181.248 331.886 181.613C330.593 181.977 329.7 183.157 329.7 184.5H332.7ZM425.383 290.335L428.322 289.73L428.322 289.73L425.383 290.335ZM391.89 309.285L389.803 311.439L389.803 311.439L391.89 309.285ZM198.251 138H317.609V132H198.251V138ZM332.7 294H184.2V300H332.7V294ZM159.018 149.99C123.545 192.839 108.062 226.692 88.619 284.594L94.3069 286.504C113.618 228.994 128.807 195.892 163.64 153.817L159.018 149.99ZM132.429 298.308C143.659 254.76 159.537 230.514 186.758 186.067L181.641 182.933C154.5 227.251 138.11 252.249 126.619 296.809L132.429 298.308ZM88.5247 284.943L87.5382 289.73L93.4147 290.941L94.4012 286.154L88.5247 284.943ZM87.5382 289.73C85.1342 301.395 91.0534 310.555 99.3622 314.869C107.568 319.13 118.439 318.821 126.057 311.439L121.882 307.13C116.427 312.416 108.45 312.827 102.127 309.544C95.9073 306.314 91.6166 299.666 93.4147 290.941L87.5382 289.73ZM352.22 153.817C387.053 195.892 402.242 228.994 421.553 286.504L427.241 284.594C407.798 226.692 392.314 192.839 356.842 149.99L352.22 153.817ZM389.248 296.813C377.926 252.575 362.642 227.646 335.809 183.832L330.692 186.966C357.53 230.787 372.361 255.03 383.435 298.301L389.248 296.813ZM335.809 183.832L335.258 182.933L330.141 186.067L330.692 186.966L335.809 183.832ZM421.459 286.154L422.445 290.941L428.322 289.73L427.335 284.943L421.459 286.154ZM422.445 290.941C424.243 299.666 419.952 306.314 413.733 309.544C407.41 312.827 399.433 312.416 393.978 307.13L389.803 311.439C397.421 318.821 408.291 319.13 416.497 314.869C424.806 310.555 430.726 301.395 428.322 289.73L422.445 290.941ZM181.2 184.5V297H187.2V184.5H181.2ZM329.7 184.5V297H335.7V184.5H329.7ZM383.435 298.301C384.506 302.486 385.96 307.715 389.803 311.439L393.978 307.13C391.508 304.737 390.357 301.144 389.248 296.813L383.435 298.301ZM317.609 138C330.988 138 343.773 143.614 352.22 153.817L356.842 149.99C347.171 138.31 332.64 132 317.609 132V138ZM126.619 296.809C125.501 301.145 124.352 304.737 121.882 307.13L126.057 311.439C129.9 307.716 131.352 302.485 132.429 298.308L126.619 296.809ZM198.251 132C183.22 132 168.689 138.31 159.018 149.99L163.64 153.817C172.087 143.614 184.872 138 198.251 138V132Z" fill="black" mask="url(#path-9-outside-1)"/>
<path d="M90.4764 290.336L91.4629 285.549C99.9173 260.371 107.602 239.805 116.5 221.094L149.987 243C141.586 259.601 134.998 276.326 129.521 297.571C128.423 301.827 127.126 306.226 123.969 309.285C110.896 321.952 86.2743 310.725 90.4764 290.336Z" fill="#F1D791"/>
<path d="M425.383 290.336L424.397 285.549C415.942 260.371 408.257 239.805 399.36 221.094L366.402 243C374.563 259.6 380.909 276.325 386.345 297.569C387.435 301.827 388.734 306.226 391.89 309.285C404.963 321.952 429.585 310.725 425.383 290.336Z" fill="#F1D791"/>
<circle cx="258" cy="91" r="62.5" fill="#F1D791" stroke="black" stroke-width="3"/>
<circle cx="238" cy="71" r="13" fill="black"/>
<circle cx="279" cy="71" r="13" fill="black"/>
<rect x="225" y="110" width="67" height="13" rx="6.5" fill="white"/>
<rect x="98.0287" y="249.819" width="19" height="79" transform="rotate(-11.9198 98.0287 249.819)" fill="#B87D26" stroke="black"/>
<g filter="url(#filter0_d)">
<circle cx="125.117" cy="332.444" r="23.9388" transform="rotate(-11.9198 125.117 332.444)" fill="#855C1F"/>
<circle cx="125.117" cy="332.444" r="23.4388" transform="rotate(-11.9198 125.117 332.444)" stroke="black"/>
</g>
<path d="M107.83 249.516L64.2539 43.0888L82.1871 64.706L120.629 246.814L107.83 249.516ZM63.2755 43.2953L106.851 249.723L94.0516 252.425L55.6096 70.3164L63.2755 43.2953Z" fill="#CDD5E2" stroke="black"/>
<rect x="72.4785" y="247.061" width="68" height="14.4898" rx="7.2449" transform="rotate(-11.9198 72.4785 247.061)" fill="#855C1F" stroke="black"/>
<path d="M404.741 138.705C382.787 177.101 358.253 185.949 311.002 196.376C310.457 196.496 310.082 196.945 310.215 197.487C313.158 209.502 346.262 339 405.704 339C465.225 339 494.319 209.155 496.823 197.44C496.935 196.916 496.579 196.491 496.059 196.361C447.244 184.15 423.8 173.794 406.555 138.759C406.196 138.03 405.145 138 404.741 138.705Z" fill="#C4C4C4" stroke="black" stroke-width="3"/>
</g>
<defs>
<filter id="filter0_d" x="92.7503" y="304.077" width="64.734" height="64.734" filterUnits="userSpaceOnUse" color-interpolation-filters="sRGB">
<feFlood flood-opacity="0" result="BackgroundImageFix"/>
<feColorMatrix in="SourceAlpha" type="matrix" values="0 0 0 0 0 0 0 0 0 0 0 0 0 0 0 0 0 0 127 0"/>
<feOffset dy="4"/>
<feGaussianBlur stdDeviation="2"/>
<feColorMatrix type="matrix" values="0 0 0 0 0 0 0 0 0 0 0 0 0 0 0 0 0 0 0.25 0"/>
<feBlend mode="normal" in2="BackgroundImageFix" result="effect1_dropShadow"/>
<feBlend mode="normal" in="SourceGraphic" in2="effect1_dropShadow" result="shape"/>
</filter>
<clipPath id="clip0">
<rect width="512" height="512" fill="white"/>
</clipPath>
</defs>
</svg>
