<svg width="512" height="512" viewBox="0 0 512 512" fill="none" xmlns="http://www.w3.org/2000/svg">
<g clip-path="url(#clip0)">
<rect width="339.86" height="457" fill="black" fill-opacity="0" transform="translate(86 27)"/>
<rect width="152" height="189" fill="black" fill-opacity="0" transform="translate(183 295)"/>
<path fill-rule="evenodd" clip-rule="evenodd" d="M335 415H289V457.167V457.714H289.005C289.255 472.281 299.454 484 312 484C324.546 484 334.745 472.281 334.995 457.714H335V457.167V415Z" fill="#F0CC6D"/>
<path d="M289 415V413.5H287.5V415H289ZM335 415H336.5V413.5H335V415ZM289 457.714H287.5V459.214H289V457.714ZM289.005 457.714L290.504 457.689L290.479 456.214H289.005V457.714ZM334.995 457.714V456.214H333.521L333.496 457.689L334.995 457.714ZM335 457.714V459.214H336.5V457.714H335ZM289 416.5H335V413.5H289V416.5ZM290.5 457.167V415H287.5V457.167H290.5ZM290.5 457.714V457.167H287.5V457.714H290.5ZM289.005 456.214H289V459.214H289.005V456.214ZM312 482.5C300.477 482.5 290.744 471.658 290.504 457.689L287.505 457.74C287.765 472.904 298.431 485.5 312 485.5V482.5ZM333.496 457.689C333.256 471.658 323.523 482.5 312 482.5V485.5C325.569 485.5 336.235 472.904 336.495 457.74L333.496 457.689ZM335 456.214H334.995V459.214H335V456.214ZM333.5 457.167V457.714H336.5V457.167H333.5ZM333.5 415V457.167H336.5V415H333.5Z" fill="black"/>
<path fill-rule="evenodd" clip-rule="evenodd" d="M228 415H183V457.167V457.714H183.005C183.249 472.281 193.227 484 205.5 484C217.773 484 227.751 472.281 227.995 457.714H228V457.167V415Z" fill="#F0CC6D"/>
<path d="M183 415V413.5H181.5V415H183ZM228 415H229.5V413.5H228V415ZM183 457.714H181.5V459.214H183V457.714ZM183.005 457.714L184.504 457.689L184.48 456.214H183.005V457.714ZM227.995 457.714V456.214H226.52L226.496 457.689L227.995 457.714ZM228 457.714V459.214H229.5V457.714H228ZM183 416.5H228V413.5H183V416.5ZM184.5 457.167V415H181.5V457.167H184.5ZM184.5 457.714V457.167H181.5V457.714H184.5ZM183.005 456.214H183V459.214H183.005V456.214ZM205.5 482.5C194.278 482.5 184.739 471.691 184.504 457.689L181.505 457.739C181.759 472.871 192.176 485.5 205.5 485.5V482.5ZM226.496 457.689C226.261 471.691 216.722 482.5 205.5 482.5V485.5C218.824 485.5 229.241 472.871 229.495 457.739L226.496 457.689ZM228 456.214H227.995V459.214H228V456.214ZM226.5 457.167V457.714H229.5V457.167H226.5ZM226.5 415V457.167H229.5V415H226.5Z" fill="black"/>
<rect width="152" height="122" fill="black" fill-opacity="0" transform="translate(183 295)"/>
<path d="M183 415H228V346.603C228 343.957 228.774 341.368 230.228 339.157L230.558 338.654C243.971 318.248 274.007 318.584 286.959 339.285C288.293 341.416 289 343.88 289 346.394V415H310.5H335V295H183V415Z" fill="#8D7755"/>
<path d="M228 415V416.5H229.5V415H228ZM183 415H181.5V416.5H183V415ZM183 295V293.5H181.5V295H183ZM230.228 339.157L228.974 338.333L228.974 338.333L230.228 339.157ZM230.558 338.654L231.812 339.478L231.812 339.478L230.558 338.654ZM335 295H336.5V293.5H335V295ZM335 415V416.5H336.5V415H335ZM289 415H287.5V416.5H289V415ZM286.959 339.285L288.231 338.49L288.231 338.49L286.959 339.285ZM228 413.5H183V416.5H228V413.5ZM184.5 415V295H181.5V415H184.5ZM226.5 346.603V415H229.5V346.603H226.5ZM231.481 339.981L231.812 339.478L229.305 337.83L228.974 338.333L231.481 339.981ZM333.5 295V415H336.5V295H333.5ZM290.5 415V346.394H287.5V415H290.5ZM183 296.5H335V293.5H183V296.5ZM335 413.5H310.5V416.5H335V413.5ZM310.5 413.5H289V416.5H310.5V413.5ZM285.688 340.081C286.872 341.973 287.5 344.161 287.5 346.394H290.5C290.5 343.598 289.714 340.859 288.231 338.49L285.688 340.081ZM231.812 339.478C244.624 319.985 273.315 320.306 285.688 340.081L288.231 338.49C274.699 316.861 243.318 316.51 229.305 337.83L231.812 339.478ZM229.5 346.603C229.5 344.249 230.189 341.947 231.481 339.981L228.974 338.333C227.36 340.789 226.5 343.664 226.5 346.603H229.5Z" fill="black"/>
<rect x="184.5" y="413" width="42" height="4" fill="#8D7755"/>
<rect x="290.5" y="413" width="43" height="4" fill="#8D7755"/>
<rect width="335.86" height="179.636" fill="black" fill-opacity="0" transform="translate(90 135)"/>
<mask id="path-9-outside-1" maskUnits="userSpaceOnUse" x="86" y="132" width="343" height="186" fill="black">
<rect fill="white" x="86" y="132" width="343" height="186"/>
<path d="M317.609 135H198.251C184.046 135 170.388 140.962 161.329 151.904C126.176 194.365 110.84 227.843 91.4629 285.549L90.4764 290.336C86.2743 310.725 110.896 321.952 123.969 309.285C127.126 306.226 128.426 301.815 129.524 297.559C140.885 253.505 157.019 228.883 184.2 184.5V297H332.7V184.5L333.25 185.399C360.086 229.217 375.144 253.802 386.342 297.557C387.432 301.815 388.734 306.226 391.89 309.285C404.963 321.952 429.585 310.725 425.383 290.335L424.397 285.549C405.02 227.843 389.684 194.365 354.531 151.904C345.472 140.962 331.814 135 317.609 135Z"/>
</mask>
<path d="M317.609 135H198.251C184.046 135 170.388 140.962 161.329 151.904C126.176 194.365 110.84 227.843 91.4629 285.549L90.4764 290.336C86.2743 310.725 110.896 321.952 123.969 309.285C127.126 306.226 128.426 301.815 129.524 297.559C140.885 253.505 157.019 228.883 184.2 184.5V297H332.7V184.5L333.25 185.399C360.086 229.217 375.144 253.802 386.342 297.557C387.432 301.815 388.734 306.226 391.89 309.285C404.963 321.952 429.585 310.725 425.383 290.335L424.397 285.549C405.02 227.843 389.684 194.365 354.531 151.904C345.472 140.962 331.814 135 317.609 135Z" fill="#349C0F"/>
<path d="M332.7 297V300C334.357 300 335.7 298.657 335.7 297H332.7ZM184.2 297H181.2C181.2 298.657 182.543 300 184.2 300V297ZM161.329 151.904L163.64 153.817L163.64 153.817L161.329 151.904ZM91.4629 285.549L88.619 284.594C88.5805 284.708 88.549 284.825 88.5247 284.943L91.4629 285.549ZM129.524 297.559L132.429 298.308L132.429 298.308L129.524 297.559ZM184.2 184.5H187.2C187.2 183.157 186.307 181.977 185.014 181.613C183.721 181.248 182.343 181.788 181.641 182.933L184.2 184.5ZM90.4764 290.336L87.5382 289.73L87.5382 289.73L90.4764 290.336ZM123.969 309.285L121.882 307.13L121.882 307.13L123.969 309.285ZM354.531 151.904L356.842 149.99L356.842 149.99L354.531 151.904ZM424.397 285.549L427.335 284.943C427.311 284.825 427.279 284.708 427.241 284.594L424.397 285.549ZM386.342 297.557L389.248 296.813L389.248 296.813L386.342 297.557ZM333.25 185.399L330.692 186.966L330.692 186.966L333.25 185.399ZM332.7 184.5L335.258 182.933C334.557 181.788 333.179 181.248 331.886 181.613C330.593 181.977 329.7 183.157 329.7 184.5H332.7ZM425.383 290.335L428.322 289.73L428.322 289.73L425.383 290.335ZM391.89 309.285L389.803 311.439L389.803 311.439L391.89 309.285ZM198.251 138H317.609V132H198.251V138ZM332.7 294H184.2V300H332.7V294ZM159.018 149.99C123.545 192.839 108.062 226.692 88.619 284.594L94.3069 286.504C113.618 228.994 128.807 195.892 163.64 153.817L159.018 149.99ZM132.429 298.308C143.659 254.76 159.537 230.514 186.758 186.067L181.641 182.933C154.5 227.251 138.11 252.249 126.619 296.809L132.429 298.308ZM88.5247 284.943L87.5382 289.73L93.4147 290.941L94.4012 286.154L88.5247 284.943ZM87.5382 289.73C85.1342 301.395 91.0534 310.555 99.3622 314.869C107.568 319.13 118.439 318.821 126.057 311.439L121.882 307.13C116.427 312.416 108.45 312.827 102.127 309.544C95.9073 306.314 91.6166 299.666 93.4147 290.941L87.5382 289.73ZM352.22 153.817C387.053 195.892 402.242 228.994 421.553 286.504L427.241 284.594C407.798 226.692 392.314 192.839 356.842 149.99L352.22 153.817ZM389.248 296.813C377.926 252.575 362.642 227.646 335.809 183.832L330.692 186.966C357.53 230.787 372.361 255.03 383.435 298.301L389.248 296.813ZM335.809 183.832L335.258 182.933L330.141 186.067L330.692 186.966L335.809 183.832ZM421.459 286.154L422.445 290.941L428.322 289.73L427.335 284.943L421.459 286.154ZM422.445 290.941C424.243 299.666 419.952 306.314 413.733 309.544C407.41 312.827 399.433 312.416 393.978 307.13L389.803 311.439C397.421 318.821 408.291 319.13 416.497 314.869C424.806 310.555 430.726 301.395 428.322 289.73L422.445 290.941ZM181.2 184.5V297H187.2V184.5H181.2ZM329.7 184.5V297H335.7V184.5H329.7ZM383.435 298.301C384.506 302.486 385.96 307.715 389.803 311.439L393.978 307.13C391.508 304.737 390.357 301.144 389.248 296.813L383.435 298.301ZM317.609 138C330.988 138 343.773 143.614 352.22 153.817L356.842 149.99C347.171 138.31 332.64 132 317.609 132V138ZM126.619 296.809C125.501 301.145 124.352 304.737 121.882 307.13L126.057 311.439C129.9 307.716 131.352 302.485 132.429 298.308L126.619 296.809ZM198.251 132C183.22 132 168.689 138.31 159.018 149.99L163.64 153.817C172.087 143.614 184.872 138 198.251 138V132Z" fill="black" mask="url(#path-9-outside-1)"/>
<path d="M90.4764 290.336L91.4629 285.549C99.9173 260.371 107.602 239.805 116.5 221.094L149.987 243C141.586 259.601 134.998 276.326 129.521 297.571C128.423 301.827 127.126 306.226 123.969 309.285C110.896 321.952 86.2743 310.725 90.4764 290.336Z" fill="#F0CC6D"/>
<path d="M425.383 290.335L424.397 285.549C415.942 260.371 408.257 239.805 399.36 221.094L366.402 243C374.563 259.6 380.909 276.325 386.345 297.569C387.435 301.827 388.734 306.226 391.89 309.285C404.963 321.952 429.585 310.725 425.383 290.335Z" fill="#F0CC6D"/>
<rect width="128" height="128" fill="black" fill-opacity="0" transform="translate(194 27)"/>
<circle cx="258" cy="91" r="62.5" fill="#F0CC6D" stroke="black" stroke-width="3"/>
<circle cx="238" cy="71" r="13" fill="black"/>
<circle cx="279" cy="71" r="13" fill="black"/>
<rect x="225" y="110" width="67" height="13" rx="6.5" fill="white"/>
</g>
<defs>
<clipPath id="clip0">
<rect width="512" height="512" fill="white"/>
</clipPath>
</defs>
</svg>
